<svg xmlns="http://www.w3.org/2000/svg" width="346" height="614" viewBox="0 0 346 614" xmlns:xlink="http://www.w3.org/1999/xlink"><defs><filter id="b" width="200%" height="200%" x="-50%" y="-50%" filterUnits="objectBoundingBox"><feGaussianBlur stdDeviation="4" in="SourceGraphic"/></filter><filter id="c" width="200%" height="200%" x="-50%" y="-50%" filterUnits="objectBoundingBox"><feGaussianBlur stdDeviation="20" in="SourceGraphic"/></filter><linearGradient id="d" x1="0%" y1="50%" y2="50%"><stop stop-color="#6E6F70" offset="0%"/><stop stop-color="#959697" offset="32.983%"/><stop stop-color="#D7D8D9" offset="100%"/></linearGradient><linearGradient id="e" x1="100%" x2="0%" y1="50%" y2="50%"><stop stop-color="#6E6F70" offset="0%"/><stop stop-color="#959697" offset="32.983%"/><stop stop-color="#D7D8D9" offset="100%"/></linearGradient><linearGradient id="h" x1="50%" x2="50%" y1="0%" y2="100%"><stop stop-color="#2B2B2B" offset="0%"/><stop stop-color="#1D1D1D" offset="100%"/></linearGradient><path id="g" d="M73.25 0h25.5c3.4 0 4.25 2 4.25 2H69s.85-2 4.25-2z"/><filter id="f" width="200%" height="200%" x="-50%" y="-50%" filterUnits="objectBoundingBox"><feOffset in="SourceAlpha" result="shadowOffsetOuter1"/><feColorMatrix values="0 0 0 0 1 0 0 0 0 1 0 0 0 0 1 0 0 0 0.8 0" in="shadowOffsetOuter1"/></filter><linearGradient id="k" x1="50%" x2="50%" y1="0%" y2="100%"><stop stop-color="#727374" offset="0%"/><stop stop-color="#FBFBFB" offset="8.19%"/><stop stop-color="#B1B2B3" offset="15.921%"/><stop stop-color="#B2B3B4" offset="70.432%"/><stop stop-color="#EBECED" offset="87.683%"/><stop stop-color="#FFF" offset="95.28%"/><stop stop-color="#4D4E4F" offset="100%"/></linearGradient><path id="j" d="M0 .742c0-.474.386-.8.837-.735l.326.048c.462.068.837.5.837.97v18.95c0 .467-.386.903-.837.97l-.326.048C.375 21.06 0 20.73 0 20.258V.742z"/><filter id="i" width="200%" height="200%" x="-50%" y="-50%" filterUnits="objectBoundingBox"><feOffset in="SourceAlpha" result="shadowOffsetOuter1"/><feGaussianBlur stdDeviation=".5" in="shadowOffsetOuter1" result="shadowBlurOuter1"/><feColorMatrix values="0 0 0 0 0 0 0 0 0 0 0 0 0 0 0 0 0 0 0.1 0" in="shadowBlurOuter1"/></filter><filter id="l" width="200%" height="200%" x="-50%" y="-50%" filterUnits="objectBoundingBox"><feOffset in="SourceAlpha" result="shadowOffsetInner1"/><feComposite in="shadowOffsetInner1" in2="SourceAlpha" operator="arithmetic" k2="-1" k3="1" result="shadowInnerInner1"/><feColorMatrix values="0 0 0 0 0.718377976 0 0 0 0 0.718377976 0 0 0 0 0.718377976 0 0 0 1 0" in="shadowInnerInner1"/></filter><linearGradient id="m" x1="50%" x2="50%" y1="0%" y2="98.255%"><stop stop-color="#FFFDFD" offset="0%"/><stop stop-color="#2E2F2F" offset="2.098%"/><stop stop-color="#383838" offset="4.737%"/><stop stop-color="#E4E5E6" offset="11.348%"/><stop stop-color="#F7F8F9" offset="14.245%"/><stop stop-color="#F4F5F6" offset="84.875%"/><stop stop-color="#8D8E8F" offset="89.364%"/><stop stop-color="#404142" offset="97.994%"/><stop stop-color="#FFF" offset="100%"/></linearGradient><linearGradient id="p" x1="50%" x2="50%" y1="0%" y2="100%"><stop stop-color="#AFB0B1" offset="0%"/><stop stop-color="#EFF0F1" offset="8.19%"/><stop stop-color="#DDDEDF" offset="15.921%"/><stop stop-color="#F4F5F6" offset="77.399%"/><stop stop-color="#F3F4F5" offset="77.399%"/><stop stop-color="#DFE0E1" offset="87.683%"/><stop stop-color="#FFF" offset="95.28%"/><stop stop-color="#4D4E4F" offset="100%"/></linearGradient><rect id="o" width="4" height="42" rx="2"/><filter id="n" width="200%" height="200%" x="-50%" y="-50%" filterUnits="objectBoundingBox"><feOffset in="SourceAlpha" result="shadowOffsetOuter1"/><feGaussianBlur stdDeviation=".5" in="shadowOffsetOuter1" result="shadowBlurOuter1"/><feColorMatrix values="0 0 0 0 0 0 0 0 0 0 0 0 0 0 0 0 0 0 0.1 0" in="shadowBlurOuter1"/></filter><filter id="q" width="200%" height="200%" x="-50%" y="-50%" filterUnits="objectBoundingBox"><feOffset in="SourceAlpha" result="shadowOffsetInner1"/><feComposite in="shadowOffsetInner1" in2="SourceAlpha" operator="arithmetic" k2="-1" k3="1" result="shadowInnerInner1"/><feColorMatrix values="0 0 0 0 0.718377976 0 0 0 0 0.718377976 0 0 0 0 0.718377976 0 0 0 1 0" in="shadowInnerInner1"/></filter><rect id="s" width="3" height="40" rx="1.5"/><filter id="r" width="200%" height="200%" x="-50%" y="-50%" filterUnits="objectBoundingBox"><feOffset in="SourceAlpha" result="shadowOffsetOuter1"/><feGaussianBlur stdDeviation=".5" in="shadowOffsetOuter1" result="shadowBlurOuter1"/><feColorMatrix values="0 0 0 0 0 0 0 0 0 0 0 0 0 0 0 0 0 0 0.1 0" in="shadowBlurOuter1"/></filter><filter id="t" width="200%" height="200%" x="-50%" y="-50%" filterUnits="objectBoundingBox"><feOffset in="SourceAlpha" result="shadowOffsetInner1"/><feComposite in="shadowOffsetInner1" in2="SourceAlpha" operator="arithmetic" k2="-1" k3="1" result="shadowInnerInner1"/><feColorMatrix values="0 0 0 0 0.718377976 0 0 0 0 0.718377976 0 0 0 0 0.718377976 0 0 0 1 0" in="shadowInnerInner1"/></filter><rect id="v" width="3" height="40" rx="1.5"/><filter id="u" width="200%" height="200%" x="-50%" y="-50%" filterUnits="objectBoundingBox"><feOffset in="SourceAlpha" result="shadowOffsetOuter1"/><feGaussianBlur stdDeviation=".5" in="shadowOffsetOuter1" result="shadowBlurOuter1"/><feColorMatrix values="0 0 0 0 0 0 0 0 0 0 0 0 0 0 0 0 0 0 0.1 0" in="shadowBlurOuter1"/></filter><filter id="w" width="200%" height="200%" x="-50%" y="-50%" filterUnits="objectBoundingBox"><feOffset in="SourceAlpha" result="shadowOffsetInner1"/><feComposite in="shadowOffsetInner1" in2="SourceAlpha" operator="arithmetic" k2="-1" k3="1" result="shadowInnerInner1"/><feColorMatrix values="0 0 0 0 0.718377976 0 0 0 0 0.718377976 0 0 0 0 0.718377976 0 0 0 1 0" in="shadowInnerInner1"/></filter><linearGradient id="z" x1="50%" x2="50%" y1="0%" y2="100%"><stop stop-color="#F6F8FA" offset="0%"/><stop stop-color="#F1F3F4" offset="100%"/></linearGradient><rect id="y" width="250" height="525" rx="34"/><filter id="x" width="200%" height="200%" x="-50%" y="-50%" filterUnits="objectBoundingBox"><feMorphology radius="1" operator="dilate" in="SourceAlpha" result="shadowSpreadOuter1"/><feOffset dy="1" in="shadowSpreadOuter1" result="shadowOffsetOuter1"/><feGaussianBlur stdDeviation=".5" in="shadowOffsetOuter1" result="shadowBlurOuter1"/><feColorMatrix values="0 0 0 0 1 0 0 0 0 1 0 0 0 0 1 0 0 0 0.3 0" in="shadowBlurOuter1"/></filter><filter id="A" width="200%" height="200%" x="-50%" y="-50%" filterUnits="objectBoundingBox"><feGaussianBlur stdDeviation=".5" in="SourceAlpha" result="shadowBlurInner1"/><feOffset in="shadowBlurInner1" result="shadowOffsetInner1"/><feComposite in="shadowOffsetInner1" in2="SourceAlpha" operator="arithmetic" k2="-1" k3="1" result="shadowInnerInner1"/><feColorMatrix values="0 0 0 0 0 0 0 0 0 0 0 0 0 0 0 0 0 0 0.14 0" in="shadowInnerInner1"/></filter><filter id="B" width="200%" height="200%" x="-50%" y="-50%" filterUnits="objectBoundingBox"><feGaussianBlur stdDeviation="1.197" in="SourceGraphic"/></filter><filter id="C" width="200%" height="200%" x="-50%" y="-50%" filterUnits="objectBoundingBox"><feGaussianBlur stdDeviation="1.197" in="SourceGraphic"/></filter><linearGradient id="D" x1="50%" x2="50%" y1="0%" y2="98.394%"><stop stop-opacity=".04" offset="0%"/><stop stop-opacity=".1" offset="100%"/></linearGradient><rect id="a" width="250" height="525" rx="34"/><mask id="E" width="250" height="525" x="0" y="0" fill="#fff"><use xlink:href="#a"/></mask><radialGradient id="H" cx="16.82%" cy="11.312%" r="101.6%" fx="16.82%" fy="11.312%"><stop stop-color="#C3C3C4" offset="0%"/><stop stop-color="#1B1D1E" offset="20.057%"/><stop stop-color="#8B8C8D" offset="29.361%"/><stop stop-color="#F0F1F2" offset="39.903%"/><stop stop-color="#A9AAAB" offset="50.133%"/><stop stop-color="#171819" offset="55.762%"/><stop stop-color="#1C1D1E" offset="62.965%"/><stop stop-color="#38393A" offset="73.065%"/><stop stop-color="#88898A" offset="85.302%"/><stop stop-color="#D7D8D9" offset="93.738%"/><stop stop-color="#F8F9FA" offset="100%"/></radialGradient><path id="G" d="M125 515c-11.046 0-20-8.954-20-20s8.954-20 20-20 20 8.954 20 20-8.954 20-20 20zm0-3c9.39 0 17-7.61 17-17s-7.61-17-17-17-17 7.61-17 17 7.61 17 17 17z"/><filter id="F" width="200%" height="200%" x="-50%" y="-50%" filterUnits="objectBoundingBox"><feOffset in="SourceAlpha" result="shadowOffsetOuter1"/><feGaussianBlur stdDeviation=".5" in="shadowOffsetOuter1" result="shadowBlurOuter1"/><feColorMatrix values="0 0 0 0 1 0 0 0 0 1 0 0 0 0 1 0 0 0 0.7 0" in="shadowBlurOuter1"/></filter><filter id="I" width="200%" height="200%" x="-50%" y="-50%" filterUnits="objectBoundingBox"><feGaussianBlur stdDeviation=".5" in="SourceAlpha" result="shadowBlurInner1"/><feOffset in="shadowBlurInner1" result="shadowOffsetInner1"/><feComposite in="shadowOffsetInner1" in2="SourceAlpha" operator="arithmetic" k2="-1" k3="1" result="shadowInnerInner1"/><feColorMatrix values="0 0 0 0 0 0 0 0 0 0 0 0 0 0 0 0 0 0 0.112686821 0" in="shadowInnerInner1"/></filter><rect id="J" width="41" height="5" rx="2.5"/><filter id="K" width="200%" height="200%" x="-50%" y="-50%" filterUnits="objectBoundingBox"><feOffset in="SourceAlpha" result="shadowOffsetOuter1"/><feGaussianBlur stdDeviation=".5" in="shadowOffsetOuter1" result="shadowBlurOuter1"/><feColorMatrix values="0 0 0 0 1 0 0 0 0 1 0 0 0 0 1 0 0 0 1 0" in="shadowBlurOuter1"/></filter><rect id="M" width="41" height="5" rx="2.5"/><filter id="N" width="200%" height="200%" x="-50%" y="-50%" filterUnits="objectBoundingBox"><feMorphology radius="1" in="SourceAlpha" result="shadowSpreadInner1"/><feGaussianBlur stdDeviation=".5" in="shadowSpreadInner1" result="shadowBlurInner1"/><feOffset in="shadowBlurInner1" result="shadowOffsetInner1"/><feComposite in="shadowOffsetInner1" in2="SourceAlpha" operator="arithmetic" k2="-1" k3="1" result="shadowInnerInner1"/><feColorMatrix values="0 0 0 0 0 0 0 0 0 0 0 0 0 0 0 0 0 0 0.5 0" in="shadowInnerInner1"/></filter><circle id="P" cx="125" cy="13" r="3"/><filter id="O" width="200%" height="200%" x="-50%" y="-50%" filterUnits="objectBoundingBox"><feOffset in="SourceAlpha" result="shadowOffsetOuter1"/><feColorMatrix values="0 0 0 0 1 0 0 0 0 1 0 0 0 0 1 0 0 0 1 0" in="shadowOffsetOuter1"/></filter><radialGradient id="S" cx="121.058%" cy="134.126%" r="100.661%" fx="121.058%" fy="134.126%"><stop stop-color="#FFF" offset="0%"/><stop stop-color="#252525" offset="100%"/></radialGradient><circle id="R" cx="5.5" cy="5.5" r="5.5"/><filter id="Q" width="200%" height="200%" x="-50%" y="-50%" filterUnits="objectBoundingBox"><feOffset in="SourceAlpha" result="shadowOffsetOuter1"/><feColorMatrix values="0 0 0 0 1 0 0 0 0 1 0 0 0 0 1 0 0 0 1 0" in="shadowOffsetOuter1"/></filter><radialGradient id="V" cy="0%" r="100%" fx="50%" fy="0%"><stop stop-color="#2A4893" offset="0%"/><stop stop-color="#213054" offset="100%"/></radialGradient><circle id="T" cx="5.5" cy="5.5" r="2.5"/><filter id="U" width="200%" height="200%" x="-50%" y="-50%" filterUnits="objectBoundingBox"><feMorphology radius=".5" operator="dilate" in="SourceAlpha" result="shadowSpreadOuter1"/><feOffset in="shadowSpreadOuter1" result="shadowOffsetOuter1"/><feGaussianBlur stdDeviation=".5" in="shadowOffsetOuter1" result="shadowBlurOuter1"/><feColorMatrix values="0 0 0 0 0 0 0 0 0 0 0 0 0 0 0 0 0 0 0.4 0" in="shadowBlurOuter1"/></filter><filter id="W" width="200%" height="200%" x="-50%" y="-50%" filterUnits="objectBoundingBox"><feGaussianBlur stdDeviation=".352" in="SourceGraphic"/></filter><filter id="Y" width="200%" height="200%" x="-50%" y="-50%" filterUnits="objectBoundingBox"><feGaussianBlur stdDeviation=".352" in="SourceGraphic"/></filter><filter id="Z" width="200%" height="200%" x="-50%" y="-50%" filterUnits="objectBoundingBox"><feGaussianBlur stdDeviation=".352" in="SourceGraphic"/></filter><filter id="aa" width="200%" height="200%" x="-50%" y="-50%" filterUnits="objectBoundingBox"><feGaussianBlur stdDeviation=".352" in="SourceGraphic"/></filter><filter id="ab" width="200%" height="200%" x="-50%" y="-50%" filterUnits="objectBoundingBox"><feGaussianBlur stdDeviation=".352" in="SourceGraphic"/></filter><filter id="ac" width="200%" height="200%" x="-50%" y="-50%" filterUnits="objectBoundingBox"><feGaussianBlur stdDeviation=".352" in="SourceGraphic"/></filter></defs><g fill="none" fill-rule="evenodd"><path fill="#000" fill-opacity=".2" d="M5 211.733v283.434c0 14.3 4.164 42.83 41.92 43.807 1.11-.577 3.136-.963 5.452-.963 2.35 0 4.402.4 5.5.99h155.194C252.862 539 257 509.554 257 495.167V164.274c-1.08 0-1.953-.87-1.953-1.953v-37.746c0-1.08.867-1.895 1.953-1.82v-65.92C257 21.823 233.845 13 213.895 13H48.935C18.157 13 5 31.205 5 56.833v65.915c1.08 0 1.953.88 1.953 1.962v85.06c0 1.085-.867 1.963-1.953 1.963z" filter="url(#b)" transform="translate(42 10)"/><path fill="#000" fill-opacity=".2" d="M2 232.733v283.434c0 14.3 4.264 42.83 42.92 43.807 1.135-.577 3.21-.963 5.58-.963 2.406 0 4.507.4 5.63.99h158.89c40.744 0 44.98-29.446 44.98-43.833V185.274c-1.105 0-2-.89-2-2.01V145.63c0-1.11.888-1.95 2-1.877v-65.92C260 42.823 236.294 34 215.868 34H46.98C15.47 34 2 52.205 2 77.833v65.915c1.105 0 2 .895 2 2.005v84.976c0 1.106-.888 2.003-2 2.003z" filter="url(#c)" transform="translate(42 10)"/><path fill="#D8D8D8" d="M44 211v286.667c0 14.463 4.264 43.32 42.92 44.307 1.135-.583 3.21-.974 5.58-.974 2.406 0 4.507.402 5.63 1h158.89c40.744 0 44.98-29.782 44.98-44.333V163c-1.105 0-2-.9-2-2.004v-38.12c0-1.108.888-1.946 2-1.87V54.332C302 18.923 278.294 10 257.868 10H88.98C57.47 10 44 28.412 44 54.333V121c1.105 0 2 .89 2 2.006v85.988c0 1.108-.888 2.006-2 2.006z"/><path fill="url(#d)" d="M0 436l.107.032c1.322.392 3.468.39 4.786 0L5 436v6.67l-.107.032c-1.322.39-3.468.39-4.786 0L0 442.67V436z" transform="translate(44 56)"/><path fill="url(#e)" d="M258 436l-.12.036c-1.315.39-3.44.39-4.76 0L253 436v6.67l.12.037c1.315.39 3.44.39 4.76 0l.12-.036V436z" transform="translate(44 56)"/><path fill="url(#d)" d="M0 7l.12-.036c1.315-.39 3.44-.39 4.76 0L5 7V.33L4.88.292c-1.315-.39-3.44-.39-4.76 0L0 .33V7z" transform="translate(44 56)"/><path fill="url(#e)" d="M258 7l-.12-.036c-1.315-.39-3.44-.39-4.76 0L253 7V.33l.12-.037c1.315-.39 3.44-.39 4.76 0l.12.036V7z" transform="translate(44 56)"/><g opacity=".6" transform="translate(86 540)"><use fill="#000" filter="url(#f)" xlink:href="#g"/><use fill="url(#h)" xlink:href="#g"/></g><path fill="#FFF" d="M85.647 541.9c.786.044 1.587.074 2.403.09 1.145-.602 2.955-.99 4.993-.99 2.05 0 3.87.393 5.013 1h.384c-1.07-1.29-3.55-2-6.44-2-2.813 0-5.24.673-6.353 1.9z" opacity=".7"/><g transform="translate(42 77)"><use fill="#000" filter="url(#i)" xlink:href="#j"/><use fill="url(#k)" xlink:href="#j"/><use fill="#000" filter="url(#l)" xlink:href="#j"/><rect width="-.1" height="20" x="1" y="1" fill="url(#m)" rx="-.05"/></g><g transform="matrix(-1 0 0 1 304 121)"><use fill="#000" filter="url(#n)" xlink:href="#o"/><use fill="url(#p)" xlink:href="#o"/><use fill="#000" filter="url(#q)" xlink:href="#o"/><rect width="1" height="40" y="1" fill="url(#m)" rx=".5"/></g><g transform="matrix(-1 0 0 1 46 121)"><use fill="#000" filter="url(#r)" xlink:href="#s"/><use fill="url(#p)" xlink:href="#s"/><use fill="#000" filter="url(#t)" xlink:href="#s"/><rect width="1" height="39" x="2" y="1" fill="url(#m)" rx=".5"/></g><g transform="matrix(-1 0 0 1 46 172)"><use fill="#000" filter="url(#u)" xlink:href="#v"/><use fill="url(#p)" xlink:href="#v"/><use fill="#000" filter="url(#w)" xlink:href="#v"/><rect width="1" height="39" x="2" y="1" fill="url(#m)" rx=".5"/></g><g transform="translate(48 14)"><use fill="#000" filter="url(#x)" xlink:href="#y"/><use fill="url(#z)" xlink:href="#y"/><use fill="#000" filter="url(#A)" xlink:href="#y"/><path fill="#FFF" d="M128 0H34.003C15.225 0 0 15.22 0 33.992v457.016C0 509.784 15.224 525 34.003 525H128 41.003C22.223 525 7 509.784 7 491.008V33.992C7 15.22 22.225 0 41.003 0H128z" opacity=".8" filter="url(#B)"/><path fill="#FFF" d="M122 0h94.097C234.82 0 250 15.286 250 34.143v456.714C250 509.713 234.82 525 216.097 525H122h87.316c18.724 0 33.903-15.287 33.903-34.143V34.143C243.22 15.286 228.04 0 209.315 0H122z" opacity=".8" filter="url(#C)"/><use stroke="url(#D)" stroke-width="6" mask="url(#E)" xlink:href="#a"/><use fill="#000" filter="url(#F)" xlink:href="#G"/><use fill="url(#H)" xlink:href="#G"/><use fill="#000" filter="url(#I)" xlink:href="#G"/><g transform="translate(105 28)"><mask id="L" fill="#fff"><use xlink:href="#J"/></mask><use fill="#000" filter="url(#K)" xlink:href="#J"/><use fill="#333" xlink:href="#J"/><path fill="#FFF" d="M0-1h1v7H0v-7zm2 0h1v7H2v-7zm2 0h1v7H4v-7zm2 0h1v7H6v-7zm2 0h1v7H8v-7zm2 0h1v7h-1v-7zm2 0h1v7h-1v-7zm2 0h1v7h-1v-7zm2 0h1v7h-1v-7zm2 0h1v7h-1v-7zm2 0h1v7h-1v-7zm2 0h1v7h-1v-7zm2 0h1v7h-1v-7zm2 0h1v7h-1v-7zm2 0h1v7h-1v-7zm2 0h1v7h-1v-7zm2 0h1v7h-1v-7zm2 0h1v7h-1v-7zm2 0h1v7h-1v-7zm2 0h1v7h-1v-7zm2 0h1v7h-1v-7z" opacity=".1" mask="url(#L)"/><path fill="#FFF" d="M-2 1h48v1H-2V1zm0 2h48v1H-2V3z" opacity=".1" mask="url(#L)"/><use fill="#1D1B1C" fill-opacity=".1" xlink:href="#M"/><use fill="#000" filter="url(#N)" xlink:href="#M"/></g><use fill="#000" filter="url(#O)" xlink:href="#P"/><use fill="#323234" xlink:href="#P"/><g transform="translate(78 25)"><use fill="#000" filter="url(#Q)" xlink:href="#R"/><use fill="url(#S)" xlink:href="#R"/><mask id="X" fill="#fff"><use xlink:href="#T"/></mask><use fill="#000" filter="url(#U)" xlink:href="#T"/><use fill="url(#V)" xlink:href="#T"/><ellipse cx="4.5" cy="7.5" fill="#BEE5FF" filter="url(#W)" mask="url(#X)" rx=".5" ry=".5"/><ellipse cx="4.5" cy="7.5" fill="#BEE5FF" filter="url(#Y)" mask="url(#X)" rx=".5" ry=".5"/><ellipse cx="8.5" cy="4.5" fill="#75C9FF" filter="url(#Z)" mask="url(#X)" rx=".5" ry=".5"/><ellipse cx="7.5" cy="4.5" fill="#75C9FF" filter="url(#aa)" mask="url(#X)" rx=".5" ry=".5"/><ellipse cx="5.21" cy="4.834" fill="#3358B6" filter="url(#ab)" mask="url(#X)" transform="rotate(-29 5.333 5.06)" rx="1" ry=".5"/><circle cx="5.855" cy="5.855" r="1.5" fill="#00154F" filter="url(#ac)" mask="url(#X)" transform="rotate(-16 5.855 5.855)"/></g><rect width="229" height="404" x="11" y="61" fill="#363535" rx="1.795"/></g><path fill="#1D2129" d="M61 77h225v400H61"/></g></svg>