<?xml version="1.0" encoding="utf-8"?>
<!-- Generator: Adobe Illustrator 18.0.0, SVG Export Plug-In . SVG Version: 6.00 Build 0)  -->
<!DOCTYPE svg PUBLIC "-//W3C//DTD SVG 1.1//EN" "http://www.w3.org/Graphics/SVG/1.1/DTD/svg11.dtd">
<svg version="1.1" id="_x2014_лой_x5F_1" xmlns="http://www.w3.org/2000/svg" xmlns:xlink="http://www.w3.org/1999/xlink"
	 x="0px" y="0px" viewBox="0 0 597.4 375.2" style="enable-background:new 0 0 597.4 375.2;" xml:space="preserve">
<style type="text/css">
	.st0{fill:#FFFFFF;}
	.st1{fill:url(#SVGID_1_);}
	.st2{fill:url(#SVGID_2_);}
	.st3{fill:#DDEEFB;}
	.st4{fill:#E2F0FC;}
	.st5{fill:#4A6692;}
	.st6{fill:url(#SVGID_3_);}
	.st7{fill:#D9E6F7;}
	.st8{fill:#C3D9F3;}
	.st9{fill:#A2C7EC;}
	.st10{fill:#E2ECF9;}
	.st11{fill:url(#SVGID_4_);}
	.st12{fill:#AACAED;}
	.st13{fill:#5787C7;}
	.st14{fill:#92C0D7;}
	.st15{fill:url(#SVGID_5_);}
	.st16{fill:url(#SVGID_6_);}
</style>
<rect x="-17.4" y="-18.8" class="st0" width="632" height="439"/>
<g>
	<g>
		
			<linearGradient id="SVGID_1_" gradientUnits="userSpaceOnUse" x1="-282.7421" y1="267.2174" x2="-230.2216" y2="349.2809" gradientTransform="matrix(-0.2166 -0.9763 -0.9763 0.2166 632.2343 -12.4181)">
			<stop  offset="0" style="stop-color:#E9F0FA"/>
			<stop  offset="1" style="stop-color:#F1F6FC"/>
		</linearGradient>
		<path class="st1" d="M425.6,284.6c0,0-27.8,41.9-49.1,46.6c-21.2,4.7-64.7-14.6-64.7-14.6l0.7-14.5c0,0,49,2.1,61.3-0.7
			c12.3-2.7,24.7-32,24.7-32"/>
		
			<linearGradient id="SVGID_2_" gradientUnits="userSpaceOnUse" x1="-501.5668" y1="317.2653" x2="-438.6916" y2="317.2653" gradientTransform="matrix(1 0 0 1 897.9177 0)">
			<stop  offset="0" style="stop-color:#F1F6FC"/>
			<stop  offset="1" style="stop-color:#E9F0FA"/>
		</linearGradient>
		<path class="st2" d="M454.9,375.2l4.4-90.2c0,0-5.6-25.5-26.2-25.5c-8.9,0-14.9-0.3-18.9,0.1c-13.6,1.3-15.5,9.8-17.6,15.5
			c-0.6,1.7,1.5,92.4,1.7,100.1H454.9z"/>
		<g>
			<path class="st3" d="M424.2,257.7c1.8,0,3.5,0.2,5.2,0.5c1.9-1.4,2.9-2.7,2.9-2.7v-24l-7.7,6.1l-10.7,2.8v15.4c0,0,0,1.3,0.9,2.6
				C417.8,257.9,421,257.7,424.2,257.7z"/>
			<path class="st4" d="M413,244.9c-2.2-0.1-4.3-0.4-5.3-1.4c-6.4-10.2,0.9-37.7,0.9-37.7l23.2,4.2l0.7,18.4c0.2,4.9-2,9.6-5.8,12.7
				l0,0C422.5,243.7,417.8,245.1,413,244.9z"/>
			<path class="st5" d="M420.8,210.5c0,0-7.7,1.4-15.8,0c-8.1-1.4-2.9-10.4-2.9-10.4s6,2.7,16.7,1.2c7.2-1.1,9.1-2.5,13.7,0
				c6.3,3.3,4.8,14.7,4.8,14.7l-3.5,24h-1.3c0,0-0.3-14.3-0.3-19.1c-1.4-2.2-2.8-2.2-4-1.7c-1.2,0.6-1.9,1.9-1.9,3.3v24.9
				c0,0-15.8,6.8-19.9,5.6c-4-1.2-1.3-19.7-1.3-19.7s4.7-2,8.3,2c3.6,4,7.9-0.2,7.9-0.2L420.8,210.5z"/>
			<path class="st4" d="M430.2,218.6c-1.8-0.1-3.5,1.6-3.8,3.8c-0.3,2.3,0.8,4.2,2.6,4.3c1.8,0.1,3.5-1.6,3.8-3.8
				C433.2,220.7,432,218.7,430.2,218.6z"/>
		</g>
		
			<linearGradient id="SVGID_3_" gradientUnits="userSpaceOnUse" x1="481.2459" y1="265.3838" x2="533.7674" y2="347.4487" gradientTransform="matrix(-1 0 0 1 965.1134 0)">
			<stop  offset="0" style="stop-color:#E9F0FA"/>
			<stop  offset="1" style="stop-color:#F1F6FC"/>
		</linearGradient>
		<path class="st6" d="M451.5,318.4c0,10.6-8.9,45.8-11.8,56.7h18.1c8.1-12.1,23.4-37,23.4-52.9c0-21.7-34.9-58-34.9-58l-20.7,23.1
			C425.6,287.3,451.5,305.8,451.5,318.4z"/>
		<g>
			<path class="st7" d="M450.9,318.4c0,10.5-9,46-11.8,56.7h1.2c3.1-11.8,11.7-46.2,11.7-56.7c0-12.7-25.1-30.8-26.1-31.5l-0.6,0.9
				C425.5,288,450.9,306.2,450.9,318.4z"/>
		</g>
	</g>
	<polygon class="st8" points="413.6,253.6 432,253.3 434.9,259.8 413.4,259.8 	"/>
</g>
<g>
	<path class="st4" d="M138.9,372.6l-28.6-84.5c0,0-4-4.7-12.3,15.8c8.8,17.4,8,50.4,20.5,68.7H138.9z"/>
	<g>
		<g>
			<path class="st3" d="M67.2,260.1L78,242.2l13.9,7.2l-4.7,15.5c-0.1,0.1-0.3,0.1-0.4,0.2C82.2,260.2,73.5,262.5,67.2,260.1z"/>
		</g>
		<g>
			<path class="st4" d="M79.6,214.4l-3.9,21.4c2.1,0.4,2.8,3,2,4.8c0.1,0.5,0.1,1.1,0,1.6c3,3.5,8.9,8.4,17.8,8.8
				c14,0.6,12-27.2,12-27.2L79.6,214.4z"/>
			<path class="st5" d="M69.1,228.7c0.3-1.6-1.1-5.4-2-6.6c-6-8.3,1.9-11.5,4.6-12.5c3.1-1.1,3.7-6,7.7-7.9
				c6.2-2.9,10.3,2.6,13.8,2.7c3.5,0.2,6.6-3.8,11-0.3c4.3,3.5,2.9,7.2,4.1,9.2c1.2,2,5.1-1.8,8.7,4.4c5.4,9.5-9.6,9.5-9.6,9.5
				s-8.5,1.4-17.9-5.1c-1.3-0.9-3-1-4.2,0c-3.3,2.8-7.4,20.4-7.4,20.4l-2.8-3.7C75.1,238.9,67.9,235.9,69.1,228.7z"/>
			<circle class="st4" cx="80" cy="231.8" r="3.3"/>
		</g>
	</g>
	<path class="st9" d="M112.4,294c-4.2-17-14.8-36.2-33.9-36.3c-0.2,0-0.3,0-0.5,0c-32.5,0-53.8,31.8-53.8,31.8l19.8,27.9V373h68.3
		v-68.8L112.4,294z"/>
	<g>
		<polygon class="st10" points="113.1,373 112.4,294 112.4,294 111.7,294 111.7,373 		"/>
	</g>
	<linearGradient id="SVGID_4_" gradientUnits="userSpaceOnUse" x1="65.3157" y1="256.0985" x2="91.0465" y2="256.0985">
		<stop  offset="0" style="stop-color:#F1F6FC"/>
		<stop  offset="1" style="stop-color:#E9F0FA"/>
	</linearGradient>
	<polygon class="st11" points="65.3,259.3 72.5,251.3 90.2,254.9 91,260.9 	"/>
	<path class="st4" d="M41.8,373l-19.4-34.3l21.7-21.3l-19.8-27.9c0,0-24.2,27.2-24.2,45.5c0,8.6,9.6,24,19.7,38H41.8z"/>
</g>
<path class="st12" d="M423.1,67.4c33.3,0,60.3,27,60.3,60.3c0,12.4-3.7,19.4-10.8,33.5c-10.3,20.4,6.7,29.1,6.7,29.1
	s-44.5,0.3-56.2,0.3c-33.3,0-60.3-29.6-60.3-62.9C362.8,94.4,389.8,67.4,423.1,67.4z"/>
<g>
	<path class="st13" d="M208.6,181.3l1.8-0.6c24.9-8.6,51.6-10.1,77.3-4.7c29.6,6.2,69.7,11.2,91.9,0.3c15.1-7.5,33-47.4,29.4-72.4
		c-2.7-19.1-19.6-33.3-38.9-34.9c-29.2-2.5-83.5-4.1-109.6,14.8c-36.7,26.6-36.7,73.5-36.7,73.5L208.6,181.3z"/>
</g>
<g>
	<path class="st14" d="M428.2,173.7l1.6-0.7c22.3-9.2,46.2,4.4,69.3,10.2c26.5,6.6,62.4,5,82.2-6.7c13.5-8,15.7-30.2,15.6-75
		c-0.1-30.1,5.6-49.4-21.1-58.3c-21-7-61-9-100,0.1c-15,3.5-27.6,12-30.1,29.9c-5.3,37.4-1,72.4-1,72.4L428.2,173.7z"/>
</g>
<path class="st13" d="M118.2,0C68.8,0,28.8,40,28.8,89.4c0,18.4,5.5,28.8,16,49.7c15.3,30.3-9.9,43.1-9.9,43.1s66,0.5,83.3,0.5
	c49.4,0,89.4-43.9,89.4-93.2C207.6,40,167.6,0,118.2,0z"/>
<g>
	<linearGradient id="SVGID_5_" gradientUnits="userSpaceOnUse" x1="153.9623" y1="103.8196" x2="288.0772" y2="103.8196">
		<stop  offset="0" style="stop-color:#E9F0FA"/>
		<stop  offset="1" style="stop-color:#F1F6FC"/>
	</linearGradient>
	<path class="st15" d="M287.4,154.8l-1.3-0.4c-7.2-12.8-17-30.5-46.9-26c-20.9,3.1-48.8,8-64.4,0.3c-10.5-5.2-23-33-20.5-50.5
		c1.9-13.3,13.7-23.2,27.1-24.3c20.4-1.7,58.2-2.8,76.4,10.3C295.3,91.3,287.4,154.8,287.4,154.8z"/>
</g>
<g>
	<g>
		<polygon class="st3" points="187.8,243.3 187.6,260.9 203.4,260 204.3,232.7 		"/>
		<g>
			<path class="st4" d="M185.2,244.9c-2.2-0.1-4.2-0.4-5.3-1.3c-6.3-9.2,0.9-34,0.9-34l10.1-4.3l12.9,8l0.7,16.6
				c0.2,4.4-1.9,8.7-5.7,11.5l0,0C194.7,243.8,190,245,185.2,244.9z"/>
		</g>
		<path class="st5" d="M200.2,222.8c-0.7-2.8,1.2-9.2-1.6-8.8c-2.1,0.3-9.2,0.6-11.6,0.6c-5.7,0-15.9-2.2-15.9-10.9
			c0-4.3,2.7-6.5,5.3-7.7c2.6-1.1,5.6,2,8.2,3c6.3,2.2,19.2,4,22.6,3.3c3.8-0.8,7.7,3.1,8,5.4c0.6,5-2.7,12.7-5.2,17.6
			c-1.4,2.8-3.4,5.3-5.7,7.5l0,0L200.2,222.8z"/>
		<path class="st4" d="M207.5,223.4c-1.3-1.1-3.7-0.9-5.3,0.5c-1.7,1.4-2,3.4-0.7,4.5c1.3,1.1,3.7,0.9,5.3-0.5
			C208.5,226.6,208.8,224.5,207.5,223.4z"/>
	</g>
	<path class="st14" d="M239.3,289.8c-3.2-13.5-12.2-25.1-24.8-30.7c-5.1-2.3-11.3-3.8-18.4-3.8c-5.6,0-10.4,0.5-14.5,1.4
		c-0.1,0-0.2,0-0.3,0.1c-12.5,2.7-26.7,17.1-26.7,38.7l0.4,77.3h65l-1.4-71.3l1.4,71.3H243C248.8,338.7,243.1,305.9,239.3,289.8z"/>
	<g>
		<polygon class="st7" points="219.1,372.8 217.8,304.6 219.3,304.6 220.6,372.8 		"/>
	</g>
	<polygon class="st7" points="203.7,250.3 206.8,256.1 186.6,256.1 187.7,250.3 	"/>
</g>
<g>
	<polygon class="st4" points="273,297.5 259.2,372.2 270.1,372.2 296.1,286.4 	"/>
	<path class="st9" d="M271.9,297.5c0,0,10.8-33.4,28.3-33.4c17.6,0-1.6,2.2,20.7,0c15.3-1.5,28.8,25,28.8,25l-17.1,9.2
		c0,0-7.7,12.7-1,37.1c6.7,24.5,4.6,37.6,4.6,37.6h-52.1c0,0,0.2-20.5,5.5-38.6c5.3-18.1-2.3-34.6-2.3-34.6L271.9,297.5z"/>
	<path class="st3" d="M300.2,251.9v12.2l0.1,0.1c4.9,3.6,11.5,3.8,16.6,0.5l0.8-0.5l-2.7-14.1L300.2,251.9z"/>
	<path class="st4" d="M291.9,226.4c0,0-1,27.5,14.8,27.5c15.8,0,15.8-30,15.8-30l-13.7-13.7L291.9,226.4z"/>
	<path class="st5" d="M310.8,217.7c0,0-5.8,9.6-12.2,13.6c-3.1,2-4.7,5.6-4,9.3c1,4.6,6.4,8.5,5.7,12.8c-1.1,7,2.3,14.1,6.3,20
		c12,18,0.7,47.2-16.2,47.2c-18.9,0-22.1-17.9-20.7-21.9c1.5-4.3,3.3-13.4-0.1-16.5c-2.5-2.2-2.1-5.2-2.1-8.5
		c0-3.8,3.4-10.4,6.6-15.6c3.2-5.3,6.8-16.2,7.4-22.4c3.3-31.2,25.3-31.3,26.3-31.2c10.9,0.9,20.7,10.2,20.9,21.1
		c0.2,12.7,4.1,40.9,7.6,45.6c-11.2,4.9-25.9-5.2-21.7-23.1c0.8-3.5,7.6-13.2,7.3-16.3C320.7,219.7,310.8,217.7,310.8,217.7z"/>
	<path class="st4" d="M312.5,224.8c-2,1.4-4.2,2.5-6.5,3.5c-2,3-4.5,5.6-7.4,7.8c1.3,4.2,2,8.7,1.8,13c0,1-0.1,1.9-0.2,2.8
		c1.8,1.2,3.9,2,6.5,2c10.8,0,14.2-14.1,15.3-23C318.5,229.5,315.3,227.3,312.5,224.8z"/>
	<path class="st4" d="M318.5,236.4c-1.1-1.1-0.9-3.3,0.5-4.8c1.4-1.5,3.4-1.8,4.5-0.6c1.1,1.1,0.9,3.3-0.5,4.8
		C321.6,237.3,319.6,237.6,318.5,236.4z"/>
	<path class="st0" d="M313.8,311.2l-1.8-25c-0.1-1.1-1-1.9-2-1.9h-11.8c-1.2,0-2.1,1-2,2.2l1.9,25c0.1,1.1,1,1.9,2,1.9h11.7
		C313,313.3,313.9,312.3,313.8,311.2z"/>
	<g>
		<path class="st4" d="M349.8,289.1c0,0,20.6,39.1,11.9,44.7c-8.7,5.6-42.5-14.9-42.5-14.9l1.8-5.6l18.8,0.7l-7.1-15.7L349.8,289.1z
			"/>
		<g>
			<path class="st3" d="M360.7,322.1c-13.8-8.7-38.4-7.2-38.7-7.2l-0.1-1.5c1.1-0.1,25.4-1.6,39.6,7.4L360.7,322.1z"/>
		</g>
		<g>
			<path class="st4" d="M317.6,310.3c-0.7-0.1-3.2-0.5-7-3.7c-3.4-2.9-8.7-11.1-10.7-6.5c1.3,4.8,2.2,10.6,2.2,10.6
				c1.1,2.8,5.4,5.3,8.4,6.3l9.7,2c0,0,4-3,4.3-3.1l-0.8-1.9C321.4,313.1,319.4,311.8,317.6,310.3z"/>
			<path class="st4" d="M315,310.7c0,0-0.3,0.1-0.8,0.1c0.2,0.6,0.4,1.2,0.6,1.8c1.6,1.7,3.2,3.5,4.7,5.2c0.9-1.1,2.2-2.7,2.3-2.8
				l-8-13.5c0,0-2.1,0.3-1.4,3.6C313.2,308.3,315,310.7,315,310.7z"/>
		</g>
	</g>
	<linearGradient id="SVGID_6_" gradientUnits="userSpaceOnUse" x1="302.041" y1="292.8462" x2="305.787" y2="292.8462">
		<stop  offset="0" style="stop-color:#F1F6FC"/>
		<stop  offset="1" style="stop-color:#E9F0FA"/>
	</linearGradient>
	<circle class="st16" cx="303.9" cy="292.8" r="1.9"/>
</g>
<g>
	<g>
		<g>
			<g>
				<g>
					<polygon class="st3" points="512.5,255.8 519.8,272 531.6,261.4 523.3,237.8 					"/>
					<g>
						<path class="st4" d="M508.4,256.9c-2,0.3-3.9,0.2-5-0.5c-7.2-8.1-4.7-32-4.7-32l8.4-7.2l12.8,6l3.3,13.1
							c0.9,4.3-0.3,11.9-3.3,15.2l0,0C516.7,254.4,512.7,256.3,508.4,256.9z"/>
					</g>
				</g>
			</g>
			<path class="st4" d="M506.4,342.7c0,0-2.9,4.2-8.7,6.2c-5.8,2-49-7.1-49-7.1l-8.7,0.9c-4.5,1.2-9.3,1-13.7-0.7l-12.7-4.9
				l74.5-1.6l28.5-35.4L506.4,342.7z"/>
			<path class="st12" d="M521,350.4c-2.9-5.3-10.9-20.2-17.4-33.9c-2.4-5.1-2.5-11.1-0.2-16.3c5.9-13.4,14.8-31.8,14.8-31.8l13.4-7
				c0,0,17.2,22,21.2,36.5c3.5,12.6,5,44.2,5.4,52.4H521z"/>
			<path class="st4" d="M548,301.8c0,0-18.9,44-28,44c-9.1,0-59.4-21.5-59.4-21.5l1.3-7.5l51.3,8.7c0,0,4.6-12.1,7.7-26
				c1.3-5.5,5.5-10,11.1-11.1C544.2,286.1,548,301.8,548,301.8z"/>
			<path class="st5" d="M522.9,232c0,0-5.6,3.4-22.8-7.6c-2.6,0.7,1.6-24,23.8-16.8c15.5,5.1,14.8,20.1,14.1,28.4
				c-0.8,9,3.9,14.9,10.1,21.5c5.2,5.5,5.1,15.7,8.6,21.1c4.2,6.7,8.8,6.3,12.1,13.1c3.5,7.1,4,15.8-0.7,22.2
				c-2.7,3.6-8.9,12.4-18.8,9.3c-5.6-1.8-7.1-11.5-7.3-19.6c-0.2-7.3-3.7-14-9.4-18.6c-5.3-4.3-11.2-10.1-12.7-16.2
				C516.7,257,522.9,232,522.9,232z"/>
			<path class="st4" d="M524.9,232.5c-1.3-0.9-3.4-0.4-4.7,1.3c-1.3,1.6-1.2,3.7,0.1,4.6c1.3,0.9,3.4,0.4,4.7-1.3
				C526.3,235.4,526.2,233.4,524.9,232.5z"/>
			<path class="st4" d="M433.8,320.6c-0.1-1.1,0.5-2.1,1.5-2.5l9.7-4.2c2.4-1,5.1-1.2,7.5-0.3l9.6,3.2l1.3,0.1l1,8.9
				c-1.9-0.7-3-1.1-3-1.1l-6.1-2.2c0,0-13.2,11.2-17.9,1c-1.4,10.1-4.3,9-4.3,9L433.8,320.6z"/>
		</g>
		<path class="st5" d="M531.4,223.3c-1.9,6.9-11.7,10.2-21.8,7.4c-10.2-2.8-15.7-10.4-15-17.5c0.9-9.3,11.7-10.2,21.8-7.4
			C526.6,208.6,533.3,216.4,531.4,223.3z"/>
	</g>
	<polygon class="st12" points="557.1,348.2 571.5,375.2 519.3,375.2 521,347.1 	"/>
</g>
<g id="Слой_2">
	<g>
		<g>
			<g>
				<path class="st0" d="M120.9,87.3H62.8c-1.4,0-2.6,1.1-2.6,2.6s1.1,2.6,2.6,2.6h58.1c1.4,0,2.6-1.1,2.6-2.6
					C123.5,88.4,122.4,87.3,120.9,87.3z"/>
			</g>
		</g>
		<g>
			<g>
				<path class="st0" d="M120.9,67.9H62.8c-1.4,0-2.6,1.1-2.6,2.6c0,1.4,1.1,2.6,2.6,2.6h58.1c1.4,0,2.6-1.1,2.6-2.6
					C123.5,69,122.4,67.9,120.9,67.9z"/>
			</g>
		</g>
		<g>
			<g>
				<path class="st0" d="M120.9,106.6H62.8c-1.4,0-2.6,1.1-2.6,2.6c0,1.4,1.1,2.6,2.6,2.6h58.1c1.4,0,2.6-1.1,2.6-2.6
					C123.5,107.8,122.4,106.6,120.9,106.6z"/>
			</g>
		</g>
		<g>
		</g>
		<g>
		</g>
		<g>
		</g>
		<g>
		</g>
		<g>
		</g>
		<g>
		</g>
		<g>
		</g>
		<g>
		</g>
		<g>
		</g>
		<g>
		</g>
		<g>
		</g>
		<g>
		</g>
		<g>
		</g>
		<g>
		</g>
		<g>
		</g>
	</g>
	<g>
		<g>
			<g>
				<path class="st0" d="M233.3,93.1h-35.8c-0.9,0-1.6,0.7-1.6,1.6s0.7,1.6,1.6,1.6h35.8c0.9,0,1.6-0.7,1.6-1.6
					C234.8,93.8,234.1,93.1,233.3,93.1z"/>
			</g>
		</g>
		<g>
			<g>
				<path class="st0" d="M233.3,81.2h-35.8c-0.9,0-1.6,0.7-1.6,1.6s0.7,1.6,1.6,1.6h35.8c0.9,0,1.6-0.7,1.6-1.6
					S234.1,81.2,233.3,81.2z"/>
			</g>
		</g>
		<g>
			<g>
				<path class="st0" d="M233.3,105.1h-35.8c-0.9,0-1.6,0.7-1.6,1.6s0.7,1.6,1.6,1.6h35.8c0.9,0,1.6-0.7,1.6-1.6
					S234.1,105.1,233.3,105.1z"/>
			</g>
		</g>
		<g>
		</g>
		<g>
		</g>
		<g>
		</g>
		<g>
		</g>
		<g>
		</g>
		<g>
		</g>
		<g>
		</g>
		<g>
		</g>
		<g>
		</g>
		<g>
		</g>
		<g>
		</g>
		<g>
		</g>
		<g>
		</g>
		<g>
		</g>
		<g>
		</g>
	</g>
	<g>
		<g>
			<g>
				<path class="st0" d="M379,122.9h-49.6c-1.2,0-2.2,1-2.2,2.2c0,1.2,1,2.2,2.2,2.2H379c1.2,0,2.2-1,2.2-2.2
					C381.2,123.8,380.2,122.9,379,122.9z"/>
			</g>
		</g>
		<g>
			<g>
				<path class="st0" d="M379,106.3h-49.6c-1.2,0-2.2,1-2.2,2.2s1,2.2,2.2,2.2H379c1.2,0,2.2-1,2.2-2.2S380.2,106.3,379,106.3z"/>
			</g>
		</g>
		<g>
			<g>
				<path class="st0" d="M379,139.4h-49.6c-1.2,0-2.2,1-2.2,2.2c0,1.2,1,2.2,2.2,2.2H379c1.2,0,2.2-1,2.2-2.2
					C381.2,140.4,380.2,139.4,379,139.4z"/>
			</g>
		</g>
		<g>
		</g>
		<g>
		</g>
		<g>
		</g>
		<g>
		</g>
		<g>
		</g>
		<g>
		</g>
		<g>
		</g>
		<g>
		</g>
		<g>
		</g>
		<g>
		</g>
		<g>
		</g>
		<g>
		</g>
		<g>
		</g>
		<g>
		</g>
		<g>
		</g>
	</g>
	<g>
		<g>
			<g>
				<path class="st0" d="M550.7,107h-49.6c-1.2,0-2.2,1-2.2,2.2c0,1.2,1,2.2,2.2,2.2h49.6c1.2,0,2.2-1,2.2-2.2
					C552.9,108,551.9,107,550.7,107z"/>
			</g>
		</g>
		<g>
			<g>
				<path class="st0" d="M550.7,90.5h-49.6c-1.2,0-2.2,1-2.2,2.2c0,1.2,1,2.2,2.2,2.2h49.6c1.2,0,2.2-1,2.2-2.2
					C552.9,91.4,551.9,90.5,550.7,90.5z"/>
			</g>
		</g>
		<g>
			<g>
				<path class="st0" d="M550.7,123.5h-49.6c-1.2,0-2.2,1-2.2,2.2c0,1.2,1,2.2,2.2,2.2h49.6c1.2,0,2.2-1,2.2-2.2
					C552.9,124.5,551.9,123.5,550.7,123.5z"/>
			</g>
		</g>
		<g>
		</g>
		<g>
		</g>
		<g>
		</g>
		<g>
		</g>
		<g>
		</g>
		<g>
		</g>
		<g>
		</g>
		<g>
		</g>
		<g>
		</g>
		<g>
		</g>
		<g>
		</g>
		<g>
		</g>
		<g>
		</g>
		<g>
		</g>
		<g>
		</g>
	</g>
</g>
</svg>
