<?xml version="1.0" encoding="utf-8"?>
<!-- Generator: Adobe Illustrator 18.0.0, SVG Export Plug-In . SVG Version: 6.00 Build 0)  -->
<!DOCTYPE svg PUBLIC "-//W3C//DTD SVG 1.1//EN" "http://www.w3.org/Graphics/SVG/1.1/DTD/svg11.dtd">
<svg version="1.1" id="illustration" xmlns="http://www.w3.org/2000/svg" xmlns:xlink="http://www.w3.org/1999/xlink" x="0px"
	 y="0px" viewBox="0 0 866.9 745.9" style="enable-background:new 0 0 866.9 745.9;" xml:space="preserve">
<style type="text/css">
	.st0{opacity:0.8;fill:url(#SVGID_1_);}
	.st1{fill:#F0F7FF;}
	.st2{fill:#9BC8FF;}
	.st3{fill:url(#SVGID_2_);}
	.st4{fill:url(#SVGID_3_);}
	.st5{fill:url(#SVGID_4_);}
	.st6{fill:url(#SVGID_5_);}
	.st7{fill:#DFF3F8;}
	.st8{fill:url(#SVGID_6_);}
	.st9{fill:url(#SVGID_7_);}
	.st10{fill:url(#SVGID_8_);}
	.st11{fill:url(#SVGID_9_);}
	.st12{fill:#A3CCFF;}
	.st13{fill:#FFFFFF;}
	.st14{fill:url(#SVGID_10_);}
	.st15{fill:#F6FCFD;}
	.st16{fill:url(#SVGID_11_);}
	.st17{fill:url(#SVGID_12_);}
	.st18{fill:url(#SVGID_13_);}
	.st19{fill:url(#SVGID_14_);}
	.st20{fill:url(#SVGID_15_);}
	.st21{fill:#95C4FF;}
	.st22{fill:url(#SVGID_16_);}
	.st23{fill:url(#SVGID_17_);}
	.st24{fill:url(#SVGID_18_);}
	.st25{fill:url(#SVGID_19_);}
	.st26{fill:url(#SVGID_20_);}
	.st27{fill:url(#SVGID_21_);}
	.st28{fill:#8FC1FF;}
	.st29{fill:url(#SVGID_22_);}
	.st30{fill:url(#SVGID_23_);}
</style>
<g>
	<linearGradient id="SVGID_1_" gradientUnits="userSpaceOnUse" x1="339.0328" y1="104.5663" x2="354.3806" y2="270.322">
		<stop  offset="0" style="stop-color:#F2F8FF"/>
		<stop  offset="1" style="stop-color:#E2EFFF"/>
	</linearGradient>
	<polygon class="st0" points="109.5,25.7 21.8,251.1 673.6,145.6 	"/>
	<path class="st1" d="M110.6,508.8c-20.4,6-29.6,19.7-29.6,34.5c0,48.2,164.9,134.1,220.9,134.1c48.2,0,75.1-28.4,75.1-58.1
		c0-67.1-90.5-60.9-142.9-73.1C192.6,536.5,151.3,521.4,110.6,508.8z"/>
	<path class="st1" d="M418.7,522.5c-9.6-4.3-27.9-9.2-42.5-9.2c-11.8,0-24.5,4.6-24.5,15.1c0,12.4,23.7,35.6,46.3,35.6
		c19,0,37.8-11.1,37.8-23.3C435.9,534.5,431,528,418.7,522.5z"/>
	<path class="st1" d="M473.1,594.2c-1.3-0.1-2.6-0.2-3.8-0.2c-20.3,0-28.3,14-28.3,31.3c0,48.8,60.9,103.3,101.8,103.3
		c27.2,0,67.4-26.6,67.4-55.6c0-30-35.1-47.4-63.2-57.7C522.9,606.5,498.6,596.2,473.1,594.2z"/>
	<path class="st1" d="M580.4,525.6c-9.2-2.3-23.9-7.8-35.5-7.8c-9.2,0-18.3,4.3-18.3,13.3c0,37.2,234.2,88.4,254.5,88.4
		c20.1,0,50.5-5.4,50.5-26.5c0-48.5-89.8-43.6-139.7-49.8C655,538.7,616.4,534.6,580.4,525.6z"/>
	<g>
		<path class="st2" d="M304,124.5c-1.1-3.5-5.7-5.6-12.3-6.2c7.2-6.4,10.8-13.3,8.6-18.3c-1-2.2-3.1-3.9-5.9-4.9
			c5.8-13.7,5.1-26.8-2.6-32.1c-5.9-4-14.6-2.5-23.1,3.1c-4.4-4.7-9.8-7.4-15.7-7.3c-6.6,0.1-12.5,3.8-16.9,9.7
			c-10.5-1.8-19.7,0.5-24.3,7.2c-3.7,5.5-3.6,12.9-0.4,20.3c-8.9,4.6-14.8,12-15,20.5c-0.2,8.5,5.4,16.2,14.3,21.2
			c-4.3,2.9-6.7,6.1-6.3,9.2c0.4,3.7,4.6,6.6,11.1,8.3c-1.7,1.7-2.6,3.4-2.4,5.1c0.9,7.2,20.6,10.7,44.1,7.8
			c23.5-2.8,41.8-10.9,40.9-18.1c-0.4-3.1-4.4-5.6-10.7-7.1C298.8,137.1,305.7,129.8,304,124.5z"/>
		
			<linearGradient id="SVGID_2_" gradientUnits="userSpaceOnUse" x1="326.2195" y1="548.7797" x2="301.2173" y2="586.8782" gradientTransform="matrix(0.9998 2.100000e-02 -2.100000e-02 0.9998 17.6927 -110.407)">
			<stop  offset="0" style="stop-color:#DCF2F7"/>
			<stop  offset="1" style="stop-color:#DFF3F8"/>
		</linearGradient>
		<path class="st3" d="M338.4,612c-1.8-7.4-3.9-15.2-6.2-21.4c-20-54.4-15.5-127.8-14.7-186.7l-27-36.2c-2.3-3-5.6-5.2-9.3-6l0,0
			c-10.9-2.5-20.8,6.6-19.4,17.7c2.1,17.1,7.6,36.4,18,61.8c1.3,3.2,1.7,6.7,0.9,10.1c-7.4,35.3-1.2,72.9,18.9,125.8
			c2,5.2,2.3,10.9,0.9,16.2c0,0.1,0,0.1,0,0.2C308.9,602.7,327.2,620.2,338.4,612z"/>
		<path class="st2" d="M338.4,612c-11.2,8.2-29.4-9.3-37.8-18.6c-2.2,8.3-4,15.8-4.8,26.4l6.7,0.1c0.5-4.7,2-7.9,3.9-11.4
			c0.6-1.2,2.3-1.3,3-0.1c7.7,12.2,15.9,18.4,28,25.7c2.5,1.5,5.7-0.6,5.1-3.5C341.4,625.7,340,619,338.4,612z"/>
		<path class="st2" d="M126.1,528.8l-3.5,1.5c-1.9,0.8-3.2,2.6-3.3,4.6c-2.2,29.9,1.7,45.6,17.9,59.1c2.1,1.7,5.3,0.6,5.8-2
			c1.5-7.1,2.6-13.8,3.5-20.2C125,575.9,124.8,545.1,126.1,528.8z"/>
		
			<linearGradient id="SVGID_3_" gradientUnits="userSpaceOnUse" x1="198.3603" y1="522.4052" x2="184.0734" y2="565.2659" gradientTransform="matrix(0.9998 2.100000e-02 -2.100000e-02 0.9998 17.6927 -110.407)">
			<stop  offset="0" style="stop-color:#DCF2F7"/>
			<stop  offset="1" style="stop-color:#DFF3F8"/>
		</linearGradient>
		<path class="st4" d="M235.4,439.4c5.8-12.5,3.5-53.8,1.9-74.6c-0.6-7.4-5.7-13.6-12.8-15.6l0,0c-8.5-2.4-17.6,1.9-21,10.1
			c-8.9,21.2-10.1,38.3-7.8,64.6c0.2,2.8-1,5.4-3.3,7c-22.4,15.8-42.4,50.8-58.2,90.5c-1.3,3.2-3.7,5.7-6.9,7.1l-1.2,0.5
			c-1.3,16.2-1,47.1,20.3,42.9c1.7-12,2.5-23,2.7-33.4c0.1-2.3,0.8-4.6,2.1-6.4C165.9,511.5,223,466.3,235.4,439.4z"/>
		
			<linearGradient id="SVGID_4_" gradientUnits="userSpaceOnUse" x1="200.4449" y1="376.3896" x2="382.4828" y2="381.4935" gradientTransform="matrix(0.9998 2.100000e-02 -2.100000e-02 0.9998 17.6927 -110.407)">
			<stop  offset="0" style="stop-color:#DCECFF"/>
			<stop  offset="1" style="stop-color:#6388B6"/>
		</linearGradient>
		<polygon class="st5" points="332.9,318.8 263.1,297.7 283.3,231 353.1,252.1 		"/>
		
			<linearGradient id="SVGID_5_" gradientUnits="userSpaceOnUse" x1="196.4766" y1="435.2316" x2="301.2469" y2="453.0902" gradientTransform="matrix(0.9998 2.100000e-02 -2.100000e-02 0.9998 17.6927 -110.407)">
			<stop  offset="0" style="stop-color:#F2FAFC"/>
			<stop  offset="1" style="stop-color:#EAF8FA"/>
		</linearGradient>
		<path class="st6" d="M287.7,258.1c-9.5,8.4-45.9,12.7-61.5,5.3c-29.5,21.3-38.8,85.5-38.2,148.3c50.6,12.7,81.2,10.8,129.6-7.8
			C314.6,318.8,305.9,277.7,287.7,258.1z"/>
		<path class="st7" d="M346,279.3c-0.2-0.7-0.9-1.2-1.7-1.2c-3.1-0.1-11.1,0.4-13.1,7.6c-2,7,3.9,12,6.6,13.9
			c0.8,0.5,1.8,0.4,2.4-0.3C346.8,292.1,348.5,286.7,346,279.3z"/>
		
			<linearGradient id="SVGID_6_" gradientUnits="userSpaceOnUse" x1="168.0236" y1="526.9373" x2="198.7774" y2="526.9373" gradientTransform="matrix(0.9998 2.100000e-02 -2.100000e-02 0.9998 17.6927 -110.407)">
			<stop  offset="0" style="stop-color:#A2CCFF"/>
			<stop  offset="0.9984" style="stop-color:#2C5E9C"/>
		</linearGradient>
		<path class="st8" d="M204.6,458l-30.8,3.9c0,0,8.4-83.6,18.4-83.4c0.3,0,0.6,0.1,0.9,0.2C202.3,383.5,204.6,458,204.6,458z"/>
		<g>
			
				<linearGradient id="SVGID_7_" gradientUnits="userSpaceOnUse" x1="133.4944" y1="595.6196" x2="137.8534" y2="541.444" gradientTransform="matrix(0.9998 2.100000e-02 -2.100000e-02 0.9998 17.6927 -110.407)">
				<stop  offset="0" style="stop-color:#A2CCFF"/>
				<stop  offset="0.9984" style="stop-color:#2C5E9C"/>
			</linearGradient>
			<path class="st9" d="M167.4,423.6l-42-23.9c-4.4-2.5-7.6-6.5-9.3-11.2c-2.9,18.6-4.6,36.1-4.6,36.1l62.2,37.3c0,0,2-20,5.3-40.5
				l-0.2,0.2C176,424.9,171.2,425.7,167.4,423.6z"/>
			
				<linearGradient id="SVGID_8_" gradientUnits="userSpaceOnUse" x1="88.1193" y1="509.8643" x2="169.6936" y2="484.3334" gradientTransform="matrix(0.9998 2.100000e-02 -2.100000e-02 0.9998 17.6927 -110.407)">
				<stop  offset="0" style="stop-color:#A2CCFF"/>
				<stop  offset="0.9984" style="stop-color:#2C5E9C"/>
			</linearGradient>
			<path class="st10" d="M129.9,345.5L129.9,345.5c-0.3-0.2-0.6-0.2-0.9-0.2c-5-0.1-9.7,22.2-12.9,43.2c1.6,4.7,4.9,8.7,9.3,11.2
				l42,23.9c3.8,2.2,8.6,1.3,11.4-2l0.2-0.2c3.4-21.3,8.1-43,13.2-42.9c0.3,0,0.6,0.1,0.9,0.2L129.9,345.5z"/>
		</g>
		<path class="st2" d="M165.5,348.1c-4.3-2.8-8.3-3.6-11.9-2.3c-5.2,1.9-7,7.3-7.2,7.9l-1,3.3c-0.5,1.7,0.4,3.4,2.1,3.9
			c1.7,0.5,3.4-0.4,3.9-2.1l1-3.3c0.3-0.9,1.4-3.2,3.3-3.9c2-0.7,4.5,0.5,6.3,1.7c9,5.8,8,13.3,8,13.6l-0.5,2.8
			c-0.3,1.7,0.9,3.3,2.6,3.6c0.2,0,0.3,0,0.4,0c1.5,0,2.9-1.1,3.2-2.6l0.5-2.8C176.4,367.5,178.1,356.3,165.5,348.1z"/>
		
			<linearGradient id="SVGID_9_" gradientUnits="userSpaceOnUse" x1="133.851" y1="520.4515" x2="144.5711" y2="520.4515" gradientTransform="matrix(0.9998 2.100000e-02 -2.100000e-02 0.9998 17.6927 -110.407)">
			<stop  offset="0" style="stop-color:#F2FAFC"/>
			<stop  offset="1" style="stop-color:#EAF8FA"/>
		</linearGradient>
		<path class="st11" d="M148.9,419.5l-6.8-3.9c-1-0.5-1.5-1.6-1.5-2.7l0.1-5.5c0-1.2,1.3-1.9,2.3-1.3l6.8,3.9c1,0.5,1.5,1.6,1.5,2.7
			l-0.1,5.5C151.2,419.4,149.9,420.1,148.9,419.5z"/>
		<path class="st7" d="M155.3,340.6l-0.4,0.3c-1.8,1.6-2.8,3.8-2.9,6.2l-0.2,9.2c0,2.4,1.1,4.6,3.1,5.9l9.5,6.4
			c1.8,1.2,4.2,0.6,5.2-1.3l2.2-4.2c0.5-1,1.5-1.8,2.6-2.2c0.9-0.3,1.8-0.6,2.8-0.8c1.3-0.2,2.1-1.7,1.6-2.9
			c-1.2-3.3-2.6-6.3-4.3-8.5c-0.6-1.2-0.8-2.6-0.5-4c0.2-1.2,0.5-2.4,0.7-3.6l-16.6-5.3C157.6,337.7,156.7,339.3,155.3,340.6z"/>
		<path class="st12" d="M301.3,213.2c-0.1,7.1-3.2,11.1-6.4,17c-3.2,5.9-6.5,13.5-7.2,27.8c-6.1,5.4-23.3,9.1-38.9,9.1
			c-8.7,0-17-1.1-22.6-3.8c-7.4-15.6-10.6-25.1-14.1-41.1c-15.6,32.4-28.3,69.6-37.5,118.9l-16.6-5.4c0.1-0.4,0.2-0.7,0.2-1.1
			c3.5-53.9,10.7-92.1,30.4-133.4c8.6-18.1,25.3-31.2,44.9-35c0.2,0,0.3-0.1,0.4-0.1c2.5-0.5,5.1-0.8,7.6-1.1
			c11.3-1.2,23.4-0.8,37.6,1c4.5,0.6,8,4,9,8.4C292,193.5,301.5,203.8,301.3,213.2z"/>
		<path class="st12" d="M176.7,345.9c-0.2,1.1-1.3,1.9-2.4,1.6c-6.8-1.5-13.5-3.7-19.8-6.7c-3.7-1.7-5.1-5.7-3.4-8.5l0,0
			c1.7-2.8,5.5-3.7,8.6-2.3c5.4,2.5,11,4.4,16.8,5.7c1.1,0.2,1.8,1.2,1.6,2.3C177.6,340.7,177.1,343.3,176.7,345.9z"/>
		<path class="st13" d="M257.6,189.3l-14.3,7l-9.8-30c0.2,0,0.3-0.1,0.4-0.1c2.5-0.5,5.1-0.8,7.6-1.1L257.6,189.3z"/>
		<g>
			<path class="st13" d="M262.3,188.8l14.4,5.5c-2.1-11.1-2.6-18.9-2.7-28.8c-1-0.1-2.1-0.2-3.1-0.3
				C269.1,173.3,266.4,180.4,262.3,188.8z"/>
		</g>
		
			<linearGradient id="SVGID_10_" gradientUnits="userSpaceOnUse" x1="241.0477" y1="259.0475" x2="241.8581" y2="274.4445" gradientTransform="matrix(0.9998 2.100000e-02 -2.100000e-02 0.9998 17.6927 -110.407)">
			<stop  offset="0" style="stop-color:#DCF2F7"/>
			<stop  offset="1" style="stop-color:#DFF3F8"/>
		</linearGradient>
		<path class="st14" d="M264.7,164.8c-2.1-7.2-3.4-12.9-4.5-20.1c-0.2-1.4-1.5-2.4-2.9-2.3l-5.1,0.4c-1.3,0.1-2.3,1.1-2.5,2.4
			c-0.8,6.8-1.6,12.5-3,19.6c-3.5,0.2-7,0.6-10.3,1.1c6.9,8.7,13.1,15.7,22.4,24.6c0.9,0.8,2.3,0.6,2.9-0.5c4.5-9,7.3-16.4,9.2-24.7
			C268.8,165.1,266.7,164.9,264.7,164.8z"/>
		<path class="st7" d="M271.7,104.6c-2.6,2.4-5.9,4.2-9.7,4.9c-4.4,0.9-8.7,0.2-12.3-1.6c1.9,3.7,2.2,7.3,0.5,9.7
			c-1.4,1.9-3.8,2.7-6.7,2.7c0.8,1.1,1.2,2.4,1.1,3.6c-0.1,2.9-2.3,5.5-5.9,7.2l0.5,3c1.6,9.5,10.6,15.9,20.1,14.3l2.1-0.3
			c9.5-1.6,15.9-10.6,14.3-20.1L271.7,104.6z"/>
	</g>
	<g>
		<path class="st2" d="M625.3,196.6c-2.8,3.4-6.3,4.5-10.1,4.5c-17.3,0-35.4-12.2-35.4-33.6c0-24.7,18.8-16.2,18.8-35.4
			c0-1.5-0.1-3-0.1-4.6c0-9.2,6.2-18.1,17.2-18.1c1.5,0,3.1,0.1,4.7,0.1c20.9,0,7.8-21.7,28.6-21.7c3.7,0,7.4,0.7,11,0.7
			c13.9,0,22.2-23.3,38.1-23.3c16.4,0,26.9,11.7,26.9,28c0,7.5-3.6,11.9-3.6,19c0,5.2,1.7,9.8,1.7,14.7c0,19.5-19.9,14.7-27,19.4
			c-5.9,4-5.9,12.4-12.1,16.4c-11.8,7.7-34.4-3.8-50.4,21.7C630.8,188.9,628.7,192.5,625.3,196.6z"/>
		<path class="st15" d="M598.4,301.1l-11.5-2.3c-2.3,6.2-3.8,10.9-7.1,15.5c-1.2,1.8-3.4,2.6-5.5,2.2l-0.6-0.1
			c-1.5-0.3-3,0.6-3.5,2.1c-0.3,1.1,0,2.2,0.7,3l6.8,7c1.8,1.8,4.2,3,6.8,3.1c3.2,0.2,6,0.2,9.4,0c2.3-0.1,4.1-2,4.1-4.3
			C598.4,318,598.6,311.6,598.4,301.1z"/>
		<path class="st2" d="M757.6,556c-3.9,6.9-5.9,12.4-6.3,21.6c-0.1,1.4,0.7,2.6,2,3.1l32.3,12.9c1.1,0.4,2.2,0.7,3.4,0.8
			c4.4,0.4,8.4,0.4,12.1-0.8c2.3-0.7,3.6-3.2,3-5.5c-1.8-6.9-8.5-11.1-14.4-13.7c-7.4-3.2-14.1-12.5-15.8-20.3L757.6,556z"/>
		<path class="st2" d="M543,492c-5.3,2.5-6.8,6.7-6.8,11.4c0,0.3,3.1,44.1,16.1,44.1c4.6,0,9.2-2.7,9.2-7.5c0-5.2-4.1-6.7-4.1-17.9
			c0-4.6,0.7-9.1,1.4-13.7c0.5-3.6,1.6-7.1,3.1-9.8l-12.9-8.9C546.7,490.4,544.8,491.1,543,492z"/>
		<path class="st15" d="M756.3,550.3l1.2,11.1c0.4,3.8,3.7,6.5,7.5,6.3l3.5-0.3c3.8-0.3,6.7-3.6,6.5-7.4l-0.6-11L756.3,550.3z"/>
		<path class="st15" d="M551.4,484.7l-5.9,8.4c-2,2.8-1.4,6.8,1.4,8.9l2.6,2c2.8,2.1,6.8,1.6,8.9-1.2l6.2-7.9L551.4,484.7z"/>
		<linearGradient id="SVGID_11_" gradientUnits="userSpaceOnUse" x1="783.8329" y1="223.9056" x2="758.961" y2="204.7734">
			<stop  offset="0" style="stop-color:#F2FAFC"/>
			<stop  offset="1" style="stop-color:#EAF8FA"/>
		</linearGradient>
		<path class="st16" d="M725,139.1c10,9.4,23.4,35.9,35,63.5c2.1,4.9,6.3,8.6,11.3,10.1c14.5,4.4,31.8,12.2,51.9,24.2l-3.6,12.7
			C819.6,249.6,695,268.3,725,139.1z"/>
		<linearGradient id="SVGID_12_" gradientUnits="userSpaceOnUse" x1="649.963" y1="166.0728" x2="665.3275" y2="248.6564">
			<stop  offset="0" style="stop-color:#F2FAFC"/>
			<stop  offset="1" style="stop-color:#EAF8FA"/>
		</linearGradient>
		<path class="st17" d="M729.9,237.6c-0.6-2-0.7-4.1-0.2-6.2l9-37.3c1.3-5.2,1.8-10.6,1.5-16c-0.9-18.6-8.4-55.7-54.8-46.4
			c-61.3,12.3-93.5,111.5-98.8,132.3c-5.3,20.7-0.3,36.3-0.3,36.3s6.3,1.3,12.1,2.4c7.4-13.1,16.3-27.5,18.1-43.2
			c1.2-10.3,6.1-19.9,13.8-26.8c15.6-14,22.5-27.1,22.3-52.4c2.3,27.6,13.9,38.9,19.8,47.9c2,3,2.5,6.5,1.8,9.9
			C692.9,241,708.8,241,729.9,237.6z"/>
		<linearGradient id="SVGID_13_" gradientUnits="userSpaceOnUse" x1="854.3826" y1="528.0164" x2="714.8876" y2="420.5365">
			<stop  offset="0" style="stop-color:#A2CCFF"/>
			<stop  offset="0.9984" style="stop-color:#2C5E9C"/>
		</linearGradient>
		<path class="st18" d="M730.7,239.6c-0.4-0.6-0.6-1.3-0.9-2c-16,2.6-29.1,3.2-42.5,2c-1.8,13.3-7.2,31.8-30.2,29.2
			c-11.9,24.6-22.6,56.2-33.9,94.6c-3.3,11.2-8.7,21.7-16,30.9c-41.6,52.8-55.4,78.6-55.9,91.4c-0.2,4,9.1,10.7,12.3,11.9
			c9.9,3.5,69.9-59.9,93.7-88c2.7-3.2,5.2-6.8,7.2-10.5c21-38.4,29-66.9,38.4-111.8c26.6,76.6,6.6,190.7,52.5,265.4
			c2,3.3,19.4,2.3,20.3-1.8C792.5,477.9,780.4,331.7,730.7,239.6z"/>
		<linearGradient id="SVGID_14_" gradientUnits="userSpaceOnUse" x1="680.6788" y1="284.2494" x2="665.4014" y2="229.8234">
			<stop  offset="0" style="stop-color:#A2CCFF"/>
			<stop  offset="0.9984" style="stop-color:#2C5E9C"/>
		</linearGradient>
		<path class="st19" d="M687.3,239.6c-4.2-0.4-8.5-0.9-13-1.6c-0.4,1.6-1,3.1-2,4.5c-5.4,7.6-10.4,16.4-15.2,26.3
			C680.2,271.5,685.5,253,687.3,239.6z"/>
		<path class="st15" d="M823.2,236.9c15.7,4.9,21.7,13.6,25.2,33.5c0.4,2.1-1.2,4-3.3,4.1l0,0c-1,0-2-0.4-2.7-1.1
			c-4.4-4.9-6.7-8.1-7.5-12.8c-0.2-1.3-1.1-2.4-2.4-2.9c-5.6-2.1-9.3-4.5-12.9-8L823.2,236.9z"/>
		<path class="st15" d="M703.8,130.4c-1.2-7.2-1.9-12.3-1.1-20.2l-15.5-7.1c-0.8,12.9-1.2,18.3-4.7,29.3c-4.3,1.1-8.5,2.6-12.5,4.4
			c4.7,5.2,11.5,8.4,19.1,8.4c9.8,0,18.2-5.4,22.7-13.3C709.3,131.2,706.6,130.7,703.8,130.4z"/>
		<path class="st15" d="M716.8,85.6c0-0.2-0.1-0.4-0.1-0.6c-2.9-3.2-6.1-5-9.6-6.3c-7.3,11.2-12.9,15.4-21.9,15.3l0,0
			c-2,0.7-3.4,2.5-3.4,4.7c0,2.8,2.2,5,5,5c0.4,0,0.8-0.1,1.1-0.1l0.4,1.2c2.3,8.2,10.6,13.1,18.9,11.1c8.3-1.9,13.5-10,12-18.4
			L716.8,85.6z"/>
	</g>
	<g>
		<linearGradient id="SVGID_15_" gradientUnits="userSpaceOnUse" x1="605.3613" y1="338.2082" x2="634.6639" y2="338.2082">
			<stop  offset="0" style="stop-color:#F9FDFE"/>
			<stop  offset="1" style="stop-color:#F4FBFD"/>
		</linearGradient>
		<path class="st20" d="M631.6,316.5c3.2,12.2,3.9,20.8,2.1,33.3c-0.3,2.2-1.7,4.1-3.7,4.9c-5.2,2.3-10.2,3.8-16.6,5
			c-2.4,0.4-4.9,0-7-1.3v0c-1.4-0.8-1.3-2.8,0.1-3.5l9.9-5l0.8-9.6l-3.6,4.1c-1,1.2-3,0.5-3.1-1c-0.7-7.2-0.3-12.8,0.7-21.3
			L631.6,316.5z"/>
		<path class="st2" d="M485.8,625.4c0,0-7.5,2.4-9,13.1c-0.3,2.3,0.5,4.6,2.2,6.2c8.3,7.5,34.9,31.4,43.3,33.5
			c10,2.4,19-0.5,11.7-14.4c-7.3-13.9-20.4-36.5-28-37.7C498.4,624.9,485.8,625.4,485.8,625.4z"/>
		<path class="st15" d="M485.9,613.4l0.7,15c0.2,5.4,4.7,9.6,10,9.6l0,0c5.5,0,10-4.4,10-9.9l0.2-15.3L485.9,613.4z"/>
		<path class="st2" d="M392.7,487c0,0-5.8-3.4-13.4,1.9c-1.6,1.1-2.6,3-2.6,4.9c0,9.5,0.2,40.1,3.8,46.5c4.2,7.7,11.2,11.7,15.8-0.9
			c4.5-12.6,11.3-33.9,7.7-39.3C400.2,494.6,392.7,487,392.7,487z"/>
		<path class="st15" d="M406.4,485.1l-12,4.4c-4.3,1.6-6.6,6.3-5.2,10.6h0c1.4,4.5,6.2,7,10.7,5.6l12.5-3.8L406.4,485.1z"/>
		<path class="st21" d="M540.9,304.9c3.9,45.1,7.2,78.4,6.9,122c-0.1,18.2-10,34.9-25.9,43.8c-34.3,19.1-68.4,25.6-110.9,37.6
			c-4.9,1.4-12.3-21-6.9-25.5c34.3-28.1,58.9-40,85.4-57.7l-10.3-119.4L540.9,304.9z"/>
		<path class="st12" d="M432.8,306.9c5.4,93.6,40.9,252.5,50.4,313.7c2.4,6,27.2,4.8,26.5,0c1.9-124.9,0.6-214.8-8-319.9
			L432.8,306.9z"/>
		<linearGradient id="SVGID_16_" gradientUnits="userSpaceOnUse" x1="522.1405" y1="242.7394" x2="636.2585" y2="242.7394">
			<stop  offset="0" style="stop-color:#A2CCFF"/>
			<stop  offset="0.9984" style="stop-color:#2C5E9C"/>
		</linearGradient>
		<path class="st22" d="M557.2,207c-0.9,47.6,0.3,86.4,5.3,141.2c0,0-32.3,2.1-30.7-20.1c0.2-3.2,0.8-9.5,1.5-17.8
			c3.4-43.5,9.8-144-11.1-173c54.7,15,75.4,60.4,114.1,182.3l-29.3,11.6C590.5,281.2,577.8,248.5,557.2,207z"/>
		<linearGradient id="SVGID_17_" gradientUnits="userSpaceOnUse" x1="429.798" y1="217.9282" x2="473.895" y2="354.6288">
			<stop  offset="0" style="stop-color:#A2CCFF"/>
			<stop  offset="0.9984" style="stop-color:#2C5E9C"/>
		</linearGradient>
		<path class="st23" d="M462.6,135c-7.7,2.8-14.4,7.1-20.1,12.5c-1.1,1-30.6,24.9-35,90.6c-0.5,7.2,0.4,14.4,2.8,21.2
			c0.6,1.8-1-3.9,10.8,24.4c2.3,5.6,2.8,11.8,1.3,17.6c-3.2,12.7-6.8,24.7-12.2,40.4c0,0,68.6,10,75.2,0.8
			c3.1-4.3,5.1-11.8,6.3-32.3c0.5-9.2,0.9-21.1,1.1-36.5C493.5,232.2,470.2,158.2,462.6,135z"/>
		<linearGradient id="SVGID_18_" gradientUnits="userSpaceOnUse" x1="570.2674" y1="250.6355" x2="507.0327" y2="223.7608">
			<stop  offset="0" style="stop-color:#B8D8FF"/>
			<stop  offset="1" style="stop-color:#D8E9FF"/>
		</linearGradient>
		<path class="st24" d="M533.3,310.3c-14,2.6-25.9,2.2-41.5-0.1c0.5-9.2,0.9-21.1,1.1-36.5c0.6-41.5-22.7-115.4-30.4-138.6
			c7.7-2.8,16.5-4,26.4-3.2c3.3,0.3,6.4,0.6,9.5,0.9h0c6.6,0.8,12.7,1.8,18.4,3.1c1.8,0.4,3.5,0.8,5.2,1.3
			C543,166.3,536.7,266.8,533.3,310.3z"/>
		<linearGradient id="SVGID_19_" gradientUnits="userSpaceOnUse" x1="454.4975" y1="263.8394" x2="452.9863" y2="331.8443">
			<stop  offset="0" style="stop-color:#F2F8FF"/>
			<stop  offset="1" style="stop-color:#E2EFFF"/>
		</linearGradient>
		<polygon class="st25" points="461.4,335.1 399.6,301.8 447.2,213.5 509,246.8 		"/>
		
			<linearGradient id="SVGID_20_" gradientUnits="userSpaceOnUse" x1="399.5427" y1="1185.0116" x2="431.5569" y2="1230.0686" gradientTransform="matrix(0.98 0.1988 -0.1988 0.98 251.9594 -1054.9238)">
			<stop  offset="0" style="stop-color:#A2CCFF"/>
			<stop  offset="0.9984" style="stop-color:#2C5E9C"/>
		</linearGradient>
		<path class="st26" d="M463.4,292.8l-14.7,24.2l-48.5-34.4l-3.5-2.5c-7.9-5.6-11.6-15.3-9.5-24.7c1-4.5,2.3-9.7,3.8-15.5
			c8.3-30.9,25.2-76.4,55.5-95.4c5.3,32-20.9,97.1-28.6,115.1L463.4,292.8z"/>
		
			<linearGradient id="SVGID_21_" gradientUnits="userSpaceOnUse" x1="466.9438" y1="1289.9196" x2="505.2371" y2="1289.9196" gradientTransform="matrix(0.98 0.1988 -0.1988 0.98 251.9594 -1054.9238)">
			<stop  offset="0" style="stop-color:#F9FDFE"/>
			<stop  offset="1" style="stop-color:#F4FBFD"/>
		</linearGradient>
		<path class="st27" d="M460.8,297l19.7,2.7l5.7-10.5l3.5,12.5c2.2,7.9,0.1,16.6-6,22.2c-2,1.8-4.1,3-5.9,2.7
			c-6.2-1-26.9-13.3-26.9-13.3L460.8,297z"/>
		<path class="st28" d="M525.7,62.7c-5.1,5.5-6.4,12.7-6.1,20.3l-20.9-13.7L525.7,62.7z"/>
		<linearGradient id="SVGID_22_" gradientUnits="userSpaceOnUse" x1="492.3964" y1="149.9478" x2="499.7653" y2="126.9201">
			<stop  offset="0" style="stop-color:#F9FDFE"/>
			<stop  offset="1" style="stop-color:#F4FBFD"/>
		</linearGradient>
		<path class="st29" d="M522.1,137.3c-1.7-0.5-3.4-0.9-5.2-1.3c-2.5-0.6-5-1.1-7.6-1.5c-2-7.7-3.4-15.4-4.1-23.2l-21.6-7.2
			c0.9,8.8,0.7,18-0.5,27.6c-3.8,0-7.4,0.3-10.9,0.9c0.7,10.8,11.8,19.4,25.4,19.4C509.3,151.9,519,145.8,522.1,137.3
			C522.1,137.3,522.1,137.3,522.1,137.3z"/>
		<linearGradient id="SVGID_23_" gradientUnits="userSpaceOnUse" x1="473.7933" y1="95.7579" x2="525.8621" y2="95.7579">
			<stop  offset="0" style="stop-color:#F9FDFE"/>
			<stop  offset="1" style="stop-color:#F4FBFD"/>
		</linearGradient>
		<path class="st30" d="M475.2,91.5c1.6-1.3,4.2-1,6.7,0.5c-0.7-17.3,8-26.7,17.3-27.4c9.4-0.8,25.8,8.9,26.6,26.3
			c0.8,17.4-4.7,34.9-16.9,36.1c-10.8,1.1-20.8-8.5-24.5-20.5c-2.4,0.1-5.4-1.5-7.8-4.3C473.5,98.2,472.9,93.5,475.2,91.5z"/>
		<path class="st2" d="M492.5,92.3L481.9,92c-13.9-10.3-0.4-32.8,14.1-34.1c12.2-1.1,22-4.2,32.1-12.2
			C537.4,77.7,488.5,64.9,492.5,92.3z"/>
		<path class="st2" d="M501.5,108.4c0.3,18,11.5,29,24.5,21.7c3.9-2.2,5.5-6.9,3.9-11.1c-2.2-5.7-3.8-11.3-4.6-16.7
			C521.9,111.1,512.4,110.7,501.5,108.4z"/>
	</g>
</g>
</svg>
