<?xml version="1.0" encoding="utf-8"?>
<!-- Generator: Adobe Illustrator 18.0.0, SVG Export Plug-In . SVG Version: 6.00 Build 0)  -->
<!DOCTYPE svg PUBLIC "-//W3C//DTD SVG 1.1//EN" "http://www.w3.org/Graphics/SVG/1.1/DTD/svg11.dtd">
<svg version="1.1" id="illustration" xmlns="http://www.w3.org/2000/svg" xmlns:xlink="http://www.w3.org/1999/xlink" x="0px"
	 y="0px" viewBox="0 0 873.1 819.1" style="enable-background:new 0 0 873.1 819.1;" xml:space="preserve">
<style type="text/css">
	.st0{fill:#E3F0FF;}
	.st1{fill:#C5DFFF;}
	.st2{opacity:0.5;}
	.st3{fill:#6EAEFF;}
	.st4{fill:#308DFF;}
	.st5{fill:url(#SVGID_1_);}
	.st6{fill:url(#SVGID_2_);}
	.st7{fill:url(#SVGID_3_);}
	.st8{fill:url(#SVGID_4_);}
	.st9{fill:#FFFFFF;}
	.st10{fill:url(#SVGID_5_);}
	.st11{fill:#285EA1;}
	.st12{fill:url(#SVGID_6_);}
	.st13{fill:url(#SVGID_7_);}
	.st14{fill:#E3F4F8;}
	.st15{fill:url(#SVGID_8_);}
	.st16{opacity:0.37;fill:url(#SVGID_9_);}
	.st17{opacity:0.72;fill:#A8CFFF;}
	.st18{opacity:0.44;fill:#B0D4FF;}
	.st19{fill:url(#SVGID_10_);}
	.st20{fill:url(#SVGID_11_);}
	.st21{fill:url(#SVGID_12_);}
	.st22{fill:url(#SVGID_13_);}
	.st23{fill:url(#SVGID_14_);}
	.st24{fill:url(#SVGID_15_);}
	.st25{fill:url(#SVGID_16_);}
</style>
<g>
	<g>
		<path class="st0" d="M836.9,715.8c-8.4,16.2-25.6,26.3-43.4,30.4c-9.4,2.1-19,2.8-28.7,2.8c-8.6,0-17.3-0.5-25.9-1.1
			c-28.9-1.9-64.6-9.4-96-9.4c-8.2,0-16.1,0.5-23.6,1.8c-27.8,4.8-50.9,32.6-78.2,42.3c-12.7,4.5-25,6.3-37.1,6.3
			c-43.7,0-84.6-23.7-127.9-32.4c-7.7-1.6-15.6-2.2-23.7-2.2c-38,0-79.7,14.8-114.2,24.3c-29.3,8.1-59.3,15.6-89.6,15.6
			c-4.5,0-9-0.2-13.5-0.5c-34.8-2.7-70.3-18.5-88.6-48.3C22,705.7,37.4,672.9,66,648.5c9.4-8,20.2-15.1,31.4-21.2
			c19.5-10.6,40.5-18.4,58.1-23.1c46.2-12.2,93.4-16.2,140.8-16.2c43.6,0,87.4,3.3,130.8,6.7c22.8,1.8,45.6,3.8,68.3,5.9
			c22.6,2.1,45.2,4.3,67.7,6.7c17.1,1.7,34.1,3.5,51.2,5.3c36.6,3.8,73.2,5.9,110.3,6.1c20.8,0.1,42.3,1.5,61.9,8
			c8.5,2.8,16.6,6.6,24.1,11.6c6.9,4.6,13.1,10.7,18.1,17.5C841.7,673.6,846.8,696.7,836.9,715.8z"/>
	</g>
	<path class="st1" d="M563.2,607.4c-22.7,31.3-131.2,81.8-197.9,83.7c7.3-7.9,17.5-13.5,25.8-20.4c29.7-25.1,64.6-55.1,104.4-69.9
		C518.1,602.8,540.6,605.1,563.2,607.4z"/>
	<path class="st1" d="M828.8,655.9c-5.1,0.8-10.8,1.3-16.7,1.3c-24,0-43.5-7.5-43.5-16.8c0-5.6,7.1-10.5,18-13.6
		c8.5,2.8,16.6,6.6,24.1,11.6C817.6,643.1,823.8,649.1,828.8,655.9z"/>
	<g class="st2">
		<path class="st1" d="M333.8,593.3c-5.2,1.3-16.3,6.3-16.3,12.8c0,14.6,90.8,19.3,105.4,19.3c19.1,0,45.7-0.2,46-19.2
			c-21.1-11.4-58-17.3-91-17.3C361.4,588.9,345.9,590.4,333.8,593.3z"/>
	</g>
	<path class="st1" d="M210.5,656.5c-13.6,5.7-29,7.7-44.8,7.7c-13.8,0-68.8-5.5-99.7-15.8c9.4-8,20.2-15.1,31.4-21.2
		c22.1,4.7,44.1,12,64,14.9C177.6,644.6,198.1,644.2,210.5,656.5z"/>
	<g>
		<path class="st3" d="M215,592.8c20-2.5,40.1-3.9,60.3-4.5c-8-18.5-12.4-39.2-15.1-57.5c-5.9-40.1-17.6-102.1-26.9-112.9l-48.1,61
			c8.3,39.3,17.3,75.9,27.5,107.5C213.5,588.8,214.2,590.8,215,592.8z"/>
		<path class="st4" d="M217,276c-6.6,7.2-8.3,16.6-8,26.4l-27.2-17.8L217,276z"/>
		<linearGradient id="SVGID_1_" gradientUnits="userSpaceOnUse" x1="132.006" y1="546.9528" x2="184.8441" y2="483.8879">
			<stop  offset="0" style="stop-color:#6EAEFF"/>
			<stop  offset="1" style="stop-color:#B5D7FF"/>
		</linearGradient>
		<path class="st5" d="M106.4,622.6c16.8-8.3,34.2-14.5,49.1-18.4c24.7-6.5,49.6-10.7,74.8-13.1c-0.9-41.2,11.9-85.5,13.2-125
			c1-27.6-4.7-53.1-20.9-69.2l-14.2,31.9l-70.2-41.7c-60.6,30.3-63.6,147.6-32.7,235.6L106.4,622.6z"/>
		<linearGradient id="SVGID_2_" gradientUnits="userSpaceOnUse" x1="135.6699" y1="662.7326" x2="96.3169" y2="504.0092">
			<stop  offset="0" style="stop-color:#6EAEFF"/>
			<stop  offset="1" style="stop-color:#B5D7FF"/>
		</linearGradient>
		<path class="st6" d="M95.9,555.5c-3.6-4.4-4.5-10.4-2.3-15.6c23-54.3,39.6-106,46.4-153.7c-28.9,9.2-62.2,37-85.1,93
			c-4.2,10.3-10.9,32.1-16.3,50.7c-6.1,21-0.9,43.7,13.8,60c20.1,22.3,42.9,41.3,68,57.5l27.4-29.9L95.9,555.5z"/>
		<linearGradient id="SVGID_3_" gradientUnits="userSpaceOnUse" x1="120.3786" y1="640.8557" x2="218.3465" y2="640.8557">
			<stop  offset="0" style="stop-color:#D9EAFF"/>
			<stop  offset="1" style="stop-color:#B8D8FF"/>
		</linearGradient>
		<path class="st7" d="M217.3,654.1l-11.7-10.9c-3.7-3.5-8.7-5.5-13.8-5.6l-22.6-0.3c-3.2,0-6.2-1.5-8.2-3.9l-13.3-15.9l-27.4,29.9
			c7,4.6,14.2,8.9,21.6,13.1c5,2.8,10.7,4.1,16.4,3.7l56.9-4.4C218.2,659.5,219.4,656,217.3,654.1z"/>
		<linearGradient id="SVGID_4_" gradientUnits="userSpaceOnUse" x1="171.4586" y1="379.5607" x2="179.4826" y2="354.4859">
			<stop  offset="0" style="stop-color:#D9EAFF"/>
			<stop  offset="1" style="stop-color:#B8D8FF"/>
		</linearGradient>
		<path class="st8" d="M197.6,376l-2.4,6l-2.5,6.4l-12-8.6l-19-13.8c1.6-12.6,1.9-24.7,0.7-36.2l28,9.3
			C191.5,351.5,193.9,363.8,197.6,376z"/>
		<path class="st9" d="M199.2,383.1L199.2,383.1c0.1-0.9,0.1-1.8-0.2-2.7c-0.5-1.4-0.9-2.9-1.3-4.4l-2.4,6l-2.5,6.4l-12-8.6
			l-19-13.8c-0.6,4.8-1.4,9.6-2.4,14.5c-7.8,1.2-14.9,3.5-21.2,6.6l70.2,41.7l14.2-31.9C216.4,390.8,208.6,386.1,199.2,383.1z"/>
		<linearGradient id="SVGID_5_" gradientUnits="userSpaceOnUse" x1="149.587" y1="318.9514" x2="217.2389" y2="318.9514">
			<stop  offset="0" style="stop-color:#D9EAFF"/>
			<stop  offset="1" style="stop-color:#B8D8FF"/>
		</linearGradient>
		<path class="st10" d="M151.4,313.4c2.1-1.7,5.4-1.4,8.7,0.6c-0.9-22.5,10.4-34.6,22.5-35.6c12.2-1,33.6,11.6,34.5,34.2
			c1,22.6-6.1,45.3-21.9,46.8c-14.1,1.4-27-11.1-31.8-26.6c-3.1,0.2-7.1-1.9-10.1-5.6C149.2,322.2,148.4,316,151.4,313.4z"/>
		<path class="st11" d="M173.8,314.5l-13.7-0.5c-18.1-13.3-0.5-42.6,18.4-44.3c15.9-1.4,28.6-5.4,41.8-15.9
			C232.2,295.4,168.7,278.8,173.8,314.5z"/>
		<path class="st11" d="M185.6,335.3c0.4,23.4,15,37.6,31.9,28.2c5.1-2.8,7.2-9,5.1-14.4c-2.9-7.4-5-14.6-6-21.7
			C212,338.8,199.7,338.4,185.6,335.3z"/>
	</g>
	<path class="st11" d="M393.5,271.5c-5.7,8.1-8.5,17.9-12.1,27.2c-3.6,9.3-8.3,18.7-16.6,24.2c-6.6,4.4-14.8,5.9-22.2,8.9
		c-7.4,3-14.7,8.7-15.5,16.7c-0.8,8.6,6.4,16.3,6.1,25c-0.2,5.9-3.8,11-5.2,16.7c-1.9,8.4,1.4,17.3,7.1,23.8
		c5.7,6.5,13.4,10.7,21.3,14c28.1,11.7,60.5,12.4,89.1,1.9c14.9-5.5,29.1-14.2,38.3-27.1c9.2-12.9,12.8-30.5,6.7-45.1
		c-5.3-12.6-17-22-20.5-35.2c-2.6-9.9-0.7-19.5-3.9-29.5c-3-9.3-7.7-18.2-14.7-25.1C435.5,252.6,406.8,252.5,393.5,271.5z"/>
	<linearGradient id="SVGID_6_" gradientUnits="userSpaceOnUse" x1="282.0998" y1="358.7417" x2="460.3681" y2="517.5623">
		<stop  offset="0" style="stop-color:#A9D0FF"/>
		<stop  offset="1" style="stop-color:#EDF8FA"/>
	</linearGradient>
	<path class="st12" d="M548.1,489.9c-1.1-58.8-33-82.4-60.1-103.5c0,0,0,0,0,0c-1.3-1.1-2.5-2.1-3.9-3.1c-0.4-0.3-0.8-0.5-1.2-0.8
		c-37.3-24.9-75.8-24.9-115.4-4.9c-0.1,0-0.2,0.1-0.3,0.1c-25.2,12.8-60.6,31-70.3,110.4c-0.2,1.4-0.3,2.8-0.4,4.2
		c17.9-3.8,36.7-5.7,56.2-6c0.1-5.6,0.4-11.1,0.7-16.7c12.2,32.1,20.8,76.4,12,120.6h121.3c2.4-33.5,6-69.5,10.7-104.1
		C513.9,486.4,530.7,487.7,548.1,489.9z"/>
	<linearGradient id="SVGID_7_" gradientUnits="userSpaceOnUse" x1="377.4806" y1="603.1918" x2="379.4963" y2="577.9959">
		<stop  offset="0" style="stop-color:#DAF0F5"/>
		<stop  offset="1" style="stop-color:#E3F4F8"/>
	</linearGradient>
	<path class="st13" d="M465.5,595.5c-25.1-24.9-70.5-37.7-104.3-39.5c-3.2-0.2-5.8-2.7-6.1-5.9c-1.9-21.5-2.7-42.8-2.2-63.7
		c-19.5,0.3-38.2,2.3-56.2,6c-2.8,29.3,1.9,60.7,10.2,92.7c2.5,9.7,11.2,16.6,21.2,16.9l132.9,4
		C466.7,606.3,469.5,599.5,465.5,595.5z"/>
	<path class="st14" d="M484.2,383.4c-10.1,25.6-32.3,43.4-58.1,43.4c-27.4,0-50.8-20.1-59.9-48.3c0.5-0.3,0.9-0.5,1.4-0.7
		c39.5-20,78-20,115.4,4.9C483.4,382.9,483.8,383.2,484.2,383.4z"/>
	<linearGradient id="SVGID_8_" gradientUnits="userSpaceOnUse" x1="518.2337" y1="601.7388" x2="495.0534" y2="597.7075">
		<stop  offset="0" style="stop-color:#DAF0F5"/>
		<stop  offset="1" style="stop-color:#E3F4F8"/>
	</linearGradient>
	<path class="st15" d="M485.8,486.5c0,28,0.8,54.4,2.5,78.6c-25.7,19.4-56.3,44.6-89.1,72.6c-3,2.5-6.5,4.4-10.3,5.3
		c-6.4,1.6-12.5,2.9-18.2,3.9c-0.7,0.1-1.3,0.4-1.8,0.8c-2.5,1.9-2,5.8,0.9,7l3.7,1.6c1.4,0.6,1.7,2.4,0.7,3.5
		c-2.8,2.8-5.8,5.4-9.1,7.6c-3.6,2.4-5.6,6.6-5,10.9c0.4,3,0.9,6,1.4,8.8c0.8,4.3,5.5,6.7,9.4,4.9c63.5-29.9,121.2-62.5,162.3-103
		c0,0,14.4-68.4,14.9-91.6c0.1-2.5,0-4.9,0-7.3C526.5,487.1,505.7,485.9,485.8,486.5z"/>
	<linearGradient id="SVGID_9_" gradientUnits="userSpaceOnUse" x1="200.8053" y1="169.8351" x2="375.5837" y2="169.8351">
		<stop  offset="0" style="stop-color:#6EAEFF"/>
		<stop  offset="1" style="stop-color:#B5D7FF"/>
	</linearGradient>
	<path class="st16" d="M374.1,125.5c-2.1-16.3-14.9-29.1-31.2-31.3c-34.7-4.7-70.5-5.7-107.4-3.2c-18.2,1.2-32.7,15.7-34,33.8
		c-1.3,17.8-0.8,36,1.3,54.5c1.8,16.2,14.2,29.2,30.3,31.9c24.7,4.2,48.6,7.5,70.3,8.4c-3.3,9.5-8,19.8-13.1,30.4
		c14.8-9.1,28.3-19.2,39.9-30.5c3.7-0.2,7.3-0.6,10.7-1c15.4-2,27.8-13.9,30.7-29.2C375.8,167.6,376.7,146.3,374.1,125.5z"/>
	<g>
		<g id="XMLID_5_">
			<path id="XMLID_6_" class="st9" d="M301.3,157.8c1.9,1.9,4,3.7,5.7,5.7c0.8,0.9,1.5,1.9,2,2.9c0.8,1.5,0.1,3.2-1.3,3.3l-8.5,0
				c-2.2,0.2-3.9-0.7-5.4-2.2c-1.2-1.2-2.3-2.5-3.4-3.7c-0.5-0.5-0.9-1-1.5-1.4c-1.2-0.8-2.2-0.5-2.8,0.7c-0.7,1.2-0.8,2.6-0.9,4
				c-0.1,2-0.7,2.5-2.7,2.6c-4.3,0.2-8.4-0.4-12.1-2.6c-3.3-1.9-5.9-4.6-8.2-7.6c-4.4-5.9-7.7-12.5-10.7-19.2
				c-0.7-1.5-0.2-2.3,1.5-2.3c2.8-0.1,5.5,0,8.3,0c1.1,0,1.9,0.7,2.3,1.7c1.5,3.7,3.3,7.2,5.6,10.4c0.6,0.9,1.2,1.7,2.1,2.3
				c1,0.7,1.7,0.5,2.2-0.6c0.3-0.7,0.4-1.4,0.5-2.2c0.2-2.6,0.2-5.1-0.1-7.7c-0.2-1.6-1.1-2.6-2.7-2.9c-0.8-0.2-0.7-0.5-0.3-0.9
				c0.7-0.8,1.3-1.3,2.6-1.3h9.6c1.5,0.3,1.8,1,2.1,2.5l0,10.6c0,0.6,0.3,2.3,1.4,2.7c0.8,0.3,1.4-0.4,1.9-0.9
				c2.3-2.4,3.9-5.3,5.4-8.3c0.6-1.3,1.2-2.7,1.7-4c0.4-1,1-1.5,2.2-1.5l9.2,0c0.3,0,0.6,0,0.8,0c1.6,0.3,2,0.9,1.5,2.5
				c-0.8,2.4-2.2,4.4-3.7,6.4c-1.5,2.1-3.2,4.2-4.7,6.3C299.5,155.2,299.6,156.1,301.3,157.8L301.3,157.8z"/>
		</g>
		<g>
		</g>
		<g>
		</g>
		<g>
		</g>
		<g>
		</g>
		<g>
		</g>
		<g>
		</g>
		<g>
		</g>
		<g>
		</g>
		<g>
		</g>
		<g>
		</g>
		<g>
		</g>
		<g>
		</g>
		<g>
		</g>
		<g>
		</g>
		<g>
		</g>
	</g>
	<g>
		<path class="st17" d="M560.2,169.9c-2.3-14-3.4-27.7-3.1-41.3c0.3-13.8,10.8-25.4,24.5-27c27.9-3.4,55.1-4,81.7-1.8
			c12.4,1,22.7,10.3,24.9,22.6c2.8,15.7,2.9,31.9,0.6,48.5c-1.6,11.7-10.6,21.2-22.2,23.4c-0.2,0-0.5,0.1-0.7,0.1
			c5.5,8.9,12.6,18.2,20.4,27.7c-13.9-7.9-26.6-16.6-37.8-26.1l-10.3,0.6c-16.6,0.1-34.8-1.4-53.7-3.6
			C572.1,191.5,562.2,182.1,560.2,169.9z"/>
		<g>
			<g id="XMLID_2_">
				<path id="XMLID_3_" class="st9" d="M645.3,148.2c1.9,1.9,4,3.7,5.7,5.7c0.8,0.9,1.5,1.9,2,2.9c0.8,1.5,0.1,3.2-1.3,3.3l-8.5,0
					c-2.2,0.2-3.9-0.7-5.4-2.2c-1.2-1.2-2.3-2.5-3.4-3.7c-0.5-0.5-0.9-1-1.5-1.4c-1.2-0.8-2.2-0.5-2.8,0.7c-0.7,1.2-0.8,2.6-0.9,4
					c-0.1,2-0.7,2.5-2.7,2.6c-4.3,0.2-8.4-0.4-12.1-2.6c-3.3-1.9-5.9-4.6-8.2-7.6c-4.4-5.9-7.7-12.5-10.7-19.2
					c-0.7-1.5-0.2-2.3,1.5-2.3c2.8-0.1,5.5,0,8.3,0c1.1,0,1.9,0.7,2.3,1.7c1.5,3.7,3.3,7.2,5.6,10.4c0.6,0.9,1.2,1.7,2.1,2.3
					c1,0.7,1.7,0.5,2.2-0.6c0.3-0.7,0.4-1.4,0.5-2.2c0.2-2.6,0.2-5.1-0.1-7.7c-0.2-1.6-1.1-2.6-2.7-2.9c-0.8-0.2-0.7-0.5-0.3-0.9
					c0.7-0.8,1.3-1.3,2.6-1.3h9.6c1.5,0.3,1.8,1,2.1,2.5l0,10.6c0,0.6,0.3,2.3,1.4,2.7c0.8,0.3,1.4-0.4,1.9-0.9
					c2.3-2.4,3.9-5.3,5.4-8.3c0.6-1.3,1.2-2.7,1.7-4c0.4-1,1-1.5,2.2-1.5l9.2,0c0.3,0,0.6,0,0.8,0c1.6,0.3,2,0.9,1.5,2.5
					c-0.8,2.4-2.2,4.4-3.7,6.4c-1.5,2.1-3.2,4.2-4.7,6.3C643.4,145.6,643.5,146.5,645.3,148.2L645.3,148.2z"/>
			</g>
			<g>
			</g>
			<g>
			</g>
			<g>
			</g>
			<g>
			</g>
			<g>
			</g>
			<g>
			</g>
			<g>
			</g>
			<g>
			</g>
			<g>
			</g>
			<g>
			</g>
			<g>
			</g>
			<g>
			</g>
			<g>
			</g>
			<g>
			</g>
			<g>
			</g>
		</g>
	</g>
	<path class="st18" d="M575.1,79c-3.8-21.2-21.6-37.1-43.1-38.8c-45.8-3.7-92.8-2.5-140.9,3.4c-23.7,2.9-41.8,22.8-42.2,46.7
		c-0.4,23.4,1.5,47.2,5.5,71.3c3.5,21.1,20.7,37.3,42,39.7c32.6,3.7,64.1,6.3,92.7,6c-3.6,12.7-9,26.5-15,40.7
		c18.8-12.9,35.7-27.1,50.1-42.8c4.8-0.6,9.5-1.3,14-2.1c20.1-3.8,35.4-20.2,38.2-40.4C580.3,134,580,106,575.1,79z"/>
	<g>
		<g id="XMLID_1_">
			<path id="XMLID_4_" class="st9" d="M496,127c3.4,3.3,7,6.4,10,10.1c1.3,1.6,2.6,3.3,3.6,5.2c1.4,2.7,0.1,5.6-2.3,5.8l-14.9,0
				c-3.8,0.3-6.9-1.2-9.5-3.9c-2.1-2.1-4-4.3-6-6.5c-0.8-0.9-1.7-1.7-2.7-2.4c-2-1.3-3.8-0.9-5,1.2c-1.2,2.2-1.5,4.5-1.6,7
				c-0.2,3.5-1.2,4.4-4.7,4.6c-7.5,0.4-14.7-0.8-21.3-4.6c-5.9-3.4-10.4-8.1-14.4-13.4c-7.7-10.4-13.6-21.9-18.9-33.7
				c-1.2-2.7-0.3-4.1,2.6-4.1c4.9-0.1,9.7-0.1,14.6,0c2,0,3.3,1.2,4,3c2.6,6.5,5.9,12.6,9.9,18.3c1.1,1.5,2.2,3,3.7,4.1
				c1.7,1.2,3,0.8,3.9-1.1c0.5-1.2,0.7-2.5,0.9-3.8c0.4-4.5,0.4-9-0.2-13.5c-0.4-2.8-2-4.6-4.8-5.1c-1.4-0.3-1.2-0.8-0.5-1.6
				c1.2-1.4,2.3-2.3,4.6-2.3h16.8c2.7,0.5,3.2,1.7,3.6,4.4l0,18.7c0,1,0.5,4.1,2.4,4.8c1.5,0.5,2.5-0.7,3.4-1.6
				c4-4.3,6.9-9.3,9.5-14.6c1.1-2.3,2.1-4.7,3.1-7.1c0.7-1.8,1.8-2.6,3.8-2.6l16.2,0c0.5,0,1,0,1.4,0.1c2.7,0.5,3.5,1.6,2.6,4.3
				c-1.3,4.2-3.9,7.7-6.4,11.2c-2.7,3.7-5.6,7.4-8.3,11.1C492.7,122.3,492.9,124,496,127L496,127z"/>
		</g>
		<g>
		</g>
		<g>
		</g>
		<g>
		</g>
		<g>
		</g>
		<g>
		</g>
		<g>
		</g>
		<g>
		</g>
		<g>
		</g>
		<g>
		</g>
		<g>
		</g>
		<g>
		</g>
		<g>
		</g>
		<g>
		</g>
		<g>
		</g>
		<g>
		</g>
	</g>
	<linearGradient id="SVGID_10_" gradientUnits="userSpaceOnUse" x1="424.2107" y1="351.7747" x2="423.2637" y2="372.6068">
		<stop  offset="0" style="stop-color:#DAF0F5"/>
		<stop  offset="1" style="stop-color:#E3F4F8"/>
	</linearGradient>
	<path class="st19" d="M435.2,322.4l-19.5,8.5l-0.6,1.7c-1.7,13.2-7.1,27.4-14.7,42.1c-2.4,4.5,0.4,9.7,6,11.1
		c12.1,2.9,26.5,0.7,36.4-5.2c3.6-2.1,5.1-6,3.7-9.4C439.7,355.3,436.1,339,435.2,322.4z"/>
	<path class="st14" d="M399,315.6c-0.1,1.4-0.1,2.8-0.2,4.2c-0.2,11.2,7.6,21,18.6,23.5c0.1,0,0.3,0.1,0.4,0.1
		c12.9,2.9,25.8-5.2,28.5-18.2c2.9-13.7,1.3-28.5-4.5-44.5C433.1,297.5,417.6,310.3,399,315.6z"/>
	<g>
		<linearGradient id="SVGID_11_" gradientUnits="userSpaceOnUse" x1="576.675" y1="419.2721" x2="622.1007" y2="443.2469">
			<stop  offset="0" style="stop-color:#D9EAFF"/>
			<stop  offset="1" style="stop-color:#B8D8FF"/>
		</linearGradient>
		<path class="st20" d="M572.5,454.5c-0.9,0.8-2.3,0-2-1.1c6.6-29.1,11-58.1,13.1-86.9c0.3-4.1,1.4-8,3.2-11.7
			c7.8-15.7,9.5-30.6-0.9-43.8l-3.7-27.7c-0.3-2.3-1.8-4.4-4-5.3c-4.6-2.1-9.8,1.3-9.7,6.3c0.1,11-0.5,21.1-2.1,29.8
			c-5.9,1.7-11.8,3.9-17.5,7c-3.7,2-5.3,6.3-3.7,10.2c1.4,3.5,2.3,7.5,2.9,11.9c0.7,5.7,0.1,11.5-1.9,17
			c-13.8,38.9-26.7,83-39.2,130.5c-8.6,32.9,26,60.1,56.1,44.3c18-9.5,35.4-19.4,52.1-29.8c-14.6-16.6-26.4-35.6-35.1-57.6
			C577.6,449.8,575.1,452.1,572.5,454.5z"/>
		<linearGradient id="SVGID_12_" gradientUnits="userSpaceOnUse" x1="656.7042" y1="473.3885" x2="637.2263" y2="441.3073">
			<stop  offset="0" style="stop-color:#54A0FF"/>
			<stop  offset="0.9984" style="stop-color:#6296D9"/>
		</linearGradient>
		<path class="st21" d="M667.1,384.6c-19.8,4.8-50.6,28.9-87,62.8c8.7,21.9,20.5,41,35.1,57.6c11.6-7.2,22.8-14.6,33.7-22.2
			L667.1,384.6z"/>
		<linearGradient id="SVGID_13_" gradientUnits="userSpaceOnUse" x1="789.7942" y1="566.5184" x2="726.4854" y2="513.339">
			<stop  offset="0" style="stop-color:#54A0FF"/>
			<stop  offset="0.9984" style="stop-color:#6296D9"/>
		</linearGradient>
		<path class="st22" d="M724.7,618.8c15.8,0.1,32.1,1,47.5,4.2c6.8-2.5,13.5-5.3,20.1-8.7c21-110.1,63.7-197.6-34.1-225.1
			c-15-4.2-33.2-7-55.3-8.3c-11.7-0.7-21.6,0.2-30.1,2.3c-84.6,20.9-23.2,168.6-19.5,232.9C677.1,617.7,700.8,618.7,724.7,618.8z"/>
		<linearGradient id="SVGID_14_" gradientUnits="userSpaceOnUse" x1="858.8371" y1="553.3912" x2="813.5988" y2="496.8433">
			<stop  offset="0" style="stop-color:#54A0FF"/>
			<stop  offset="0.9984" style="stop-color:#6296D9"/>
		</linearGradient>
		<path class="st23" d="M836.9,542.3c8.2-56.7,2.4-110.1-41.6-135c-8.7,5.2-13.7,15-12.5,25c4.2,34.4,3.5,67.6-2.4,99.2
			c15.7,5.3,34.8,9.7,55.9,13.8C836.6,544.3,836.8,543.3,836.9,542.3z"/>
		<linearGradient id="SVGID_15_" gradientUnits="userSpaceOnUse" x1="653.3938" y1="563.4683" x2="836.4022" y2="563.4683">
			<stop  offset="0" style="stop-color:#D9EAFF"/>
			<stop  offset="1" style="stop-color:#B8D8FF"/>
		</linearGradient>
		<path class="st24" d="M780.5,531.6c-1.4,7.8-3.2,15.5-5.3,23.1c-0.9,3.4-5,4.6-7.6,2.3c-19.4-16.9-38.8-37.3-58.2-60.3
			c-11.4-13-30.9-7.9-53.2,3.2c-3.5,1.8-3.7,6.7-0.4,8.7l4.6,2.8c1.3,20.2,11.2,29,25.3,32.1c3.4,0.7,6.3,2.8,8.3,5.6
			c22,30.2,46.3,57.2,72.9,80.9c16.8,15,43.3,8.1,50.6-13.2c8.5-25,15-49,18.9-71.5C815.3,541.3,796.1,536.8,780.5,531.6z"/>
		<linearGradient id="SVGID_16_" gradientUnits="userSpaceOnUse" x1="731.3871" y1="417.638" x2="704.6025" y2="362.5806">
			<stop  offset="0" style="stop-color:#D9EAFF"/>
			<stop  offset="1" style="stop-color:#B8D8FF"/>
		</linearGradient>
		<path class="st25" d="M742.8,385.6c-6.4-17.8-9.9-35.1-9.8-51.7l-25.8,6.3c-6.1,12.3-10.9,26-14.7,40.5c-7.2,0.2-13.7,1-19.5,2.4
			c3.2,14.2,21.6,25,43.9,25c18.9,0,35.1-7.9,41.5-19C753.4,387.8,748.3,386.6,742.8,385.6z"/>
		<path class="st1" d="M758.9,317c-2-2.2-5.8-2.3-9.8-0.7c5.2-24.2-5.1-39.1-18.5-42.1c-13.4-2.9-39.6,7.4-44.9,31.7
			c-5.3,24.3-1.7,50,15.7,54.1c15.5,3.7,32.3-7.8,40.5-24c3.4,0.7,8.2-1,12.3-4.5C759.7,326.8,761.8,320.2,758.9,317z"/>
		<path class="st11" d="M748.4,318c24.3-15.2,10.7-59.3-12.9-51.8c-28.8,9.1-31.7-18.9-50.3-13c-12.9,4.1-16.6,15.4-12.9,26.3
			c6.1,17.9,32.4,24.4,51,18.5c11.1-3.5,18.9-9.7,24.1,5.6C748.8,307.7,748.7,313.3,748.4,318z"/>
	</g>
</g>
</svg>
