<?xml version="1.0" encoding="utf-8"?>
<!-- Generator: Adobe Illustrator 18.0.0, SVG Export Plug-In . SVG Version: 6.00 Build 0)  -->
<!DOCTYPE svg PUBLIC "-//W3C//DTD SVG 1.1//EN" "http://www.w3.org/Graphics/SVG/1.1/DTD/svg11.dtd">
<svg version="1.1" id="dizajn" xmlns="http://www.w3.org/2000/svg" xmlns:xlink="http://www.w3.org/1999/xlink" x="0px" y="0px"
	 viewBox="0 0 1101.7 838.1" style="enable-background:new 0 0 1101.7 838.1;" xml:space="preserve">
<style type="text/css">
	.st0{fill:#F7FAFF;}
	.st1{fill:#B3D5FF;}
	.st2{fill:#AED0FE;}
	.st3{fill:#FFFFFF;}
	.st4{fill:#EAF3FF;}
	.st5{fill:#A8CFFF;}
	.st6{fill:#71ACFE;}
	.st7{fill:#77B0FE;}
	.st8{fill:#4F564E;}
	.st9{fill:#E2EFFF;}
	.st10{fill:#62A3FE;}
	.st11{fill:#DCECFF;}
	.st12{fill:#91BFFE;}
	.st13{fill:#E8F2FF;}
	.st14{fill:#9DC6FE;}
	.st15{fill:#E0EEFF;}
	.st16{fill:#E6F0FF;}
	.st17{fill:#D2E5FF;}
	.st18{fill:#DBEAFF;}
	.st19{fill:#E5F1FF;}
	.st20{fill:#84B7FE;}
	.st21{fill:#7CB2FE;}
	.st22{fill:#EEF5FF;}
	.st23{fill:#EDF5FF;}
	.st24{fill:#BDD9FE;}
	.st25{fill:#CAE0FF;}
	.st26{fill:#A0C7FE;}
	.st27{fill:#D6E8FF;}
	.st28{fill:#DDEBFF;}
	.st29{fill:#F0F6FF;}
	.st30{fill:#2B83FD;}
	.st31{fill:#B5D4FE;}
	.st32{fill:#686E67;}
	.st33{fill:#79B1FE;}
	.st34{fill:#D9E9FF;}
	.st35{fill:#C6DEFE;}
	.st36{fill:#E6F1FF;}
	.st37{fill:#DFEDFF;}
	.st38{fill:#F1F1F1;}
	.st39{fill:#C6E0FF;}
</style>
<path class="st0" d="M850.6,669.9c-77.2,3.1-316.4,11.7-462.1,7.4c-270.2-7.9-487.9,40.2-341.3,74.4c41,9.5-71.6,85.6,213.9,86.4
	c250.7,0.7,503.9-42.4,626.5-61.7c122.6-19.3,178.3-44.9,204.2-56.5C1114.5,709.7,1120.4,658.9,850.6,669.9z"/>
<path class="st1" d="M348.6,190.6c59.3-59.4,155.5-59.4,214.8,0l35.7,35.7l35.8-35.7c59.3-59.4,155.5-59.4,214.9,0
	c59.1,59.3,59.1,155.3,0,214.6l-36,35.9l0,0L599.1,655.6L384.5,441l0,0l-35.9-35.9C289.4,345.8,289.4,249.6,348.6,190.6z"/>
<g>
	<g>
		<g>
			<path class="st2" d="M173.4,727.6l0.4,9.3h7.5c0,0,0.4-1.2,1.1-1.2c0.5,0,1.2,1.2,2,1.2c1.6,0,3.3,0,4.1,0c1.4,0,15.1,0,15.1,0
				s0.3-1.7-0.1-2.3c-0.2-0.3-1.5-0.8-2.3-1.1c-3.9-1.2-15.1-5-17-9.1C181.8,719.3,173.4,727.6,173.4,727.6z"/>
			<path class="st3" d="M203.6,734.9c0.2,0.7-0.1,1.9-0.1,1.9s-13.7,0-15.1,0c-0.7,0-2.5,0-4.1,0c-0.7,0-1.4-1.2-2-1.2
				c-0.6,0-1.1,1.2-1.1,1.2h-7.5l-0.3-1.9H203.6z"/>
			<g>
				<path class="st3" d="M189.6,731.3c0.2,0.2,0.6,0,1.2-0.5c1.4-1.2,1.2-1,0.9-1.2c-0.2-0.1-0.5-0.3-1.3,0.4
					C189.8,730.5,189.5,731,189.6,731.3z"/>
				<path class="st3" d="M187.6,730.3c0.2,0.2,0.6,0,1.2-0.5c1.4-1.2,1.2-1,0.9-1.2c-0.2-0.1-0.5-0.3-1.3,0.4
					C187.8,729.5,187.4,730,187.6,730.3z"/>
				<path class="st3" d="M185.7,729.2c0.2,0.2,0.6,0,1.2-0.5c1.4-1.2,1.3-1,0.9-1.2c-0.2-0.1-0.5-0.3-1.3,0.4
					C185.9,728.3,185.5,728.9,185.7,729.2z"/>
			</g>
		</g>
		<g>
			<path class="st2" d="M116.1,736.9c-0.6,1-0.2,3.2-0.2,3.2s11.6,1.4,15.3,0.5c1-0.2,2.6-1.2,4.2-2.2c0.3-0.2,0.7-1.2,1-1.3
				c0.5-0.3,0.7,0.2,1.1-0.1c1-0.7,1.8-1.3,1.8-1.4c1-5.9-0.3-8.2-0.3-8.2s-7.4-3.6-9.3-1.1C125.3,732.3,117.8,734.1,116.1,736.9z"
				/>
			<path class="st3" d="M115.8,738.2c3.6,0.5,11.1,1.5,12.5,1.2c5.7-1.1,9.1-4.4,11.4-6.5c-0.1,0.8-0.2,1.7-0.3,2.7
				c0,0.1-0.7,0.6-1.8,1.4c-0.4,0.3-0.6-0.2-1.1,0.1c-0.3,0.2-0.7,1.2-1,1.3c-1.5,1-3.2,1.9-4.2,2.2c-3.7,1-15.3-0.5-15.3-0.5
				S115.7,739.1,115.8,738.2z"/>
			<g>
				<path class="st3" d="M122.1,732.6c-0.1,0.2,0.4,0.4,1.1,0.4c1.3-0.1,2.7,0,4,0.2c0.7,0.1,1.2,0,1.3-0.3c0-0.3-0.5-0.6-1.1-0.7
					c-1.3-0.2-2.6-0.3-3.9-0.2C122.7,732.1,122.2,732.4,122.1,732.6z"/>
				<path class="st3" d="M124.3,730.9c0,0.3,0.5,0.5,1.1,0.5c1.3,0.1,2.6,0.2,3.9,0.6c0.7,0.2,1.2,0.1,1.2-0.2
					c0-0.3-0.5-0.7-1.1-0.8c-1.3-0.3-2.6-0.5-3.9-0.5C124.9,730.4,124.4,730.6,124.3,730.9z"/>
				<path class="st3" d="M126.5,729.3c0,0.3,0.5,0.5,1.1,0.6c1.3,0.2,2.6,0.5,3.9,0.9c0.6,0.2,1.2,0.2,1.2-0.1c0-0.3-0.5-0.7-1.1-1
					c-1.3-0.4-2.6-0.7-3.9-0.9C127.1,728.8,126.6,729,126.5,729.3z"/>
			</g>
		</g>
		<path class="st4" d="M193.9,504.3l-1.2-7.1l-0.4-4.1l0.2-5.5c0,0,1.7-2.2,2.4,3c0.1,0.8,1.2-5.3,1.2-5.3l1.3-4.2l1.5-0.6l3.5,2.2
			c0,0-0.3,1.9-3.2,1c-0.3-0.1-0.5,3.5-0.5,3.5l3.7,5.4c0,0,0.7,2.8-0.4,4.1c-1.1,1.2-1.1,1.2-1.1,1.2l-0.5-0.5l-0.3,5.4
			c0,0-0.4,2.1-2.3,3c-1.8,0.9-0.8,2.9-0.8,2.9L193.9,504.3z"/>
		<path class="st5" d="M186.5,545.7c0,0-7.3-14.6-5.5-20c1.8-5.4,9.4-25.1,9.4-25.1l9.4,5.1c0,0-6.6,38.7-8.7,41.3
			C188.9,549.7,187.1,546.5,186.5,545.7z"/>
		<path class="st6" d="M188.3,727.1l-15.4,0.5l3.7-161.3l32.7-9.8C209.3,556.5,204.2,661.6,188.3,727.1z"/>
		<polygon class="st7" points="164,569.4 123.8,730.2 142,730.7 201.4,559.6 		"/>
		<path class="st7" d="M176.6,567.4l2.6-1.9l30.1-9c0,0-0.5,10.7-1.7,27.4l-31.8,18.3L176.6,567.4z"/>
		<path class="st6" d="M163.9,569.9l0.2-0.6l18.3-4.8l27-8.1c0,0-0.1,1.9-0.3,5.4L163.9,569.9z"/>
		<path class="st1" d="M145.1,484.3c0,0,17.6-12.4,33.5,8.2c15.9,20.6,32.5,63.6,32.5,63.6L162.7,572l-15.7-62.5
			C146.9,509.4,138.2,488.5,145.1,484.3z"/>
		<path class="st5" d="M144.9,485.2c0,0-5.4-0.5-3.1,16c2.3,16.5,8.1,48.6,10.7,56.7c0.7,2,3.3,11.3,7.5,5.7
			c4.2-5.7,7-27.5-0.2-55.7C155.3,489.8,147.7,485.2,144.9,485.2z"/>
		<polygon class="st8" points="207.5,512.7 208.4,513.7 204.9,524.7 197.9,526.8 196.2,525.3 198.9,515.5 		"/>
		<path class="st4" d="M183.3,527.3l10.2-5.9l4-0.6l-1.1,3.6l4,1.5l4-1.5l1.9-2.7l0.8,3c0,0-0.3,1.5-1.3,2.7
			c-1.1,1.2-4.8,7.7-4.8,7.7l-3-0.6l-6.7-1.8l-4.3,3.3L183.3,527.3z"/>
		<path class="st5" d="M155.3,560.8c0,0,2.2-16.5,6.5-19.6c4.4-3.1,21.2-13.7,21.2-13.7l4.7,10.3c0,0-26.5,26.5-29.6,27.1
			C155,565.6,155.3,561.8,155.3,560.8z"/>
	</g>
	<g>
		<g>
			<path class="st4" d="M173.3,477c-3,8.6-4.8,12.8-5.3,13.3c-3.3,3-13.2-4.7-12-6.8c1.2-2.1,3.1-13,3.1-14.6
				C159,467.1,175.1,471.9,173.3,477z"/>
			<path class="st9" d="M167.8,470.8c-2.9-1.2-5.8-2.1-7.4-2.3c-0.1,2.9-0.2,5.8-0.1,7.7c0.4,5.4,4.4,8.2,6.9,10.4
				c0.5,0.5,1.3,0.9,2.1,1.2c0.7-1.4,1.9-4.6,4-10.8C174.1,474.7,171.2,472.4,167.8,470.8z"/>
			<path class="st4" d="M181.4,453.8l-1,24.8c0,0-0.2,5.9-2.6,6.5c-2.3,0.6-8.5-0.3-11-2.5c-2.5-2.2-6.6-5.1-6.9-10.4
				c-0.4-5.4,0.7-18,0.7-18s2-4,10-0.8C178.6,456.5,181.4,453.8,181.4,453.8z"/>
			<path class="st7" d="M180.8,447.7c1.1,0.4,2.9,1.4,3.3,3.3c0.4,1.9-1.5,4.6-3.3,4.9c-1.7,0.3-12.6-0.6-13.9-1.2
				c-1.3-0.6-3.8-1.3-4.9-3.4c-0.7-1.4,3.5-3.9,6-2.9C174.1,450.6,176.7,446.3,180.8,447.7z"/>
			<path class="st7" d="M164.8,451.6l-0.4,10.7l-1.1,5.6l-1.3-0.1l-2.4-0.2c0,0-3.3-15,0.5-16.4
				C163.8,449.9,164.6,450.8,164.8,451.6z"/>
			<path class="st4" d="M161.8,468.9c0,0.9-0.8,1.6-1.8,1.5l-1-0.1c-1-0.1-1.7-0.9-1.7-1.8l0.2-3.9c0-0.9,0.8-1.6,1.8-1.5l1,0.1
				c1,0.1,1.7,0.9,1.7,1.8L161.8,468.9z"/>
		</g>
		<polygon class="st6" points="167.5,451.3 163.5,450.5 161.6,462.2 165.6,463 		"/>
		<path class="st4" d="M166,460.2c0.6-3.7,3.8-6.1,7.1-5.4l3.1,0.6c3.3,0.7,4.6,4,4,7.6l0,0c-0.6,3.7-3.8,6.1-7.1,5.4l-2.2-0.4
			C167.6,467.4,165.4,463.9,166,460.2L166,460.2z"/>
	</g>
</g>
<g>
	<path class="st10" d="M511.5,712.3c6.4,6.3,16.8,6.1,23.2-0.4c6.4-6.5,6.5-16.9,0.1-23.2c-6.4-6.3-16.8-6.1-23.2,0.4
		C505.1,695.6,505.1,706,511.5,712.3z"/>
	<path class="st10" d="M535.1,712.7c6.4,6.3,16.8,6.1,23.2-0.4c6.4-6.5,6.5-16.9,0.1-23.2c-6.4-6.3-16.8-6.1-23.2,0.4
		C528.7,696,528.7,706.4,535.1,712.7z"/>
	<path class="st10" d="M515.8,685c8.1,7.9,21.2,7.7,29.3-0.6c8.1-8.3,8.2-21.4,0.1-29.3c-8.1-7.9-21.2-7.7-29.3,0.5
		C507.8,663.9,507.7,677,515.8,685z"/>
	<g>
		<g>
			<g>
				<path class="st11" d="M516,737.1c0,0-0.3,2.8-13.8,1.5c-13.4-1.3-32.9-6.5-32.9-6.5l31.3,0C500.6,732.2,512.6,732.8,516,737.1z"
					/>
				<path class="st11" d="M479.8,734.1c-6.4-0.4-9.4,2.6-12,3.5c-2.6,0.8-5.3,2.2-5.2,2.2c1.6-2.6,3.7-2.6,4.8-3.4
					c1.1-0.8,0.8-0.4-1.5-0.7c-1.3-0.2-3.7,2-5.4,3.1c-1.5,1-2.4,1-2.4,1s1.8-2.2,4-3.9c2.7-2.1,6-3.8,6.8-4
					c1.4-0.4,5.7-0.3,8.7,0.3C481,732.8,484.4,734.4,479.8,734.1z"/>
				<path class="st11" d="M469.1,732c0,0-5,0.9-5.9,1.5c-0.6,0.4-3.3,2.9-3.3,2.9s1.9-0.2,3-1.1C464,734.4,469.1,732,469.1,732z"/>
			</g>
			<path class="st12" d="M510.4,730.9c0,0,12.4,1.5,11.1,8.9c-0.7,4.2-3.7,5.4-7.4,4.9c-6.9-1-14.8-2.5-14.8-2.5l-2.8-11.7
				L510.4,730.9z"/>
		</g>
		<path class="st12" d="M510.8,736.1l5.6-40.5c0,0,0.5-8.7,3.6-8.2c4.5,0.6,11.4,13.8,11.6,16.6c0.3,5.6-7.7,34.1-8.7,39.8
			c-0.7,3.9-4.2-0.8-8.2-1.5C507.2,740.8,510.8,736.1,510.8,736.1z"/>
	</g>
	<polygon class="st13" points="678.4,685.3 690.4,664.2 704.6,665.1 711.6,667.2 695.9,669.5 686,689.2 	"/>
	<path class="st14" d="M692.3,660.8l1.8,0.6l0.8,2.4l11.4,0.5l9,2.5c0,0-0.2,0.7-0.7,0.9c-1.7,0.7-8.8,0.5-8.8,0.5s0.9-1.9,0.1-2.4
		c-0.8-0.5-9.6-0.7-11.7-0.6c-3.7,0.2-5.6,1-5.4,0.5C689.2,665,692.3,660.8,692.3,660.8z"/>
	<path class="st5" d="M618.3,725.3l33.1,3.8l29.4-52l9.9,4.9L661,745c0,0-2.3,4-12.3,3.1c-9.8-0.8-49.3-3.2-53.6-4.8
		C584.7,739.4,619.3,734.4,618.3,725.3z"/>
	<path class="st10" d="M519.1,687.2c6.4,6.3,16.8,6.1,23.2-0.4c6.4-6.5,6.5-16.9,0.1-23.2c-6.4-6.3-16.8-6.1-23.2,0.4
		C512.7,670.6,512.7,680.9,519.1,687.2z"/>
	<path class="st10" d="M501.3,688c4.9,4.8,12.8,4.8,17.6-0.1l-2-6.4c4.8-4.9,4.8-12.8-0.1-17.6l-3.3-3.3c-4.9-4.8-12.8-4.8-17.6,0.1
		l-2.2,2.2c-4.8,4.9-4.8,12.8,0.1,17.6L501.3,688z"/>
	<path class="st13" d="M491.8,671.5c0.8,0.8,1.7,1.5,2.7,2.3c6.6,4.7,14.3,5.5,18.6,2.2c2.7,2.4,5.5,4.2,8.1,5.5
		c2.9,1.5,7.9,1.2,7.9,1.2c4.6,3.3,7.3,16.5-3.2,21.7c-6.3,3.1-7.4-4.3-6.7-9.5c0.4-2.4,0.6-5.1-0.1-6.2c-2.3-3.7-3.9-3.7-6.7-4.3
		c-4.6-0.3-7.6,2.8-7.6,2.8c-0.3,0.3-0.7,0.4-1.1,0.4c-0.8-0.4-1.5-0.9-2.1-1.5l-7.3-7.2C492.3,676.9,491.4,674.2,491.8,671.5z"/>
	<path class="st10" d="M532.8,691.4c5.6,7.5,16.4,9,24,3.2c7.7-5.7,9.3-16.5,3.7-24c-5.6-7.5-16.4-8.9-24-3.2
		C528.8,673.1,527.2,683.9,532.8,691.4z"/>
	<polygon class="st13" points="651.9,674.2 652.3,657.3 655.7,653.2 664.8,647.9 671.6,649 659.7,658.1 659,675.8 	"/>
	<path class="st14" d="M652.8,653.6l3.1-2.2l1,0.7l8.5-5.4c0,0,7.7-2.1,9.2-0.3c0.5,0.6-0.8,1.5-2.5,2.8c-1.4,1-2.2,1.4-2.2,1.4
		s-0.4-1.3-3.4-1.8c-1-0.2-7,3.9-9.1,5c-3.7,1.9-5.2,4.5-5.4,4.3C651.4,657.3,652.8,653.6,652.8,653.6z"/>
	<path class="st1" d="M585,752.6l7.5-0.3l60.8-4.3c0,0,5.5,1.6,8.9-7c4.8-12.3-2.1-73.5-2.1-73.5l-9,0.2l-4.4,57.8
		c0,0-42.7-13.6-52.3-10.3c-11.3,3.9-17.8,9.3-32.1,24.1c-6.3,6.5,2,12.2,2,12.2L585,752.6z"/>
	<path class="st14" d="M516.5,690.5c0,0,10.3-12.8,18.8-5.1c8.6,7.7,38.5,31.7,47.5,34.5l2.1,33.7c-24.7,1.6-45-11-46.7-13.5
		C532.9,731.9,513.1,700.8,516.5,690.5z"/>
	<path class="st12" d="M546.3,732.1c-2.4-3.3-7.4-10.4-12.2-18.3c-6.1-10-15.4-8.3-10.4,1.5c5.3,10.4,11.8,20.6,14.6,24.8
		c1.7,2.5,18.1,15.1,42.8,13.5l-2.4-3.4C561,748.5,547.8,734.2,546.3,732.1z"/>
	<g>
		<g>
			<path class="st13" d="M531.2,745.5c0,0,3.7,4-13.1,2.3c-11.9-1.2-11.7-0.4-41.1-8l39.1,0.6C516.1,740.4,526.9,740.4,531.2,745.5z
				"/>
			<path class="st13" d="M490.1,742.2c-8-0.6-11.7,2.8-14.9,3.7c-3.3,0.9-6.6,2.4-6.5,2.4c2-3,4.6-2.9,6-3.8c1.4-0.9,1-0.4-1.9-0.8
				c-1.6-0.2-4.6,2.2-6.8,3.5c-1.9,1.1-3,1.1-3,1.1s2.2-2.5,5-4.4c3.4-2.3,7.5-4.2,8.4-4.4c1.8-0.5,7.1-0.3,10.9,0.5
				C491.6,740.7,495.9,742.6,490.1,742.2z"/>
			<path class="st15" d="M476.8,739.6c0,0-6.2,1-7.4,1.6c-0.8,0.5-4.1,3.2-4.1,3.2s2.3-0.2,3.7-1.2
				C470.4,742.2,476.8,739.6,476.8,739.6z"/>
		</g>
		<path class="st14" d="M522.4,738.8l-5.6-45.8c0,0,3.6-4.5,6.7-2.9c3.4,1.7,10.1,6.3,10.1,6.3s5.6,15.9,7.2,29.9
			c2.5,23.1,1.3,23.6-7.2,25.7c-8.8,2.1-24.8,0-24.8,0l-3.5-13.1L522.4,738.8z"/>
	</g>
	<g>
		<path class="st16" d="M495,749.8C495,749.8,495,749.7,495,749.8V748h-73.3v1.8c0,0,0,0,0,0.1l0.2,0.3c0.9,1.5,2.6,1.8,4.6,1.8
			h63.8c1.9,0,3.6-0.3,4.6-1.8L495,749.8z"/>
		<path class="st17" d="M477.3,750.1C477.3,750.1,477.3,750.1,477.3,750.1l0.2,0.3c0.3,0.4,0.7,0.7,1.1,0.9h11.1
			c1.9,0,3.5-0.2,4.4-1.5l0.2-0.3c0,0,0,0,0,0l0-0.9h-17V750.1z"/>
		<g>
			<rect x="430.8" y="748.4" class="st17" width="36.6" height="1.2"/>
		</g>
		<g>
			<path class="st18" d="M476.9,747.9l-9.5-36c-0.3-1-1.2-1.7-2.2-1.7h-51.4c-0.9,0-1.5,0.8-1.3,1.7l9.5,36H476.9z"/>
			<path class="st17" d="M447.8,729c0.5,1.8-0.6,3.3-2.5,3.3c-1.8,0-3.7-1.5-4.2-3.3c-0.5-1.8,0.6-3.3,2.5-3.3
				C445.5,725.7,447.3,727.2,447.8,729z"/>
		</g>
	</g>
</g>
<g>
	<path class="st6" d="M650.8,125c12.3,2.5,10,8.2,8.7,16.1c-1.3,7.9-8.6,23-17.1,24.9c-8.5,1.9-13.9,10.8-15.1,3.6
		c-1.4-8.3-6.4-4.4-9.3-8.9c-5-7.9-1.1-15.8,7.4-19.3c8.4-3.6,8.6-5.3,10.7-10.3C638.1,126.2,646.9,124.3,650.8,125z"/>
	<g>
		<path class="st19" d="M642.8,156c-2.5-1-18.6,7.8-22.9,10.2c-4.3,2.4-8.9,6-5.2,6.9c3.7,0.9,8.3-1.4,11.8-2.8
			c3.5-1.4,8.2-3.6,10.7-4.5C639.6,164.8,645.2,157,642.8,156z"/>
		<path class="st19" d="M618.1,177c0,0,0.6-10.1-3-18.5c-3.6-8.5-4.5-14.1-4.5-14.1l-3-0.2c0,0,3.5,21,4.6,24.6
			C613.3,172.4,613.6,172,618.1,177z"/>
		<g>
			<path class="st19" d="M601.8,137l0.4-3.1c0,0,0.9,1.1,0.7,2.2c-0.1,1-0.3,2.2-0.3,2.2L601.8,137z"/>
			<path class="st19" d="M603.7,139.6l-0.3-2.1l1.4-1.4c0,0,0.5,0.3-0.2,1.8c-0.2,0.3,0.2,2.6,0.2,2.6L603.7,139.6z"/>
			<path class="st19" d="M609.4,146.4c0,0-3.5-2.2-6.6-5.8c-3.1-3.6-2.2-4.4-2.6-5.8c-0.3-1.4-1-3.4,0.1-2.1
				c1.1,1.3,1.6,4.2,2.2,4.9c0.5,0.7,1.7,1.3,2.8,2c1,0.8,1.7,1.4,1.1,0.2c-0.6-1.2-0.8-1.6-0.9-2.1c-0.1-0.5-0.2-1.2,0.3-1.4
				c0.5-0.2,0.6,0.9,0.9,1.3c0.2,0.4,1.9,2,2.2,2.4c0.3,0.4,0.7,2.2,1.1,3.4c0.4,1.1,1,5.6,0.1,6
				C610.1,149.6,610.4,147.2,609.4,146.4z"/>
		</g>
	</g>
	<g>
		<path class="st4" d="M529.8,238.7c0,0-3.8,5.5-6.2,7.9c-2.3,2.4-4.2,3.9-5.4,6.2c-1.3,2.3,9.3,1.6,10.9,0.2c1.5-1.4,3-6.8,7.9-10
			C541.9,239.8,529.8,238.7,529.8,238.7z"/>
		<path class="st4" d="M584.9,194.3c0,0-32.6,5.1-36.4,8c-3.8,2.9-15.4,29.4-19.2,36.3c-0.8,1.5,5.8,5.3,8.1,4.6
			c2.3-0.6,14.9-14.9,17.3-18.7c2.7-4.3,3.4-10,4.8-10.2c2.9-0.5,30.9-0.9,35.3-2.6c4.4-1.6,17.5-8.1,17-11.3
			C611.4,197.2,584.9,194.3,584.9,194.3z"/>
		<path class="st20" d="M533,246.7c0,0,1.4,2.9,1.6,4.1c0.2,1.2,1.2,2.5,0,3.4c-1.2,0.9-5.3,2.4-9,5.5c-3.7,3.2-9.5,6.4-13,7.1
			c-3.5,0.7-8.1-0.8-7.8-2.4c0.4-1.6,3.5-3.2,5-3.8c1.5-0.6,9.2-9.8,10.3-11.3c1.1-1.5,2.3-2,3.4-1c1.2,1.1,2.7,1.9,5.3,0.9
			C531.2,248.1,533,246.7,533,246.7z"/>
		<path class="st21" d="M528.7,249.2c-2.6,1.1-4.1,0.2-5.3-0.9c-1.1-1.1-2.3-0.5-3.4,1c-1.1,1.5-8.8,10.8-10.3,11.3
			c-1.5,0.6-4.6,2.2-5,3.8c0,0.1,0,0.2,0,0.2c1.3,1,4.6,1.7,7.2,1.1c3.6-0.8,9.6-4.1,13.3-7.3c3.7-3.2,7.9-4.7,9.2-5.6
			c0.3-0.2,0.5-0.5,0.6-0.7c-0.1-0.5-0.3-0.9-0.4-1.4c-0.2-1.2-1.6-4.1-1.6-4.1S531.2,248.1,528.7,249.2z"/>
		<path class="st22" d="M578.1,200.9c-0.8-1.3-1.9-3.8-2.5-5.1c-9.9,1.7-24.7,4.6-27.2,6.5c-3.8,2.9-15.4,29.4-19.2,36.3
			c-0.3,0.6,0.5,1.5,1.7,2.3c1.8-2.4,3.9-5.4,5.9-7c3.8-3.2,8-9.8,12.1-15.2c4.1-5.4,2.6-10.7,6.7-11.7
			C559.8,206,579.2,202.7,578.1,200.9z"/>
	</g>
	<path class="st14" d="M638.3,181.4c0,0-5.9,3.8-8.5,8.1c-2.6,4.3-2.1,17.8-12.6,24.9c-5.4,3.6-29.7-4.6-29.7-4.6
		c27.8-27.9,30.3-32.8,30-36.9c-0.3-4.1,1.2-5.7,5.8-7.7c4.6-2,8-4,9.7-7.3C634.6,154.8,666.8,155.7,638.3,181.4z"/>
	<path class="st23" d="M651.7,161.4c0,0-1.3-1.6-0.3-6.9c0.9-5.3,1.5-8.1,3-9.7c1.5-1.6-9.6-4.6-10.7-0.8c-1.2,3.8-1.9,4.2-1.7,8.5
		c0.2,4.3-4.1,4.5-5,4.7C635,157.3,628.5,162.1,651.7,161.4z"/>
	<path class="st23" d="M648,137.5c1.9,0.9,3.9,1.6,5.8,1.6c-3.6,8.7-12.2,7.9-12.5,7.9c-0.3,0-0.6-0.1-0.9-0.6
		c-0.3-0.5-0.4-1-0.3-1.3c0.1-0.3,0.3-0.5,0.2-0.6c-0.1,0-0.7-0.3-0.8-0.4c-0.1-0.1-0.2-0.5-0.2-0.5s0.4-0.5,0.4-0.5
		c-0.8-0.4-0.9-0.8-0.9-1c0-0.2,0.2-0.5,0.4-0.8c0.2-0.2,0.1-0.9,0-1.1c-0.1-0.2-0.9-0.5-1-0.8c-0.1-0.2-0.3-0.7-0.2-0.8
		c0.1-0.1,0.4-0.4,1.1-0.9c0.7-0.5,1.5-1.9,1.3-4.2c-0.2-2.3,0.4-2.7,0.8-3.2C641.5,129.8,641.7,134.4,648,137.5z"/>
	<path class="st7" d="M647.7,125.5c1.1-0.2,11.8,0.5,15.7,6.3c3.8,5.7,3.6,12.8-0.3,18.6c-3.8,5.8-9.1,9.8-4.5,14.3
		c14.8,14.7,4.7,16.9,0.7,19.8c-7.8,5.6-22.2,1.1-21.5-3.9c0.8-6.1,15-14.1,9.3-19.6c-4.2-4.1-5.4-5.9-2.6-12.7
		c2.8-6.8,10.5-7.3,6.6-9.7C646.5,135.7,637.9,127,647.7,125.5z"/>
	<path class="st23" d="M646.7,162.9c-3.8-0.1-19.5,17.1-23.9,21.8c-4.5,4.7-8.8,11-3.5,10.4c5.4-0.5,10.4-5.1,14.2-8.3
		c3.9-3.2,9-7.8,11.9-9.9C648.3,174.9,650.4,163.1,646.7,162.9z"/>
	<g>
		<path class="st4" d="M569.4,238.9c0,0,2.4,6.7,2.1,8.9c-0.3,2.2-0.4,3.7,1.6,3.7c1.9,0,5.9-4.3,5.9-5.9c-0.1-1.7-3.5-6.4-3.6-9
			c-0.1-2.6-6.3,3.3-6.3,3.3L569.4,238.9z"/>
		<path class="st20" d="M577,240.6c0,0,2.3,1.8,3.7,2.3c1.5,0.5,3.3,2.4,2.4,5.3c-0.9,2.9-2.9,8.6-3.7,12.4c-0.8,3.7-5.7,9-7,10.1
			c-2,1.6-5.4,0.8-5.8-1.1c-0.4-1.9,1.7-6.6,2.4-9.1c0.6-2.5,1.5-11,1.6-12c0.1-1,3.6-2.5,4.3-1.1c0.7,1.4,2,0.3,2.3-0.6
			C577.5,245.8,577,240.6,577,240.6z"/>
		<path class="st21" d="M581.9,247.6c0.7-2.3-0.3-4-1.5-4.8c-0.3-0.1-0.7-0.3-1-0.5c-0.7-0.3-1.6-0.8-2.4-1.3c0.1,1.1,0.4,5,0.2,5.8
			c-0.2,0.9-1.5,2.1-2.3,0.6c0,0,0,0,0,0c-0.4,0.2-0.9,0.1-1.2-0.6c-1.3,0-3,1-3.1,1.7c-0.1,1-1,9.5-1.6,12
			c-0.6,2.5-2.7,7.2-2.4,9.1c0.1,0.5,0.4,0.9,0.8,1.2c1.2,0.3,2.7,0.2,3.8-0.7c1.2-1,6.2-6.3,7-10.1
			C579,256.2,581,250.5,581.9,247.6z"/>
		<path class="st0" d="M601.6,197.3c-6.3-1.4-34.8-10.4-39.7-7.8c-4.9,2.5-0.5,14.1,19.5,23.7c20,9.6,24.4,9.2,32.7,4.1
			C622.5,212.2,606.3,198.4,601.6,197.3z"/>
		<path class="st0" d="M569,199.7c0,0,9.1,11.9,7.5,22.3c-1.5,10.5-0.5,15.7-0.5,15.7l-6.9,2.1c0,0-12-33.1-12-39.2
			c0-6.1,1.9-12.2,5.8-10.3C566.8,192.3,569,199.7,569,199.7z"/>
		<g>
			<path class="st17" d="M569.1,239.8C569.1,239.9,569.1,239.9,569.1,239.8l6.1-1.8L569.1,239.8z"/>
			<path class="st22" d="M565.7,201.1c3.2,5.1,9.3,12.2,8.8,22.2c-0.5,8.5,0.5,13.5,0.8,14.8l0.9-0.3c0,0-1.1-5.3,0.5-15.7
				c1.5-10.5-8.2-21-8.2-21S563.7,198,565.7,201.1z"/>
		</g>
		<path class="st22" d="M601.6,197.3c-0.3-0.1-0.6-0.1-0.9-0.2c2.3,1.7,5.4,4,6.5,5.1c2,1.9,0.8,4.1-4.1,4.2
			c-4.9,0.1-21.7-3.4-25.9-5.9c-4.3-2.5-12.2-6.1-12.1-3.9c0.1,0.8,2.6,2.5,2.9,3.5c2.1,2.4,1.3,5.8,5.2,8.4
			c2.4,1.5,5.1,3.1,8.2,4.6c20,9.6,24.4,9.2,32.7,4.1c3.1-1.9,5.3-4.1,6.8-6.7C623.6,206.1,606.3,198.4,601.6,197.3z"/>
	</g>
	<g>
		<path class="st9" d="M589.2,190.5c0,0,0.1-0.8-0.5-0.8c-1-0.1-2.9,0.4-3.6,0.6c-0.7,0.3-4.1,2-4.1,2s1.4,0.3,2.7-0.4
			C585.7,190.9,589.2,190.5,589.2,190.5z"/>
		<path class="st9" d="M588.7,190.6c-1.4-0.1-2.8,0.8-4.2,2.2c-1.3,1.4-2.5,1.2-2.5,1.2s0.8-1,3-2.9c0.6-0.5,1.4-1.1,2.1-1.3
			C589.5,189,592.3,191,588.7,190.6z"/>
		<path class="st23" d="M617.8,195.1c-6.8-1.1-17.5-3.4-17.5-3.4s-15.2-1.4-0.1-3.2c3.3-0.4,12-2.1,23.3-0.8
			c1.2,0.1,0.6,0.3,1.7,1.1C627.3,190,623.3,196,617.8,195.1z"/>
		<path class="st23" d="M587.2,191.2l0.1-0.7l2.1-1.3c0,0,4.4-0.5,6.1-0.1c1.7,0.4,8.4-0.6,9.3-0.5c0.8,0.1,2.2,3.8,2.2,3.8
			s-7-0.7-9.8-0.7c-2.8,0-6.8,1.3-7.9,1.3c-1.9,0-2.8,0.2-2.8,0.2s0.1-1,3-1.2c0.8-0.1,0.3-0.9,0.3-0.9L587.2,191.2z"/>
		<path class="st4" d="M590,189.9c0,0-2.3,0.1-3.1,0.8c-0.6,0.5-3.1,3.3-3.1,3.3s1.4-0.2,2.4-1.3C587.7,191.1,590,189.9,590,189.9z"
			/>
		<path class="st9" d="M589.9,191.1c0,0,0.4,0.5,0.3,0.8c0.2-0.1,0.4-0.2,0.5-0.3c0.3-0.2,2.8-0.9,2.8-0.9s-1.9,0.2-2.4,0.1
			c-0.4,0-1.1,0.1-1.8,0.2c-0.1,0-0.2,0.1-0.3,0.1L589.9,191.1z"/>
		<path class="st9" d="M589.6,192c-2,0.2-2.7,0.7-2.9,1c0.5,0,1.2-0.1,2.3-0.1c0.4,0,1.1-0.2,2-0.4c0.2,0,0.1-0.7,1.4-1.5
			c0.2-0.1-1.5,0-2.5,0.3C590.1,191.4,590.2,191.9,589.6,192z"/>
	</g>
	<g>
		<path class="st24" d="M602.2,197.4C602.2,197.4,602.2,197.4,602.2,197.4l0.2-1l-39.1-9.2l-0.2,0.9c0,0,0,0,0,0l0.1,0.2
			c0.3,0.9,1.2,1.3,2.2,1.5l34.1,8c1,0.2,2,0.3,2.7-0.4L602.2,197.4z"/>
		<path class="st25" d="M592.7,195.4C592.7,195.4,592.7,195.4,592.7,195.4l0.1,0.2c0.1,0.2,0.3,0.4,0.5,0.6l5.9,1.4
			c1,0.2,1.9,0.3,2.5-0.2l0.1-0.1c0,0,0,0,0,0l0.1-0.5l-9.1-2.1L592.7,195.4z"/>
		<g>
			
				<rect x="567.8" y="190.9" transform="matrix(0.9736 0.2282 -0.2282 0.9736 58.883 -126.7901)" class="st14" width="20.1" height="0.7"/>
		</g>
		<g>
			<path class="st17" d="M592.8,194.2l-0.6-20.4c0-0.5-0.4-1.1-0.9-1.2l-27.5-6.4c-0.5-0.1-0.9,0.2-0.9,0.8l0.6,20.4L592.8,194.2z"
				/>
			<path class="st24" d="M579.6,180.5c0,1-0.7,1.7-1.7,1.5c-1-0.2-1.8-1.3-1.8-2.3c0-1,0.7-1.7,1.7-1.5
				C578.8,178.4,579.6,179.4,579.6,180.5z"/>
		</g>
	</g>
</g>
<g>
	<g>
		<path class="st2" d="M428.2,72.9c-5,1.2-14.1,5.7-16,13.3c-2.9,11.4,2.9,28.1-6.2,44.5c-2.9,5.2,50.2,12.2,50.2,12.2l10.2-57.6
			c0,0-12.8-12.5-15.4-13.3C445.6,70.3,438,70.5,428.2,72.9z"/>
		<g>
			<path class="st26" d="M466.5,85.4c1.8,4.6,6.5,32,1.3,38.4c-0.6,0.7,2.7,1.9,2.1,5.3c-0.1,0.6-1.1,3.3-1.1,3.3l-4.2,1.1
				l-12.8-7.3l2.5-3l1.2,0c0,0,1.1-1,0.8-2.3c-0.3-1.2,2.9-3.3,7.8-24.5C465.4,90.2,466.1,84.4,466.5,85.4z"/>
			<path class="st27" d="M461.5,122.5l-3.8-0.8l-1.5-0.2c0,1-0.8,1.8-0.8,1.8l2.9,0.1l3.4,0.7l4.2,2.4L461.5,122.5z"/>
		</g>
		<path class="st28" d="M456.1,126.1c0,0,2.9,0,5.4,1.5c1.9,1.2,3.6,3.7,1.9,5.1c-1.7,1.4-4.4,2.7-4.4,2.7S452.3,135.5,456.1,126.1z
			"/>
		<path class="st29" d="M463.4,132.7l-1.8-0.4c0,0-6.2-0.6-7-0.1c-0.9,0.5-3.7,2.4-3.7,2.4l-0.6,0.5c0,0,1.4,0.9,3.2-0.4
			c1.9-1.3,2-0.3,2-0.3l-0.3,1.6l0,2.1l-0.3,0.9c0,0-0.3,0.5-0.1,0.7c0.6,0.5,1.2,0.3,1.2,0.3l1.9-3.3l0.5,3.6c0,0,0.3,0.5,0.8,0.6
			c0.5,0.1,0.6,0,0.6,0l0.4-0.9c0,0.2,0.1,0.4,0.4,0.6c0.5,0.4,1.1,0.3,1.1,0.3l-0.2-3.7l0.8,1.9c0,0,0.3,0.5,0.8,0.6
			c0.6,0.1,0.8,0.2,0.8,0.2L463.4,132.7z"/>
		<g>
			<g>
				<path class="st4" d="M431.6,118.1c0,0,4.5,11.3,15.2,14.3c1.9,0.5,3,2.5,2.1,3.2c-1.1,0.8-2.7,1-5.4,1c-5.6,0-13.2-1.8-18.5-6.9
					c-7.8-7.6-10.3-11-9.5-14.8C416.2,111.1,431.6,118.1,431.6,118.1z"/>
				<path class="st26" d="M413.7,82.4c-2.3,3.7-3.6,9.7-3.6,18.3c0,6.6,5.7,17.5,6.6,20.9c0.2,0.6,0.5,2.9,0.5,2.9l6.3,6.2l12.7-8.6
					l-3.9-5.9l-1.2,0.1c0,0-0.7-3.3-0.5-4.6c0.2-1.3-3.5-18.4-5.4-29.4C424.3,76,415.9,78.7,413.7,82.4z"/>
				<path class="st2" d="M425.1,116.1l3.7-1.1l1.5-0.4c0.1,1,1,1.7,1,1.7l-2.9,0.3l-3.4,1l-3.9,2.7L425.1,116.1z"/>
			</g>
			<path class="st4" d="M445.9,132.4l6.5-1.8c0,0,1.8,2.5,1.5,3.1c-0.3,0.6,0,4.3,0,4.3l-3.1,2.7l-2.6-0.9c0,0-0.2-1.1,0.7-1.2
				c0.9-0.1-0.6-0.7-1-1C447.4,137.3,443.6,135.4,445.9,132.4z"/>
		</g>
		<path class="st29" d="M436,72.4c-0.7,2.1,0.4,4.3,2.4,5.1l3.7,1.3c2.1,0.7,4.3-0.4,5.1-2.4l3.3-9.4c0.7-2.1-0.4-4.3-2.4-5.1
			l-3.7-1.3c-2.1-0.7-4.3,0.4-5.1,2.4L436,72.4z"/>
		<g>
			<path class="st4" d="M452.1,80.6c-0.4,1.4-1.8,2.2-3.1,1.8l-11.1-3.1c-1.4-0.4-2.2-1.8-1.8-3.1l4.5-16.4c0.4-1.4,1.8-2.2,3.1-1.8
				l11.1,3.1c1.4,0.4,2.2,1.8,1.8,3.1L452.1,80.6z"/>
			<path class="st6" d="M455.7,67.6c0,0,1.9-1.2,2.5-2.1c0.3-0.5,0.3-2.5-0.7-3.5c-1-1.1-2.4,0-2.4,0s1.7,1.6,1.7,2.1
				C456.6,64.5,455.7,67.6,455.7,67.6z"/>
			<path class="st7" d="M437.4,66.8c0,0,0.1-6.8,0.9-8.5c0.8-1.8,1.4-3,3.7-2.6c3.5,0.6,3.3,1.4,5.2,0.8c1.9-0.6,5.6-2.2,6.7-2.2
				c1.8,0.1,4.3,1.4,3.5,4.6c-0.6,2.4,0.8,3.4,0.7,3.4c-0.2,0.3-0.9,0.4-2.1,0.6c-3.5,0.7-5.5,0.5-7.6-0.8c-2.2-1.3-6.2-3.8-7.2-2.2
				c-1,1.6-2.3,7-2.6,7.4C438.2,67.6,437.7,67.3,437.4,66.8z"/>
			<path class="st4" d="M439.5,72.7c-0.1,0.5-0.6,0.7-1.1,0.6l-2.4-0.7c-0.5-0.1-0.7-0.6-0.6-1.1l1.2-4.4c0.1-0.5,0.6-0.7,1.1-0.6
				l2.4,0.7c0.5,0.1,0.7,0.6,0.6,1L439.5,72.7z"/>
			<path class="st4" d="M453.8,76.7c-0.1,0.5-0.6,0.7-1.1,0.6l-2.4-0.7c-0.5-0.1-0.7-0.6-0.6-1.1l1.2-4.4c0.1-0.5,0.6-0.7,1-0.6
				l2.4,0.7c0.5,0.1,0.7,0.6,0.6,1.1L453.8,76.7z"/>
			<path class="st7" d="M438,68.6c0,0-1.8,6.5-2.4,8.6c-0.5,2-0.9,6.5,10.1,9.5c6.5,1.8,7.6-3.1,8-4.6c0.3-1.2,0-5.2-0.5-6
				c0,0-0.7,2.7-0.7,2.7s-0.6-3-3.7-3.8c-5-1.4-6.9,1.2-9.1,0.6C438,74.9,437.4,71.8,438,68.6z"/>
			<path class="st4" d="M445.6,78.5l3.4,0.9c0.4,0.1,0.9-0.1,1-0.6l0.1-0.5l-5.1-1.4l-0.1,0.5C444.8,77.9,445.1,78.4,445.6,78.5z"/>
		</g>
	</g>
	<path class="st30" d="M499.7,144.2c-1.6,4.4-29.3,20.5-38.6,19.5l-28,1.3c-23.8-2.9-35.1-39.9-35.1-39.9c0.9-9.3,24.4,4.2,32.7,8.3
		c13.2,6.6,21.6,6.9,21.6,6.9c8.9,0.9,19.1-5.9,30.3-6.2C495,134,502.2,137.3,499.7,144.2z"/>
	<g>
		<path class="st17" d="M438.8,139.8C438.8,139.8,438.8,139.8,438.8,139.8l0-1.2l48.2-0.9l0,1.2c0,0,0,0,0,0l-0.1,0.2
			c-0.6,1-1.7,1.2-3,1.2l-41.9,0.8c-1.3,0-2.4-0.1-3-1.1L438.8,139.8z"/>
		<path class="st4" d="M450.5,139.8C450.5,139.8,450.5,139.8,450.5,139.8l-0.1,0.2c-0.2,0.3-0.4,0.5-0.7,0.6l-7.3,0.1
			c-1.2,0-2.3-0.1-2.9-0.9l-0.1-0.2c0,0,0,0,0,0l0-0.6l11.2-0.2L450.5,139.8z"/>
		<g>
			
				<rect x="456.9" y="138.3" transform="matrix(-0.9998 1.833923e-02 -1.833923e-02 -0.9998 940.4192 268.7871)" class="st31" width="24.1" height="0.8"/>
		</g>
		<g>
			<path class="st17" d="M450.7,138.3l5.8-23.8c0.2-0.6,0.8-1.1,1.4-1.2l33.8-0.6c0.6,0,1,0.5,0.9,1.1l-5.8,23.8L450.7,138.3z"/>
		</g>
	</g>
	<g>
		<path class="st4" d="M428.9,171.2c3.3,0.6,5.9-3.3,5.9-3.3l8.6-6.8l-1.8-4.6l-16.8,7.5C424.8,164.1,425.6,170.6,428.9,171.2z"/>
		<path class="st26" d="M434.8,167.7c0,0,0,0.4-0.6,2.2c-0.6,1.8-1.4,2.4-2.3,2.6c-3.2,0.9-5.5,0.5-13.3,2
			c-7.7,1.5-10.1,0.4-12.3-3.2c-2.3-3.6,0.1-6.4,3.9-6.7c5.5-0.4,8.5,0.2,11.3-0.2c3-0.5,3.2-1.1,4.9-2.2c1.6-1,3.1,5,1.6,6.4
			C426.6,169.7,433.6,169.9,434.8,167.7z"/>
		<path class="st3" d="M433.1,171.1c-3.2,0.9-5.5,0.5-13.3,2c-7.7,1.5-10,0.4-12.3-3.2c-1-1.6-1.1-3.1-0.5-4.3
			c-1.7,1.2-2.3,3.2-0.8,5.6c2.3,3.6,4.6,4.7,12.3,3.2c7.7-1.5,10-1,13.3-2c0.6-0.2,1.3-0.6,1.8-1.6
			C433.5,171,433.3,171,433.1,171.1z"/>
		<path class="st4" d="M434.8,167.8c0-0.1,0-0.1,0-0.1C434.8,167.7,434.7,167.7,434.8,167.8C434.7,167.8,434.8,167.8,434.8,167.8z"
			/>
		<g>
			<path class="st3" d="M418.1,170.4c-0.2,0.1-0.5-0.4-0.5-1c-0.2-1.3-0.4-2.7-0.9-4c-0.2-0.7-0.2-1.2,0.1-1.3
				c0.3-0.1,0.7,0.4,0.9,1c0.4,1.3,0.7,2.6,0.8,3.9C418.5,169.7,418.3,170.3,418.1,170.4z"/>
			<path class="st3" d="M420.5,170c-0.3,0.1-0.5-0.4-0.6-1c-0.1-1.2-0.4-2.5-0.9-3.8c-0.2-0.6-0.2-1.1,0.1-1.2c0.3,0,0.7,0.4,0.9,1
				c0.4,1.2,0.7,2.5,0.8,3.7C420.9,169.4,420.7,169.9,420.5,170z"/>
			<path class="st3" d="M423,169.9c-0.3,0-0.5-0.5-0.6-1.1c-0.2-1.3-0.5-2.6-1-3.9c-0.2-0.6-0.2-1.2,0.1-1.2c0.3,0,0.8,0.5,1,1.1
				c0.5,1.3,0.8,2.6,1,3.8C423.4,169.3,423.3,169.9,423,169.9z"/>
		</g>
	</g>
	<path class="st32" d="M429.5,160.1c0,0,59.2-24.3,62.6-24.4c11.4-0.1,8.8,11.5,3,16.9c-6.8,6.4-58.8,18.2-58.8,18.2L429.5,160.1z"
		/>
	<g>
		<polygon class="st4" points="453,164.4 436.8,149.1 443.7,142.2 461.3,160.8 		"/>
		<path class="st33" d="M456.3,152.3c0,0-41.1-37.7-43.9-38.8c-9.4-3.8-15.2,6.6-14.9,10.1c0.4,4.6,42.2,42.4,42.2,42.4L456.3,152.3
			z"/>
		<g>
			<path class="st26" d="M480.7,165.6c1,0.9,1.1,3.5,1.1,3.5s-13.7,5.2-18.5,5.3c-1.2,0-3.5-0.5-5.7-1.1c-0.4-0.1-1.2-1-1.6-1.1
				c-0.7-0.2-0.8,0.4-1.4,0.3c-1.5-0.5-2.5-0.9-2.5-0.9c-2.9-6.2-1.9-9.2-1.9-9.2s6.3,1.8,5.2,0.4c-2.3-3,4.3-6.1,5.8-4.5
				C467.1,164.6,477.9,163,480.7,165.6z"/>
			<path class="st3" d="M481.4,166.8c-4.2,1.7-13.1,5.1-14.8,5.3c-7.2,0.5-12.3-2.1-15.6-3.6c0.3,0.9,0.7,1.8,1.2,2.9
				c0,0.1,1.1,0.5,2.5,0.9c0.6,0.2,0.7-0.5,1.4-0.3c0.4,0.1,1.2,1,1.6,1.1c2.2,0.6,4.4,1.1,5.7,1.1c4.8-0.1,18.5-5.3,18.5-5.3
				S481.8,167.9,481.4,166.8z"/>
			<g>
				<path class="st3" d="M471.7,162.9c0.1,0.2-0.4,0.5-1.2,0.7c-1.6,0.3-3.1,0.8-4.6,1.4c-0.7,0.3-1.4,0.4-1.5,0.1
					c-0.1-0.3,0.4-0.8,1.2-1.1c1.5-0.6,3-1,4.6-1.4C470.9,162.5,471.6,162.6,471.7,162.9z"/>
				<path class="st3" d="M468.7,161.8c0.1,0.2-0.4,0.6-1.2,0.8c-1.5,0.4-3,1-4.5,1.8c-0.7,0.4-1.4,0.5-1.5,0.2
					c-0.1-0.3,0.4-0.8,1.1-1.2c1.5-0.7,2.9-1.3,4.4-1.7C467.8,161.4,468.5,161.5,468.7,161.8z"/>
				<path class="st3" d="M465.7,160.8c0.1,0.3-0.4,0.6-1.1,0.9c-1.5,0.6-2.9,1.3-4.3,2.1c-0.7,0.4-1.3,0.6-1.4,0.3
					c-0.1-0.3,0.4-0.9,1.1-1.3c1.4-0.8,2.8-1.5,4.3-2C464.9,160.5,465.6,160.6,465.7,160.8z"/>
			</g>
		</g>
	</g>
</g>
<g>
	<g>
		<polygon class="st17" points="794.5,712.9 797.4,712.9 730.1,462 727.3,462 		"/>
		<polygon class="st17" points="754.9,712.9 757.8,712.9 690.6,462 687.7,462 		"/>
		<polygon class="st17" points="732.9,477.6 732.1,474.7 691.6,474.7 692.4,477.6 		"/>
		<polygon class="st17" points="738.8,499.6 738,496.8 697.5,496.8 698.3,499.6 		"/>
		<polygon class="st17" points="744.7,521.7 743.9,518.8 703.4,518.8 704.2,521.7 		"/>
		<polygon class="st17" points="750.6,543.8 749.8,540.9 709.3,540.9 710.1,543.8 		"/>
		<polygon class="st17" points="756.5,565.8 755.7,562.9 715.2,562.9 716,565.8 		"/>
		<polygon class="st17" points="762.4,587.9 761.7,585 721.1,585 721.9,587.9 		"/>
		<polygon class="st17" points="768.3,610 767.6,607.1 727.1,607.1 727.8,610 		"/>
		<polygon class="st17" points="774.2,632 773.5,629.1 733,629.1 733.7,632 		"/>
		<polygon class="st17" points="780.2,654.1 779.4,651.2 738.9,651.2 739.7,654.1 		"/>
		<polygon class="st17" points="786.1,676.1 785.3,673.3 744.8,673.3 745.6,676.1 		"/>
		<polygon class="st17" points="792,698.2 791.2,695.3 750.7,695.3 751.5,698.2 		"/>
	</g>
</g>
<g>
	<path class="st8" d="M749.2,579.8c-0.5-0.4-0.3-1.8-0.3-1.8s7-1.6,9.3-1.4c0.6,0.1,1.7,0.5,2.7,0.9c0.2,0.1,0.5,0.6,0.7,0.6
		c0.3,0.1,0.4-0.2,0.7,0c0.7,0.3,1.2,0.6,1.2,0.6c1,3.2,0.3,4.6,0.3,4.6s-5.6,2.5-7.1,1.4C752.9,582.1,750.2,580.7,749.2,579.8z"/>
	<path class="st8" d="M732.6,574.5l0.7,5.3l-5.1,1.7c0,0-0.5-0.6-0.9-0.5c-0.4,0.1-0.6,1-1.1,1.2c-1.1,0.4-2.3,0.7-2.8,0.9
		c-1,0.3-10.3,3.4-10.3,3.4s-0.6-1-0.4-1.4c0.1-0.2,0.8-0.8,1.3-1.2c2.4-1.6,9.2-6.4,9.7-9.4C724.3,570.9,732.6,574.5,732.6,574.5z"
		/>
	<path class="st4" d="M722.1,402.5l0.6-6.5c0,0-4.5-1-4.6-3.6c-0.3-5.2,3.4-12.3,5-14.1c4.7-5.1,9.1-15.3,20.4-2.8
		c4.3,4.7-8.4,17.8-10,20.9c-1.6,3.2-1,7.5-1,7.5l-3.9,1.5L722.1,402.5z"/>
	<path class="st9" d="M751.8,445.2l-26.7,8.8c0,0,16.1,3,29.3-0.4C767.6,450.3,753.1,445.3,751.8,445.2z"/>
	<path class="st6" d="M742.9,511.5c0,0-10.3,13.9-5.9,25.3c7.8,20.2,14,36.3,16.6,43.1c1,2.6,1.7,2,1.7,2l5.9,0l2.5-2.7l-14-46.6
		L742.9,511.5z"/>
	<path class="st4" d="M680.7,402.2l-17.4-19.5c0,0,7.4,27.5,16.5,29.4C688.9,414,680.7,402.2,680.7,402.2z"/>
	<path class="st17" d="M733.3,403.3c0,0,5.9-0.9,18,20.5c12.1,21.4,9.7,21.3,9.7,21.3l1.4,5.4l-8.2,4.2L742,437L733.3,403.3z"/>
	<path class="st6" d="M713.4,474.1c0,0,12.7,45,28.4,70.3c8.4,13.5,7.2-6.3,7.2-6.3l-15.3-81.2l-28.2-0.3
		C705.5,456.6,708.6,460.2,713.4,474.1z"/>
	<path class="st6" d="M732.1,471.1c0,0-20.9,46.5-21.9,49.8c-4.7,16.1-12.2-3.2-12.7-7.1c-0.5-3.9,0.3-23.9,4.9-43.2
		c4.6-19.4,4.6-19.4,4.6-19.4L732.1,471.1z"/>
	<path class="st6" d="M710.5,512.1c0,0,4.2,7.7,8.8,17.8c3.4,7.4,10.7,29.4,14.3,45.1c0.2,1-10.4,1.3-10.4,1.3s-17.6-41.6-21.6-50.9
		C697.6,516.1,702.1,507.2,710.5,512.1z"/>
	<path class="st17" d="M742,409.7l-7.2-7l-3.1-3.8l-12.8-1.3l-2.5,4l-10.3,4.1c0,0-2.8,4.2-1.8,20.5c1,18.1-7.1,43.2-3.3,45.7
		c24.3,16.8,36.3,2.5,36.3,2.5S748.1,439.8,742,409.7z"/>
	<path class="st17" d="M723.8,407.4c0,0,1.5,3-6.7,5.7c-14.1,4.6-29.1,3.7-32,3.6c-2.9-0.1-7-0.3-10-5.5c-2.3-4-3-5.3-3-5.3l7.8-5.9
		l1.9,2.1l0.8,1.3c0,0,10.8-1,20.9-2C726.9,399,723.8,407.4,723.8,407.4z"/>
	<path class="st7" d="M726.5,381.2c0,0,1.8-0.5,1.7,0.8c-0.1,1.3-1.7,3.6-2.5,3.7c-0.8,0-2,3.2-2,3.2l0.8,4.2l9.7,2.9
		c0,0,3.4-0.4,4.3-2.5c0.9-2.1,7.8-16.6,7.8-16.6l-5.7-5.6c0,0-3.1-2.9-5.4-4.3c-3.5-2.3-4.9-0.4-5.1,0.7c-0.2,1.1-1.4,0.9-3,0.4
		c-1.6-0.5-3.8,0.2-3.2,1.1c0.3,0.4-1.6,0.9-1.3,2.2c0.4,1.9,3.2,3.3,2.6,6C724.9,378.5,724.2,382.6,726.5,381.2z"/>
	<path class="st4" d="M664.6,388.2c0,0,3.9-2,4.2-3.3c0.2-1.2,0.8-5.9,0.8-5.9l0-1.2c0,0-1.3-0.8-1.6,2.3c-0.4,3.1-1,1.5-1,1.5
		l-0.7-3l-1.2-3.5l-0.3-1.6c0,0-0.1-0.9-0.3-1.1c-0.6-0.6-0.8,0.1-0.8,0.1l0.7,6.5l-2.3-5.8c0,0-0.4-0.7-0.8-0.6
		c-0.4,0.1-0.3,0.3-0.3,0.3l1.1,7.2l-1.5-2.9c0,0-0.4-0.7-0.8-0.6c-0.4,0.1-0.6,0.1-0.6,0.1l4.4,11.8L664.6,388.2z"/>
</g>
<g>
	<path class="st2" d="M237.8,352.2h-49.5c-13.7,0-24.7,11.1-24.7,24.7c0,13.2,10.3,23.9,23.3,24.7v20.5l20.4-20.4h30.6
		c13.7,0,24.8-11.1,24.8-24.8C262.5,363.3,251.4,352.2,237.8,352.2z"/>
	<g>
		<g>
			<path class="st3" d="M227.1,369.6h-12c0.6-1.3,1.3-3,1.4-3.9c0.2-0.9,0-2.9,0-2.9c0-1.6-1.3-2.8-2.8-2.8h-1.4v4.3
				c0,0-4.9,5.7-4.9,8.1V386c0,1.6,1.3,2.8,2.8,2.8h9.8c1.5,0,3.3-1.3,3.8-2.8l5-13.7C229.4,370.8,228.6,369.6,227.1,369.6z"/>
			<rect x="205.4" y="371.8" class="st3" width="3.7" height="15.3"/>
			<rect x="194.5" y="369.6" class="st3" width="6.7" height="19.3"/>
		</g>
	</g>
</g>
<path class="st34" d="M140.6,193.4c-5.1,0-9.2,4.1-9.2,9.2c0,5.1,9.2,15.8,9.2,15.8s9.2-10.7,9.2-15.8
	C149.8,197.5,145.7,193.4,140.6,193.4z M140.6,206.6c-2.2,0-4-1.8-4-4c0-2.2,1.8-4,4-4c2.2,0,4,1.8,4,4
	C144.5,204.8,142.7,206.6,140.6,206.6z"/>
<path class="st4" d="M210.8,237.8h-47.1c-2.9,0-5.2,2.3-5.2,5.2v34c0,2.9,2.3,5.2,5.2,5.2h5.2v10.5l11.8-10.5h30.1
	c2.9,0,5.2-2.3,5.2-5.2v-34C216,240.2,213.7,237.8,210.8,237.8z"/>
<g>
	<polygon class="st35" points="100.5,359.2 106.5,365.2 106.5,350.2 100.5,356.2 	"/>
	<path class="st35" d="M97.5,347.3H82.6c-1.6,0-3,1.3-3,3v14.9c0,1.7,1.3,3,3,3h14.9c1.6,0,3-1.3,3-3v-14.9
		C100.5,348.6,99.2,347.3,97.5,347.3z M90.8,359.7l-2.5,2v-3.9v-3.9l2.5,2l2.5,2L90.8,359.7z"/>
</g>
<g>
	<g>
		<g>
			<circle class="st36" cx="147.1" cy="313.3" r="17.4"/>
		</g>
		<path class="st37" d="M163,306.3c0.2,1.1,0.3,2.3,0.3,3.5c0,9.8-8,17.8-17.8,17.8c-5.9,0-11.2-2.9-14.4-7.3
			c2.7,6.1,8.8,10.4,15.9,10.4c9.6,0,17.4-7.8,17.4-17.4C164.5,310.8,164,308.4,163,306.3z"/>
	</g>
	<g>
		<path class="st6" d="M147.1,322.7c-3.9,0-7.6-1.6-10.2-4.3l0.9-0.9c2.4,2.5,5.8,4,9.3,4c3.5,0,7-1.4,9.3-4l0.9,0.9
			C154.7,321.2,151,322.7,147.1,322.7z"/>
	</g>
	<g>
		<g>
			<circle class="st6" cx="141" cy="310.1" r="2.6"/>
		</g>
		<g>
			<circle class="st6" cx="153.1" cy="310.1" r="2.6"/>
		</g>
	</g>
</g>
<g>
	<circle class="st14" cx="241.1" cy="187.3" r="27.8"/>
	<g>
		<path class="st3" d="M253.5,181h-9.8c0.5-1.1,1-2.5,1.2-3.2c0.1-0.7,0-2.4,0-2.4c0-1.3-1-2.3-2.3-2.3h-1.2v3.6c0,0-4,4.7-4,6.6
			v11.2c0,1.3,1,2.3,2.3,2.3h8c1.3,0,2.7-1,3.1-2.3l4.1-11.2C255.4,182,254.8,181,253.5,181z"/>
		<rect x="235.8" y="182.8" class="st3" width="3.1" height="12.6"/>
		<rect x="226.8" y="181" class="st3" width="5.5" height="15.8"/>
	</g>
</g>
<g>
	<path class="st14" d="M137.9,244.8c0,8-6.5,14.4-14.4,14.4c-8,0-14.4-6.5-14.4-14.4c0-8,6.5-14.4,14.4-14.4
		C131.4,230.4,137.9,236.9,137.9,244.8z"/>
	<g>
		<path class="st3" d="M129.9,241.6h-5.1c0.2-0.6,0.5-1.3,0.6-1.6c0.1-0.4,0-1.2,0-1.2c0-0.7-0.5-1.2-1.2-1.2h-0.6v1.8
			c0,0-2.1,2.4-2.1,3.4v5.8c0,0.7,0.5,1.2,1.2,1.2h4.2c0.7,0,1.4-0.5,1.6-1.2l2.1-5.8C130.9,242.1,130.6,241.6,129.9,241.6z"/>
		<rect x="120.7" y="242.5" class="st3" width="1.6" height="6.5"/>
		<rect x="116.1" y="241.6" class="st3" width="2.8" height="8.2"/>
	</g>
</g>
<g>
	<g>
		<g>
			<path class="st36" d="M273,215.1c0,7.1-5.8,12.9-12.9,12.9c-7.1,0-12.9-5.8-12.9-12.9c0-7.1,5.8-12.9,12.9-12.9
				C267.2,202.2,273,208,273,215.1z"/>
		</g>
		<path class="st37" d="M271.9,209.9c0.2,0.8,0.3,1.7,0.3,2.6c0,7.3-5.9,13.2-13.2,13.2c-4.4,0-8.3-2.1-10.7-5.4
			c2,4.5,6.5,7.7,11.8,7.7c7.1,0,12.9-5.8,12.9-12.9C273,213.3,272.6,211.5,271.9,209.9z"/>
	</g>
	<g>
		<path class="st6" d="M260.1,222.1c-2.9,0-5.7-1.2-7.6-3.2l0.7-0.6c1.8,1.9,4.3,2.9,6.9,2.9c2.6,0,5.2-1.1,6.9-2.9l0.7,0.6
			C265.7,220.9,263,222.1,260.1,222.1z"/>
	</g>
	<g>
		<g>
			<g>
				<path class="st6" d="M266.7,212.7h-0.9c0-0.8-0.7-1.5-1.5-1.5c-0.8,0-1.5,0.7-1.5,1.5h-0.9c0-1.3,1.1-2.4,2.4-2.4
					C265.6,210.3,266.7,211.4,266.7,212.7z"/>
			</g>
		</g>
		<g>
			<g>
				<path class="st6" d="M258.3,212.7h-0.9c0-0.8-0.7-1.5-1.5-1.5c-0.8,0-1.5,0.7-1.5,1.5h-0.9c0-1.3,1.1-2.4,2.4-2.4
					C257.2,210.3,258.3,211.4,258.3,212.7z"/>
			</g>
		</g>
	</g>
</g>
<g>
	<circle class="st1" cx="612.1" cy="32.4" r="12.8"/>
	<path class="st3" d="M617,28.9c-1.2-1.2-3-1.2-4.2,0l-0.7,0.7l-0.7-0.7c-1.2-1.2-3-1.2-4.2,0c-1.1,1.2-1.1,3,0,4.2l0.7,0.7l0,0
		l4.2,4.2l4.2-4.2l0,0l0.7-0.7C618.1,31.9,618.1,30.1,617,28.9z"/>
</g>
<g>
	<circle class="st1" cx="541.2" cy="61.1" r="25.7"/>
	<path class="st3" d="M551,54.1c-2.3-2.3-6-2.3-8.3,0l-1.4,1.4l-1.4-1.4c-2.3-2.3-6-2.3-8.3,0c-2.3,2.3-2.3,6,0,8.3l1.4,1.4l0,0
		l8.3,8.3l8.3-8.3l0,0l1.4-1.4C553.3,60.2,553.3,56.4,551,54.1z"/>
</g>
<g>
	<circle class="st14" cx="522.3" cy="86.9" r="12.8"/>
	<g>
		<path class="st3" d="M528,84h-4.5c0.2-0.5,0.5-1.1,0.5-1.5c0.1-0.3,0-1.1,0-1.1c0-0.6-0.5-1.1-1.1-1.1h-0.5V82c0,0-1.9,2.2-1.9,3
			v5.2c0,0.6,0.5,1.1,1.1,1.1h3.7c0.6,0,1.2-0.5,1.4-1.1l1.9-5.2C528.9,84.5,528.6,84,528,84z"/>
		<rect x="519.8" y="84.9" class="st3" width="1.4" height="5.8"/>
		<rect x="515.7" y="84" class="st3" width="2.5" height="7.3"/>
	</g>
</g>
<g>
	<g>
		<g>
			<g>
				<circle class="st36" cx="661.3" cy="45.3" r="15.6"/>
			</g>
			<path class="st37" d="M675.6,39.1c0.2,1,0.3,2.1,0.3,3.1c0,8.8-7.1,15.9-15.9,15.9c-5.3,0-10-2.6-12.9-6.6
				c2.4,5.5,7.9,9.3,14.2,9.3c8.6,0,15.6-7,15.6-15.6C676.9,43.1,676.4,41,675.6,39.1z"/>
		</g>
		<g>
			<g>
				<g>
					<path class="st6" d="M669.3,42.4h-1.1c0-1.1-0.9-2.5-1.8-2.5c-0.9,0-1.8,1.5-1.8,2.5h-1.1c0-1.7,1.3-3.6,2.9-3.6
						C668,38.8,669.3,40.8,669.3,42.4z"/>
				</g>
			</g>
			<g>
				<g>
					<path class="st6" d="M659.2,42.4h-1.1c0-1.1-0.9-2.5-1.8-2.5c-0.9,0-1.8,1.5-1.8,2.5h-1.1c0-1.7,1.3-3.6,2.9-3.6
						C657.9,38.8,659.2,40.8,659.2,42.4z"/>
				</g>
			</g>
		</g>
	</g>
	<path class="st6" d="M661.3,48.8c-3.8,0-7.3-0.4-10.4-1.2c1,4.8,5.3,8.4,10.4,8.4c5.1,0,9.4-3.6,10.4-8.4
		C668.6,48.3,665.1,48.8,661.3,48.8z"/>
	<path class="st38" d="M650.9,47.6c0.2,0.8,0.5,1.6,0.8,2.4c2.8,0.8,6.1,1.3,9.6,1.3c3.5,0,6.7-0.5,9.6-1.3c0.4-0.8,0.7-1.6,0.8-2.4
		c-3.1,0.8-6.6,1.2-10.4,1.2C657.6,48.8,654.1,48.3,650.9,47.6z"/>
	<path class="st39" d="M667.3,54.1c-1.7-1.1-3.7-1.8-5.9-1.8c-2.2,0-4.2,0.7-5.9,1.8c1.7,1.1,3.7,1.8,5.9,1.8
		C663.5,55.9,665.6,55.3,667.3,54.1z"/>
	<g>
		<path class="st6" d="M661.3,56.5c-5.2,0-9.8-3.7-10.9-8.8c0-0.2,0-0.4,0.2-0.5c0.1-0.1,0.3-0.2,0.5-0.1c6.3,1.6,14.2,1.6,20.5,0
			c0.2,0,0.4,0,0.5,0.1c0.1,0.1,0.2,0.3,0.2,0.5C671.2,52.8,666.6,56.5,661.3,56.5z M651.7,48.3c1.3,4.1,5.2,7.1,9.6,7.1
			c4.4,0,8.3-2.9,9.6-7.1c-3,0.7-6.3,1-9.6,1C658,49.3,654.7,49,651.7,48.3z"/>
	</g>
</g>
<g>
	<g>
		<g>
			<circle class="st36" cx="585.9" cy="84.4" r="11.9"/>
		</g>
		<path class="st37" d="M596.8,79.6c0.2,0.8,0.2,1.6,0.2,2.4c0,6.7-5.5,12.2-12.2,12.2c-4,0-7.6-2-9.9-5c1.9,4.2,6,7.1,10.9,7.1
			c6.6,0,11.9-5.3,11.9-11.9C597.8,82.7,597.5,81.1,596.8,79.6z"/>
	</g>
	<g>
		<path class="st6" d="M585.9,91.4c-1.8,0-3.6-0.5-5.1-1.4l0.4-0.7c2,1.3,4.5,1.6,6.9,1c2.4-0.6,4.4-2.1,5.5-4.2l0.7,0.4
			c-1.3,2.3-3.5,4-6,4.6C587.5,91.3,586.7,91.4,585.9,91.4z"/>
	</g>
	<g>
		<g>
			<path class="st6" d="M583.5,82.2c0,1-0.8,1.8-1.8,1.8c-1,0-1.8-0.8-1.8-1.8c0-1,0.8-1.8,1.8-1.8
				C582.7,80.4,583.5,81.2,583.5,82.2z"/>
		</g>
	</g>
	<g>
		<g>
			<path class="st6" d="M592.8,83.7c0,0-0.1,0-0.1,0l-3.3-1.1c-0.2-0.1-0.3-0.2-0.3-0.4c0-0.2,0.1-0.3,0.3-0.4l3.2-1.1
				c0.2-0.1,0.5,0.1,0.5,0.3c0.1,0.2,0,0.5-0.3,0.5l-2,0.7l2.1,0.7c0.2,0.1,0.3,0.3,0.3,0.5C593.1,83.6,593,83.7,592.8,83.7z"/>
		</g>
	</g>
</g>
<g>
	<circle class="st14" cx="744" cy="18.8" r="18.8"/>
	<g>
		<path class="st3" d="M752.4,14.5h-6.6c0.3-0.7,0.7-1.7,0.8-2.1c0.1-0.5,0-1.6,0-1.6c0-0.9-0.7-1.6-1.6-1.6h-0.8v2.4
			c0,0-2.7,3.2-2.7,4.5v7.6c0,0.9,0.7,1.6,1.6,1.6h5.4c0.9,0,1.8-0.7,2.1-1.6l2.8-7.6C753.7,15.2,753.2,14.5,752.4,14.5z"/>
		<rect x="740.4" y="15.8" class="st3" width="2.1" height="8.5"/>
		<rect x="734.3" y="14.5" class="st3" width="3.7" height="10.7"/>
	</g>
</g>
<g>
	<path class="st4" d="M728.9,91.4c-2.7,0-5.2,1.4-6.7,3.4l-13-8.1c0.2-0.7,0.3-1.4,0.3-2.2c0-0.8-0.1-1.5-0.3-2.2l13-8.1
		c1.5,2.1,3.9,3.4,6.7,3.4c4.6,0,8.3-3.7,8.3-8.3c0-4.6-3.7-8.3-8.3-8.3c-4.6,0-8.3,3.7-8.3,8.3c0,0.3,0.1,0.6,0.1,1l-13.6,8.5
		c-1.5-1.5-3.6-2.5-5.9-2.5c-4.6,0-8.3,3.7-8.3,8.3c0,4.6,3.7,8.3,8.3,8.3c2.3,0,4.4-1,5.9-2.5l13.6,8.5c0,0.3-0.1,0.6-0.1,1
		c0,4.6,3.7,8.3,8.3,8.3c4.6,0,8.3-3.7,8.3-8.3C737.2,95.1,733.5,91.4,728.9,91.4z"/>
	<path class="st4" d="M728.9,65.1c2.3,0,4.2,1.9,4.2,4.2c0,2.3-1.9,4.2-4.2,4.2c-2.3,0-4.2-1.9-4.2-4.2
		C724.7,66.9,726.6,65.1,728.9,65.1z"/>
	<path class="st4" d="M701.2,88.6c-2.3,0-4.2-1.9-4.2-4.2c0-2.3,1.9-4.2,4.2-4.2c2.3,0,4.2,1.9,4.2,4.2
		C705.3,86.8,703.5,88.6,701.2,88.6z"/>
	<path class="st4" d="M728.9,103.9c-2.3,0-4.2-1.9-4.2-4.2c0-2.3,1.9-4.2,4.2-4.2c2.3,0,4.2,1.9,4.2,4.2
		C733,102,731.2,103.9,728.9,103.9z"/>
</g>
<g>
	<path class="st1" d="M463.7,660c0-12.5-10.1-22.6-22.6-22.6h-90.3c-12.5,0-22.6,10.1-22.6,22.6c0,12.5,10.1,22.6,22.6,22.6h73
		l18.6,18.6v-18.7C454.3,681.9,463.7,672.1,463.7,660z"/>
	<path class="st3" d="M440.2,651.5c-2.4-2.4-6.4-2.4-8.8,0l-1.5,1.5l-1.5-1.5c-2.4-2.4-6.4-2.4-8.8,0c-2.4,2.4-2.4,6.4,0,8.8
		l1.5,1.5l0,0l8.8,8.8l8.8-8.8l0,0l1.5-1.5C442.6,657.9,442.6,654,440.2,651.5z"/>
	<path class="st3" d="M406.4,651.5c-2.4-2.4-6.4-2.4-8.8,0l-1.5,1.5l-1.5-1.5c-2.4-2.4-6.4-2.4-8.8,0c-2.4,2.4-2.4,6.4,0,8.8
		l1.5,1.5l0,0l8.8,8.8l8.8-8.8l0,0l1.5-1.5C408.9,657.9,408.9,654,406.4,651.5z"/>
	<path class="st3" d="M372.7,651.5c-2.4-2.4-6.4-2.4-8.8,0l-1.5,1.5l-1.5-1.5c-2.4-2.4-6.4-2.4-8.8,0c-2.4,2.4-2.4,6.4,0,8.8
		l1.5,1.5l0,0l8.8,8.8l8.8-8.8l0,0l1.5-1.5C375.1,657.9,375.1,654,372.7,651.5z"/>
</g>
</svg>
