<?xml version="1.0" encoding="utf-8"?>
<!-- Generator: Adobe Illustrator 18.0.0, SVG Export Plug-In . SVG Version: 6.00 Build 0)  -->
<!DOCTYPE svg PUBLIC "-//W3C//DTD SVG 1.1//EN" "http://www.w3.org/Graphics/SVG/1.1/DTD/svg11.dtd">
<svg version="1.1" id="image" xmlns="http://www.w3.org/2000/svg" xmlns:xlink="http://www.w3.org/1999/xlink" x="0px" y="0px"
	 viewBox="0 0 560.6 516.9" style="enable-background:new 0 0 560.6 516.9;" xml:space="preserve">
<style type="text/css">
	.st0{opacity:0.38;}
	.st1{fill:#DAE9F7;}
	.st2{fill:#C7E4FF;}
	.st3{fill:#88C7FF;}
	.st4{opacity:0.31;}
	.st5{fill:#AED2FF;}
	.st6{fill:#519FFF;}
	.st7{clip-path:url(#SVGID_2_);fill:#91C3FF;}
	.st8{clip-path:url(#SVGID_2_);fill:#8FC1FF;}
	.st9{clip-path:url(#SVGID_2_);fill:#8DC0FF;}
	.st10{clip-path:url(#SVGID_2_);fill:#8BBFFF;}
	.st11{clip-path:url(#SVGID_2_);fill:#89BEFF;}
	.st12{clip-path:url(#SVGID_2_);fill:#87BDFF;}
	.st13{clip-path:url(#SVGID_2_);fill:#85BCFF;}
	.st14{clip-path:url(#SVGID_2_);fill:#83BBFF;}
	.st15{clip-path:url(#SVGID_2_);fill:#81B9FF;}
	.st16{clip-path:url(#SVGID_2_);fill:#7FB8FF;}
	.st17{clip-path:url(#SVGID_2_);fill:#7DB7FF;}
	.st18{clip-path:url(#SVGID_2_);fill:#7BB6FF;}
	.st19{clip-path:url(#SVGID_2_);fill:#78B5FF;}
	.st20{clip-path:url(#SVGID_2_);fill:#76B4FF;}
	.st21{clip-path:url(#SVGID_2_);fill:#74B3FF;}
	.st22{clip-path:url(#SVGID_2_);fill:#72B1FF;}
	.st23{clip-path:url(#SVGID_2_);fill:#70B0FF;}
	.st24{clip-path:url(#SVGID_2_);fill:#6EAFFF;}
	.st25{clip-path:url(#SVGID_2_);fill:#6CAEFF;}
	.st26{clip-path:url(#SVGID_2_);fill:#6AADFF;}
	.st27{clip-path:url(#SVGID_2_);fill:#68ACFF;}
	.st28{clip-path:url(#SVGID_2_);fill:#66ABFF;}
	.st29{clip-path:url(#SVGID_4_);fill:#479AFF;}
	.st30{clip-path:url(#SVGID_4_);fill:#4598FF;}
	.st31{clip-path:url(#SVGID_4_);fill:#4397FF;}
	.st32{clip-path:url(#SVGID_4_);fill:#4196FF;}
	.st33{clip-path:url(#SVGID_4_);fill:#3E95FF;}
	.st34{clip-path:url(#SVGID_4_);fill:#3C94FF;}
	.st35{clip-path:url(#SVGID_4_);fill:#3A93FF;}
	.st36{clip-path:url(#SVGID_4_);fill:#3892FF;}
	.st37{clip-path:url(#SVGID_4_);fill:#3690FF;}
	.st38{clip-path:url(#SVGID_4_);fill:#348FFF;}
	.st39{clip-path:url(#SVGID_4_);fill:#328EFF;}
	.st40{clip-path:url(#SVGID_4_);fill:#308DFF;}
	.st41{clip-path:url(#SVGID_6_);fill:#91C3FF;}
	.st42{clip-path:url(#SVGID_6_);fill:#8FC1FF;}
	.st43{clip-path:url(#SVGID_6_);fill:#8DC0FF;}
	.st44{clip-path:url(#SVGID_6_);fill:#8BBFFF;}
	.st45{clip-path:url(#SVGID_6_);fill:#89BEFF;}
	.st46{clip-path:url(#SVGID_6_);fill:#87BDFF;}
	.st47{clip-path:url(#SVGID_6_);fill:#85BCFF;}
	.st48{clip-path:url(#SVGID_6_);fill:#83BBFF;}
	.st49{clip-path:url(#SVGID_6_);fill:#81B9FF;}
	.st50{clip-path:url(#SVGID_6_);fill:#7FB8FF;}
	.st51{clip-path:url(#SVGID_6_);fill:#7DB7FF;}
	.st52{clip-path:url(#SVGID_6_);fill:#7BB6FF;}
	.st53{clip-path:url(#SVGID_6_);fill:#78B5FF;}
	.st54{clip-path:url(#SVGID_6_);fill:#76B4FF;}
	.st55{clip-path:url(#SVGID_6_);fill:#74B3FF;}
	.st56{clip-path:url(#SVGID_6_);fill:#72B1FF;}
	.st57{clip-path:url(#SVGID_6_);fill:#70B0FF;}
	.st58{clip-path:url(#SVGID_6_);fill:#6EAFFF;}
	.st59{clip-path:url(#SVGID_6_);fill:#6CAEFF;}
	.st60{clip-path:url(#SVGID_6_);fill:#6AADFF;}
	.st61{clip-path:url(#SVGID_6_);fill:#68ACFF;}
	.st62{clip-path:url(#SVGID_6_);fill:#66ABFF;}
	.st63{clip-path:url(#SVGID_8_);fill:#BAD9FF;}
	.st64{clip-path:url(#SVGID_8_);fill:#BBDAFF;}
	.st65{clip-path:url(#SVGID_8_);fill:#BCDAFF;}
	.st66{clip-path:url(#SVGID_8_);fill:#BDDBFF;}
	.st67{clip-path:url(#SVGID_8_);fill:#BEDBFF;}
	.st68{clip-path:url(#SVGID_8_);fill:#BFDBFF;}
	.st69{clip-path:url(#SVGID_8_);fill:#BFDCFF;}
	.st70{clip-path:url(#SVGID_8_);fill:#C0DCFF;}
	.st71{clip-path:url(#SVGID_8_);fill:#C1DDFF;}
	.st72{clip-path:url(#SVGID_8_);fill:#C2DDFF;}
	.st73{clip-path:url(#SVGID_8_);fill:#C3DEFF;}
	.st74{clip-path:url(#SVGID_8_);fill:#C4DEFF;}
	.st75{clip-path:url(#SVGID_8_);fill:#C5DFFF;}
	.st76{clip-path:url(#SVGID_8_);fill:#C6DFFF;}
	.st77{clip-path:url(#SVGID_8_);fill:#C6E0FF;}
	.st78{clip-path:url(#SVGID_8_);fill:#C7E0FF;}
	.st79{clip-path:url(#SVGID_8_);fill:#C8E1FF;}
	.st80{clip-path:url(#SVGID_8_);fill:#C9E1FF;}
	.st81{clip-path:url(#SVGID_8_);fill:#CAE2FF;}
	.st82{clip-path:url(#SVGID_8_);fill:#CBE2FF;}
	.st83{clip-path:url(#SVGID_8_);fill:#CCE3FF;}
	.st84{clip-path:url(#SVGID_8_);fill:#CDE3FF;}
	.st85{clip-path:url(#SVGID_8_);fill:#CDE4FF;}
	.st86{clip-path:url(#SVGID_8_);fill:#CEE4FF;}
	.st87{clip-path:url(#SVGID_8_);fill:#CFE5FF;}
	.st88{clip-path:url(#SVGID_8_);fill:#D0E5FF;}
	.st89{clip-path:url(#SVGID_8_);fill:#D1E6FF;}
	.st90{clip-path:url(#SVGID_8_);fill:#D2E6FF;}
	.st91{clip-path:url(#SVGID_8_);fill:#D3E7FF;}
	.st92{clip-path:url(#SVGID_8_);fill:#D4E7FF;}
	.st93{clip-path:url(#SVGID_8_);fill:#D5E8FF;}
	.st94{clip-path:url(#SVGID_8_);fill:#D6E8FF;}
	.st95{clip-path:url(#SVGID_8_);fill:#D7E9FF;}
	.st96{clip-path:url(#SVGID_8_);fill:#D8E9FF;}
	.st97{clip-path:url(#SVGID_8_);fill:#D9EAFF;}
	.st98{clip-path:url(#SVGID_8_);fill:#DAEAFF;}
	.st99{clip-path:url(#SVGID_8_);fill:#DAEBFF;}
	.st100{clip-path:url(#SVGID_8_);fill:#DBEBFF;}
	.st101{clip-path:url(#SVGID_8_);fill:#DCECFF;}
	.st102{clip-path:url(#SVGID_8_);fill:#DDECFF;}
	.st103{clip-path:url(#SVGID_8_);fill:#DEEDFF;}
	.st104{clip-path:url(#SVGID_8_);fill:#DFEDFF;}
	.st105{clip-path:url(#SVGID_8_);fill:#E0EEFF;}
	.st106{clip-path:url(#SVGID_8_);fill:#E1EEFF;}
	.st107{clip-path:url(#SVGID_8_);fill:#E1EFFF;}
	.st108{clip-path:url(#SVGID_8_);fill:#E2EFFF;}
	.st109{clip-path:url(#SVGID_8_);fill:#E3F0FF;}
	.st110{clip-path:url(#SVGID_8_);fill:#E4F0FF;}
	.st111{clip-path:url(#SVGID_8_);fill:#E5F1FF;}
	.st112{clip-path:url(#SVGID_8_);fill:#E6F1FF;}
	.st113{clip-path:url(#SVGID_8_);fill:#E7F2FF;}
	.st114{clip-path:url(#SVGID_8_);fill:#E8F2FF;}
	.st115{clip-path:url(#SVGID_8_);fill:#E8F3FF;}
	.st116{clip-path:url(#SVGID_8_);fill:#E9F3FF;}
	.st117{clip-path:url(#SVGID_8_);fill:#EAF3FF;}
	.st118{clip-path:url(#SVGID_8_);fill:#EBF4FF;}
	.st119{clip-path:url(#SVGID_8_);fill:#ECF4FF;}
	.st120{clip-path:url(#SVGID_8_);fill:#EDF5FF;}
	.st121{clip-path:url(#SVGID_8_);fill:#EEF5FF;}
	.st122{clip-path:url(#SVGID_8_);fill:#EEF6FF;}
	.st123{clip-path:url(#SVGID_8_);fill:#EFF6FF;}
	.st124{clip-path:url(#SVGID_8_);fill:#F0F7FF;}
	.st125{clip-path:url(#SVGID_8_);fill:#F1F7FF;}
	.st126{fill:#5EA6FF;}
	.st127{fill:#FFFFFF;}
	.st128{fill:#F1F7FF;}
	.st129{fill:#ECF4FF;}
	.st130{fill:#B2D5FF;}
	.st131{fill:#BBDAFF;}
	.st132{fill:#A9CFFF;}
	.st133{opacity:0.43;}
	.st134{fill:#005EA0;}
	.st135{fill:#308DFF;}
</style>
<g class="st0">
	<path class="st1" d="M559.6,309.3c-9.6-54-61.6-90.4-115.7-80.8l-0.4,0.1v55.1c0,17.3,14,31.3,31.3,31.3h85.8L559.6,309.3z"/>
</g>
<g class="st0">
	<circle class="st2" cx="202.2" cy="101.4" r="101.4"/>
</g>
<g class="st0">
	<circle class="st3" cx="50.7" cy="202.8" r="50.7"/>
</g>
<g class="st0">
	<path class="st3" d="M439.3,427.1c1.5,18.5-13.9,33.8-32.3,32.3c-14.5-1.1-26.3-12.9-27.5-27.5c-1.5-18.5,13.9-33.8,32.3-32.3
		C426.4,400.8,438.2,412.5,439.3,427.1z"/>
</g>
<g>
	<g class="st4">
		<path class="st5" d="M73.2,343.2L73.2,343.2L73.2,343.2c2.3-2.2,5-3.9,8.1-5.4l9.3-6.2c0.4-0.3,0.9-0.6,1.4-0.9l0.1,0l0,0
			c12.4-7.7,32.6-8.7,58.1-1.6l105.4-13.8c0.4-0.1,0.7-0.2,1.1-0.3c7.1-4.3,51.8-29,53.9-29.6c5.3-4.6,15.6-5.8,29.6-2.3
			c1,0.3,2.1,0.5,3.1,0.8c2.9-1.6,4.9-2.6,5.3-2.7c3.6-3.1,10.5-3.9,20-1.5c18.4,4.6,39.3,19.3,46.6,32.8c4.6,8.5,2.7,14.5-3.8,16.7
			c-0.2,0.1-1.1,0.7-2.7,1.6c0.2,0.3,0.3,0.6,0.5,0.9c6.8,12.6,4.1,21.5-5.7,24.7c-1.1,1-30.3,17.2-45.7,25.5l-0.8,1.3
			c3,4.3,4.8,9.5,4.8,15.1v8.3c0,14.6-11.9,26.5-26.5,26.5h-0.7c-2.6,0-5-0.4-7.4-1.1l-23.1,37.8c1.7,14.7-3.3,25.7-13.7,32l0,0
			l-12.5,7.8c-0.9,0.7-1.9,1.3-3,1.9l-0.1,0.1l0,0c-14.3,7.9-38,7.6-67.8-2.9c-60.1-21.1-122.2-75.6-138.8-121.7
			C61.1,367.2,63.5,352.2,73.2,343.2z"/>
	</g>
	<g>
		<polygon class="st6" points="206,487.4 224.3,475.9 93,253.7 70.6,268.5 		"/>
	</g>
	<g>
		<g>
			<defs>
				<path id="SVGID_1_" d="M313.4,227.4c1.2-1,41-23.3,42.6-23.8c4.5-3.8,11.4-4.4,19.7-1c16.1,6.6,31,25.9,33.4,43.1
					c1.5,10.8-2.4,18.2-9.4,20.6c-1.2,1-41,23.3-42.6,23.8c-4.5,3.8-11.4,4.4-19.7,1c-16.1-6.6-31-25.9-33.4-43.1
					C302.5,237.3,306.4,229.8,313.4,227.4z"/>
			</defs>
			<clipPath id="SVGID_2_">
				<use xlink:href="#SVGID_1_"  style="overflow:visible;"/>
			</clipPath>
			<rect x="302.5" y="199.2" class="st7" width="9.7" height="95.3"/>
			<rect x="312.3" y="199.2" class="st7" width="1.9" height="95.3"/>
			<rect x="314.2" y="199.2" class="st8" width="1.9" height="95.3"/>
			<rect x="316.1" y="199.2" class="st8" width="1.9" height="95.3"/>
			<rect x="318" y="199.2" class="st9" width="1.9" height="95.3"/>
			<rect x="319.9" y="199.2" class="st9" width="1.9" height="95.3"/>
			<rect x="321.8" y="199.2" class="st10" width="1.9" height="95.3"/>
			<rect x="323.7" y="199.2" class="st10" width="1.9" height="95.3"/>
			<rect x="325.6" y="199.2" class="st10" width="1.9" height="95.3"/>
			<rect x="327.5" y="199.2" class="st11" width="1.9" height="95.3"/>
			<rect x="329.4" y="199.2" class="st11" width="1.9" height="95.3"/>
			<rect x="331.4" y="199.2" class="st12" width="1.9" height="95.3"/>
			<rect x="333.3" y="199.2" class="st12" width="1.9" height="95.3"/>
			<rect x="335.2" y="199.2" class="st13" width="1.9" height="95.3"/>
			<rect x="337.1" y="199.2" class="st13" width="1.9" height="95.3"/>
			<rect x="339" y="199.2" class="st14" width="1.9" height="95.3"/>
			<rect x="340.9" y="199.2" class="st14" width="1.9" height="95.3"/>
			<rect x="342.8" y="199.2" class="st14" width="1.9" height="95.3"/>
			<rect x="344.7" y="199.2" class="st15" width="1.9" height="95.3"/>
			<rect x="346.6" y="199.2" class="st15" width="1.9" height="95.3"/>
			<rect x="348.5" y="199.2" class="st16" width="1.9" height="95.3"/>
			<rect x="350.5" y="199.2" class="st16" width="1.9" height="95.3"/>
			<rect x="352.4" y="199.2" class="st17" width="1.9" height="95.3"/>
			<rect x="354.3" y="199.2" class="st17" width="1.9" height="95.3"/>
			<rect x="356.2" y="199.2" class="st18" width="1.9" height="95.3"/>
			<rect x="358.1" y="199.2" class="st18" width="1.9" height="95.3"/>
			<rect x="360" y="199.2" class="st19" width="1.9" height="95.3"/>
			<rect x="361.9" y="199.2" class="st19" width="1.9" height="95.3"/>
			<rect x="363.8" y="199.2" class="st20" width="1.9" height="95.3"/>
			<rect x="365.7" y="199.2" class="st20" width="1.9" height="95.3"/>
			<rect x="367.6" y="199.2" class="st21" width="1.9" height="95.3"/>
			<rect x="369.5" y="199.2" class="st21" width="1.9" height="95.3"/>
			<rect x="371.5" y="199.2" class="st22" width="1.9" height="95.3"/>
			<rect x="373.4" y="199.2" class="st22" width="1.9" height="95.3"/>
			<rect x="375.3" y="199.2" class="st22" width="1.9" height="95.3"/>
			<rect x="377.2" y="199.2" class="st23" width="1.9" height="95.3"/>
			<rect x="379.1" y="199.2" class="st23" width="1.9" height="95.3"/>
			<rect x="381" y="199.2" class="st24" width="1.9" height="95.3"/>
			<rect x="382.9" y="199.2" class="st24" width="1.9" height="95.3"/>
			<rect x="384.8" y="199.2" class="st25" width="1.9" height="95.3"/>
			<rect x="386.7" y="199.2" class="st25" width="1.9" height="95.3"/>
			<rect x="388.6" y="199.2" class="st26" width="1.9" height="95.3"/>
			<rect x="390.6" y="199.2" class="st26" width="1.9" height="95.3"/>
			<rect x="392.5" y="199.2" class="st27" width="1.9" height="95.3"/>
			<rect x="394.4" y="199.2" class="st27" width="1.9" height="95.3"/>
			<rect x="396.3" y="199.2" class="st27" width="1.9" height="95.3"/>
			<rect x="398.2" y="199.2" class="st28" width="1.9" height="95.3"/>
			<rect x="400.1" y="199.2" class="st28" width="1.9" height="95.3"/>
			<rect x="402" y="199.2" class="st28" width="8.5" height="95.3"/>
		</g>
	</g>
	<g>
		<path class="st6" d="M308.7,229.6c1.2-1,41-23.3,42.6-23.8c4.5-3.8,11.4-4.4,19.7-1c16.1,6.6,31,25.9,33.4,43.1
			c1.5,10.8-2.4,18.2-9.4,20.6c-1.2,1-41,23.3-42.6,23.8c-4.5,3.8-11.4,4.4-19.7,1c-16.1-6.6-31-25.9-33.4-43.1
			C297.8,239.4,301.6,232,308.7,229.6z"/>
	</g>
	<g>
		<g>
			<defs>
				<path id="SVGID_3_" d="M316.4,416.5h5.2c15.3,0,27.8-12.5,27.8-27.8V269.5c0-15.3-12.5-27.8-27.8-27.8h-5.2
					c-15.3,0-27.8,12.5-27.8,27.8v119.1C288.6,404,301.1,416.5,316.4,416.5z"/>
			</defs>
			<clipPath id="SVGID_4_">
				<use xlink:href="#SVGID_3_"  style="overflow:visible;"/>
			</clipPath>
			<rect x="288.6" y="241.8" class="st29" width="4.9" height="174.7"/>
			<rect x="293.5" y="241.8" class="st29" width="1.1" height="174.7"/>
			<rect x="294.7" y="241.8" class="st30" width="1.1" height="174.7"/>
			<rect x="295.8" y="241.8" class="st30" width="1.1" height="174.7"/>
			<rect x="296.9" y="241.8" class="st30" width="1.1" height="174.7"/>
			<rect x="298" y="241.8" class="st30" width="1.1" height="174.7"/>
			<rect x="299.1" y="241.8" class="st31" width="1.1" height="174.7"/>
			<rect x="300.3" y="241.8" class="st31" width="1.1" height="174.7"/>
			<rect x="301.4" y="241.8" class="st31" width="1.1" height="174.7"/>
			<rect x="302.5" y="241.8" class="st31" width="1.1" height="174.7"/>
			<rect x="303.6" y="241.8" class="st31" width="1.1" height="174.7"/>
			<rect x="304.8" y="241.8" class="st32" width="1.1" height="174.7"/>
			<rect x="305.9" y="241.8" class="st32" width="1.1" height="174.7"/>
			<rect x="307" y="241.8" class="st32" width="1.1" height="174.7"/>
			<rect x="308.1" y="241.8" class="st32" width="1.1" height="174.7"/>
			<rect x="309.2" y="241.8" class="st33" width="1.1" height="174.7"/>
			<rect x="310.4" y="241.8" class="st33" width="1.1" height="174.7"/>
			<rect x="311.5" y="241.8" class="st33" width="1.1" height="174.7"/>
			<rect x="312.6" y="241.8" class="st33" width="1.1" height="174.7"/>
			<rect x="313.7" y="241.8" class="st33" width="1.1" height="174.7"/>
			<rect x="314.9" y="241.8" class="st34" width="1.1" height="174.7"/>
			<rect x="316" y="241.8" class="st34" width="1.1" height="174.7"/>
			<rect x="317.1" y="241.8" class="st34" width="1.1" height="174.7"/>
			<rect x="318.2" y="241.8" class="st35" width="1.1" height="174.7"/>
			<rect x="319.3" y="241.8" class="st35" width="1.1" height="174.7"/>
			<rect x="320.5" y="241.8" class="st35" width="1.1" height="174.7"/>
			<rect x="321.6" y="241.8" class="st35" width="1.1" height="174.7"/>
			<rect x="322.7" y="241.8" class="st35" width="1.1" height="174.7"/>
			<rect x="323.8" y="241.8" class="st36" width="1.1" height="174.7"/>
			<rect x="325" y="241.8" class="st36" width="1.1" height="174.7"/>
			<rect x="326.1" y="241.8" class="st36" width="1.1" height="174.7"/>
			<rect x="327.2" y="241.8" class="st36" width="1.1" height="174.7"/>
			<rect x="328.3" y="241.8" class="st37" width="1.1" height="174.7"/>
			<rect x="329.4" y="241.8" class="st37" width="1.1" height="174.7"/>
			<rect x="330.6" y="241.8" class="st37" width="1.1" height="174.7"/>
			<rect x="331.7" y="241.8" class="st38" width="1.1" height="174.7"/>
			<rect x="332.8" y="241.8" class="st38" width="1.1" height="174.7"/>
			<rect x="333.9" y="241.8" class="st38" width="1.1" height="174.7"/>
			<rect x="335.1" y="241.8" class="st38" width="1.1" height="174.7"/>
			<rect x="336.2" y="241.8" class="st38" width="1.1" height="174.7"/>
			<rect x="337.3" y="241.8" class="st39" width="1.1" height="174.7"/>
			<rect x="338.4" y="241.8" class="st39" width="1.1" height="174.7"/>
			<rect x="339.5" y="241.8" class="st39" width="1.1" height="174.7"/>
			<rect x="340.7" y="241.8" class="st39" width="1.1" height="174.7"/>
			<rect x="341.8" y="241.8" class="st40" width="1.1" height="174.7"/>
			<rect x="342.9" y="241.8" class="st40" width="1.1" height="174.7"/>
			<rect x="344" y="241.8" class="st40" width="1.1" height="174.7"/>
			<rect x="345.1" y="241.8" class="st40" width="4.2" height="174.7"/>
		</g>
	</g>
	<g>
		<g>
			<defs>
				<path id="SVGID_5_" d="M255.2,242.3c1.8-1.5,60.6-34.4,63-35.2c6.6-5.5,16.9-6.5,29.1-1.5c23.8,9.7,45.9,38.2,49.4,63.7
					c2.2,16-3.5,27-13.9,30.5c-1.8,1.5-60.6,34.4-63,35.2c-6.6,5.5-16.9,6.5-29.1,1.5c-23.8-9.7-45.9-38.2-49.4-63.7
					C239.1,256.9,244.8,245.9,255.2,242.3z"/>
			</defs>
			<clipPath id="SVGID_6_">
				<use xlink:href="#SVGID_5_"  style="overflow:visible;"/>
			</clipPath>
			<rect x="239.1" y="200.6" class="st41" width="14.4" height="140.9"/>
			<rect x="253.5" y="200.6" class="st41" width="2.8" height="140.9"/>
			<rect x="256.3" y="200.6" class="st42" width="2.8" height="140.9"/>
			<rect x="259.1" y="200.6" class="st42" width="2.8" height="140.9"/>
			<rect x="262" y="200.6" class="st43" width="2.8" height="140.9"/>
			<rect x="264.8" y="200.6" class="st43" width="2.8" height="140.9"/>
			<rect x="267.6" y="200.6" class="st44" width="2.8" height="140.9"/>
			<rect x="270.4" y="200.6" class="st44" width="2.8" height="140.9"/>
			<rect x="273.3" y="200.6" class="st44" width="2.8" height="140.9"/>
			<rect x="276.1" y="200.6" class="st45" width="2.8" height="140.9"/>
			<rect x="278.9" y="200.6" class="st45" width="2.8" height="140.9"/>
			<rect x="281.7" y="200.6" class="st46" width="2.8" height="140.9"/>
			<rect x="284.6" y="200.6" class="st46" width="2.8" height="140.9"/>
			<rect x="287.4" y="200.6" class="st47" width="2.8" height="140.9"/>
			<rect x="290.2" y="200.6" class="st47" width="2.8" height="140.9"/>
			<rect x="293" y="200.6" class="st48" width="2.8" height="140.9"/>
			<rect x="295.9" y="200.6" class="st48" width="2.8" height="140.9"/>
			<rect x="298.7" y="200.6" class="st48" width="2.8" height="140.9"/>
			<rect x="301.5" y="200.6" class="st49" width="2.8" height="140.9"/>
			<rect x="304.3" y="200.6" class="st49" width="2.8" height="140.9"/>
			<rect x="307.2" y="200.6" class="st50" width="2.8" height="140.9"/>
			<rect x="310" y="200.6" class="st50" width="2.8" height="140.9"/>
			<rect x="312.8" y="200.6" class="st51" width="2.8" height="140.9"/>
			<rect x="315.6" y="200.6" class="st51" width="2.8" height="140.9"/>
			<rect x="318.5" y="200.6" class="st52" width="2.8" height="140.9"/>
			<rect x="321.3" y="200.6" class="st52" width="2.8" height="140.9"/>
			<rect x="324.1" y="200.6" class="st53" width="2.8" height="140.9"/>
			<rect x="326.9" y="200.6" class="st53" width="2.8" height="140.9"/>
			<rect x="329.8" y="200.6" class="st54" width="2.8" height="140.9"/>
			<rect x="332.6" y="200.6" class="st54" width="2.8" height="140.9"/>
			<rect x="335.4" y="200.6" class="st55" width="2.8" height="140.9"/>
			<rect x="338.2" y="200.6" class="st55" width="2.8" height="140.9"/>
			<rect x="341.1" y="200.6" class="st56" width="2.8" height="140.9"/>
			<rect x="343.9" y="200.6" class="st56" width="2.8" height="140.9"/>
			<rect x="346.7" y="200.6" class="st56" width="2.8" height="140.9"/>
			<rect x="349.5" y="200.6" class="st57" width="2.8" height="140.9"/>
			<rect x="352.4" y="200.6" class="st57" width="2.8" height="140.9"/>
			<rect x="355.2" y="200.6" class="st58" width="2.8" height="140.9"/>
			<rect x="358" y="200.6" class="st58" width="2.8" height="140.9"/>
			<rect x="360.8" y="200.6" class="st59" width="2.8" height="140.9"/>
			<rect x="363.7" y="200.6" class="st59" width="2.8" height="140.9"/>
			<rect x="366.5" y="200.6" class="st60" width="2.8" height="140.9"/>
			<rect x="369.3" y="200.6" class="st60" width="2.8" height="140.9"/>
			<rect x="372.1" y="200.6" class="st61" width="2.8" height="140.9"/>
			<rect x="375" y="200.6" class="st61" width="2.8" height="140.9"/>
			<rect x="377.8" y="200.6" class="st61" width="2.8" height="140.9"/>
			<rect x="380.6" y="200.6" class="st62" width="2.8" height="140.9"/>
			<rect x="383.4" y="200.6" class="st62" width="2.8" height="140.9"/>
			<rect x="386.3" y="200.6" class="st62" width="12.6" height="140.9"/>
		</g>
	</g>
	<g>
		<path class="st6" d="M378.1,228.5c7.5,10.7,12.8,22.7,14.4,34.1c2.2,16-3.5,27-13.9,30.5c-1.8,1.5-60.6,34.4-63,35.2
			c-6.6,5.5-16.9,6.5-29.1,1.5c-17.2-7-30.4-18.1-39.5-36.6L378.1,228.5z"/>
	</g>
	<g>
		<g>
			<defs>
				<path id="SVGID_7_" d="M255.1,242l-169,19.8l129.7,217.5l119.8-156.9C326.9,274.6,292.1,230.2,255.1,242z"/>
			</defs>
			<clipPath id="SVGID_8_">
				<use xlink:href="#SVGID_7_"  style="overflow:visible;"/>
			</clipPath>
			<polygon class="st63" points="227.9,479.3 335.6,390.1 335.6,479.3 			"/>
			<polygon class="st63" points="225.6,479.3 335.6,388.2 335.6,390.1 227.9,479.3 			"/>
			<polygon class="st64" points="223.4,479.3 335.6,386.4 335.6,388.2 225.6,479.3 			"/>
			<polygon class="st65" points="221.2,479.3 335.6,384.5 335.6,386.4 223.4,479.3 			"/>
			<polygon class="st66" points="218.9,479.3 335.6,382.7 335.6,384.5 221.2,479.3 			"/>
			<polygon class="st67" points="216.7,479.3 335.6,380.8 335.6,382.7 218.9,479.3 			"/>
			<polygon class="st67" points="214.4,479.3 335.6,378.9 335.6,380.8 216.7,479.3 			"/>
			<polygon class="st68" points="213.2,479.3 212.8,478.8 335.6,377.1 335.6,378.9 214.4,479.3 			"/>
			<polygon class="st68" points="212.8,478.8 211.9,477.7 335.6,375.2 335.6,377.1 			"/>
			<polygon class="st69" points="211.9,477.7 211,476.6 335.6,373.4 335.6,375.2 			"/>
			<polygon class="st70" points="211,476.6 210.1,475.5 335.6,371.5 335.6,373.4 			"/>
			<polygon class="st71" points="210.1,475.5 209.2,474.4 335.6,369.7 335.6,371.5 			"/>
			<polygon class="st71" points="209.2,474.4 208.2,473.3 335.6,367.8 335.6,369.7 			"/>
			<polygon class="st72" points="208.2,473.3 207.3,472.2 335.6,365.9 335.6,367.8 			"/>
			<polygon class="st73" points="207.3,472.2 206.4,471.1 335.6,364.1 335.6,365.9 			"/>
			<polygon class="st73" points="206.4,471.1 205.5,470 335.6,362.2 335.6,364.1 			"/>
			<polygon class="st74" points="205.5,470 204.6,468.9 335.6,360.4 335.6,362.2 			"/>
			<polygon class="st75" points="204.6,468.9 203.7,467.8 335.6,358.5 335.6,360.4 			"/>
			<polygon class="st76" points="203.7,467.8 202.8,466.7 335.6,356.7 335.6,358.5 			"/>
			<polygon class="st76" points="202.8,466.7 201.9,465.6 335.6,354.8 335.6,356.7 			"/>
			<polygon class="st77" points="201.9,465.6 200.9,464.5 335.6,352.9 335.6,354.8 			"/>
			<polygon class="st78" points="200.9,464.5 200,463.4 335.6,351.1 335.6,352.9 			"/>
			<polygon class="st78" points="200,463.4 199.1,462.3 335.6,349.2 335.6,351.1 			"/>
			<polygon class="st79" points="199.1,462.3 198.2,461.2 335.6,347.4 335.6,349.2 			"/>
			<polygon class="st80" points="198.2,461.2 197.3,460.1 335.6,345.5 335.6,347.4 			"/>
			<polygon class="st80" points="197.3,460.1 196.4,458.9 335.6,343.6 335.6,345.5 			"/>
			<polygon class="st81" points="196.4,458.9 195.5,457.8 335.6,341.8 335.6,343.6 			"/>
			<polygon class="st81" points="195.5,457.8 194.6,456.7 335.6,339.9 335.6,341.8 			"/>
			<polygon class="st82" points="194.6,456.7 193.6,455.6 335.6,338.1 335.6,339.9 			"/>
			<polygon class="st83" points="193.6,455.6 192.7,454.5 335.6,336.2 335.6,338.1 			"/>
			<polygon class="st84" points="192.7,454.5 191.8,453.4 335.6,334.4 335.6,336.2 			"/>
			<polygon class="st84" points="191.8,453.4 190.9,452.3 335.6,332.5 335.6,334.4 			"/>
			<polygon class="st85" points="190.9,452.3 190,451.2 335.6,330.6 335.6,332.5 			"/>
			<polygon class="st85" points="190,451.2 189.1,450.1 335.6,328.8 335.6,330.6 			"/>
			<polygon class="st86" points="189.1,450.1 188.2,449 335.6,326.9 335.6,328.8 			"/>
			<polygon class="st87" points="188.2,449 187.3,447.9 335.6,325.1 335.6,326.9 			"/>
			<polygon class="st87" points="187.3,447.9 186.3,446.8 335.6,323.2 335.6,325.1 			"/>
			<polygon class="st88" points="186.3,446.8 185.4,445.7 335.6,321.4 335.6,323.2 			"/>
			<polygon class="st88" points="185.4,445.7 184.5,444.6 335.6,319.5 335.6,321.4 			"/>
			<polygon class="st89" points="184.5,444.6 183.6,443.5 335.6,317.6 335.6,319.5 			"/>
			<polygon class="st90" points="183.6,443.5 182.7,442.4 335.6,315.8 335.6,317.6 			"/>
			<polygon class="st90" points="182.7,442.4 181.8,441.3 335.6,313.9 335.6,315.8 			"/>
			<polygon class="st91" points="181.8,441.3 180.9,440.2 335.6,312.1 335.6,313.9 			"/>
			<polygon class="st91" points="180.9,440.2 180,439.1 335.6,310.2 335.6,312.1 			"/>
			<polygon class="st92" points="180,439.1 179,438 335.6,308.3 335.6,310.2 			"/>
			<polygon class="st92" points="179,438 178.1,436.9 335.6,306.5 335.6,308.3 			"/>
			<polygon class="st92" points="178.1,436.9 177.2,435.8 335.6,304.6 335.6,306.5 			"/>
			<polygon class="st93" points="177.2,435.8 176.3,434.7 335.6,302.8 335.6,304.6 			"/>
			<polygon class="st93" points="176.3,434.7 175.4,433.6 335.6,300.9 335.6,302.8 			"/>
			<polygon class="st94" points="175.4,433.6 174.5,432.5 335.6,299.1 335.6,300.9 			"/>
			<polygon class="st94" points="174.5,432.5 173.6,431.4 335.6,297.2 335.6,299.1 			"/>
			<polygon class="st95" points="173.6,431.4 172.7,430.3 335.6,295.3 335.6,297.2 			"/>
			<polygon class="st95" points="172.7,430.3 171.7,429.2 335.6,293.5 335.6,295.3 			"/>
			<polygon class="st96" points="171.7,429.2 170.8,428.1 335.6,291.6 335.6,293.5 			"/>
			<polygon class="st96" points="170.8,428.1 169.9,427 335.6,289.8 335.6,291.6 			"/>
			<polygon class="st97" points="169.9,427 169,425.9 335.6,287.9 335.6,289.8 			"/>
			<polygon class="st98" points="169,425.9 168.1,424.8 335.6,286.1 335.6,287.9 			"/>
			<polygon class="st98" points="168.1,424.8 167.2,423.7 335.6,284.2 335.6,286.1 			"/>
			<polygon class="st99" points="167.2,423.7 166.3,422.6 335.6,282.3 335.6,284.2 			"/>
			<polygon class="st99" points="166.3,422.6 165.4,421.5 335.6,280.5 335.6,282.3 			"/>
			<polygon class="st100" points="165.4,421.5 164.4,420.4 335.2,279 335.6,279.5 335.6,280.5 			"/>
			
				<rect x="248.6" y="238.3" transform="matrix(0.6379 0.7702 -0.7702 0.6379 359.1859 -65.5974)" class="st100" width="1.4" height="221.7"/>
			
				<rect x="247.7" y="237.2" transform="matrix(0.6378 0.7702 -0.7702 0.6378 358.0289 -65.2877)" class="st101" width="1.4" height="221.7"/>
			
				<rect x="246.8" y="236.1" transform="matrix(0.6378 0.7702 -0.7702 0.6378 356.8496 -64.9839)" class="st101" width="1.4" height="221.7"/>
			
				<rect x="245.9" y="235" transform="matrix(0.6378 0.7702 -0.7702 0.6378 355.6526 -64.6849)" class="st102" width="1.4" height="221.7"/>
			
				<rect x="245" y="233.9" transform="matrix(0.6378 0.7702 -0.7702 0.6378 354.5049 -64.3727)" class="st102" width="1.4" height="221.7"/>
			
				<rect x="244.1" y="232.8" transform="matrix(0.6378 0.7702 -0.7702 0.6378 353.3117 -64.0726)" class="st103" width="1.4" height="221.7"/>
			
				<rect x="243.2" y="231.7" transform="matrix(0.6379 0.7702 -0.7702 0.6379 352.1105 -63.7747)" class="st103" width="1.4" height="221.7"/>
			
				<rect x="242.2" y="230.6" transform="matrix(0.6378 0.7702 -0.7702 0.6378 350.9531 -63.4651)" class="st104" width="1.4" height="221.7"/>
			
				<rect x="241.3" y="229.5" transform="matrix(0.6378 0.7702 -0.7702 0.6378 349.7918 -63.1565)" class="st104" width="1.4" height="221.7"/>
			
				<rect x="240.4" y="228.4" transform="matrix(0.6379 0.7702 -0.7702 0.6379 348.5728 -62.8634)" class="st105" width="1.4" height="221.7"/>
			
				<rect x="239.5" y="227.3" transform="matrix(0.6378 0.7702 -0.7702 0.6378 347.4152 -62.5538)" class="st105" width="1.4" height="221.7"/>
			
				<rect x="238.6" y="226.2" transform="matrix(0.6378 0.7702 -0.7702 0.6378 346.2401 -62.249)" class="st106" width="1.4" height="221.7"/>
			
				<rect x="237.7" y="225.1" transform="matrix(0.6379 0.7701 -0.7701 0.6379 345.031 -61.9531)" class="st106" width="1.4" height="221.7"/>
			
				<rect x="236.8" y="224" transform="matrix(0.6378 0.7702 -0.7702 0.6378 343.895 -61.6377)" class="st107" width="1.4" height="221.7"/>
			
				<rect x="235.9" y="222.9" transform="matrix(0.6378 0.7702 -0.7702 0.6378 342.698 -61.3387)" class="st107" width="1.4" height="221.7"/>
			
				<rect x="234.9" y="221.8" transform="matrix(0.6379 0.7702 -0.7702 0.6379 341.4974 -61.0407)" class="st108" width="1.4" height="221.7"/>
			
				<rect x="234" y="220.7" transform="matrix(0.6378 0.7702 -0.7702 0.6378 340.3394 -60.7312)" class="st108" width="1.4" height="221.7"/>
			
				<rect x="233.1" y="219.6" transform="matrix(0.6378 0.7702 -0.7702 0.6378 339.1601 -60.4274)" class="st108" width="1.4" height="221.7"/>
			
				<rect x="232.2" y="218.5" transform="matrix(0.6378 0.7702 -0.7702 0.6378 337.9772 -60.1246)" class="st109" width="1.4" height="221.7"/>
			
				<rect x="231.3" y="217.4" transform="matrix(0.6378 0.7702 -0.7702 0.6378 336.8014 -59.8199)" class="st109" width="1.4" height="221.7"/>
			
				<rect x="230.4" y="216.3" transform="matrix(0.6378 0.7702 -0.7702 0.6378 335.6221 -59.5161)" class="st110" width="1.4" height="221.7"/>
			
				<rect x="229.5" y="215.2" transform="matrix(0.6379 0.7702 -0.7702 0.6379 334.4221 -59.218)" class="st110" width="1.4" height="221.7"/>
			
				<rect x="228.6" y="214.1" transform="matrix(0.6378 0.7702 -0.7702 0.6378 333.2846 -58.9029)" class="st111" width="1.4" height="221.7"/>
			
				<rect x="227.6" y="213" transform="matrix(0.6378 0.7702 -0.7702 0.6378 332.0803 -58.6059)" class="st111" width="1.4" height="221.7"/>
			
				<rect x="226.7" y="211.9" transform="matrix(0.6379 0.7702 -0.7702 0.6379 330.8844 -58.3067)" class="st111" width="1.4" height="221.7"/>
			
				<rect x="225.8" y="210.8" transform="matrix(0.6378 0.7702 -0.7702 0.6378 329.7256 -57.9973)" class="st112" width="1.4" height="221.7"/>
			
				<rect x="224.9" y="209.7" transform="matrix(0.6378 0.7702 -0.7702 0.6378 328.5463 -57.6935)" class="st112" width="1.4" height="221.7"/>
			
				<rect x="224" y="208.5" transform="matrix(0.6378 0.7702 -0.7702 0.6378 327.3635 -57.3907)" class="st112" width="1.4" height="221.7"/>
			
				<rect x="223.1" y="207.4" transform="matrix(0.6378 0.7702 -0.7702 0.6378 326.1877 -57.086)" class="st113" width="1.4" height="221.7"/>
			
				<rect x="222.2" y="206.3" transform="matrix(0.6378 0.7702 -0.7702 0.6378 325.0083 -56.7822)" class="st113" width="1.4" height="221.7"/>
			
				<rect x="221.3" y="205.2" transform="matrix(0.6379 0.7702 -0.7702 0.6379 323.809 -56.484)" class="st114" width="1.4" height="221.7"/>
			
				<rect x="220.3" y="204.1" transform="matrix(0.6378 0.7702 -0.7702 0.6378 322.6498 -56.1747)" class="st114" width="1.4" height="221.7"/>
			
				<rect x="219.4" y="203" transform="matrix(0.6378 0.7702 -0.7702 0.6378 321.487 -55.8664)" class="st114" width="1.4" height="221.7"/>
			
				<rect x="218.5" y="201.9" transform="matrix(0.6379 0.7702 -0.7702 0.6379 320.2751 -55.5716)" class="st115" width="1.4" height="221.7"/>
			
				<rect x="217.6" y="200.8" transform="matrix(0.6378 0.7702 -0.7702 0.6378 319.1081 -55.2645)" class="st115" width="1.4" height="221.7"/>
			
				<rect x="216.7" y="199.7" transform="matrix(0.6378 0.7702 -0.7702 0.6378 317.9326 -54.9596)" class="st116" width="1.4" height="221.7"/>
			
				<rect x="215.8" y="198.6" transform="matrix(0.6378 0.7702 -0.7702 0.6378 316.7499 -54.6568)" class="st116" width="1.4" height="221.7"/>
			
				<rect x="214.9" y="197.5" transform="matrix(0.6378 0.7702 -0.7702 0.6378 315.5739 -54.3521)" class="st116" width="1.4" height="221.7"/>
			
				<rect x="213.9" y="196.4" transform="matrix(0.6379 0.7702 -0.7702 0.6379 314.3752 -54.0537)" class="st116" width="1.4" height="221.7"/>
			
				<rect x="213" y="195.3" transform="matrix(0.6378 0.7702 -0.7702 0.6378 313.2153 -53.7446)" class="st117" width="1.4" height="221.7"/>
			
				<rect x="212.1" y="194.2" transform="matrix(0.6378 0.7702 -0.7702 0.6378 312.036 -53.4408)" class="st117" width="1.4" height="221.7"/>
			
				<rect x="211.2" y="193.1" transform="matrix(0.6378 0.7702 -0.7702 0.6378 310.8535 -53.1379)" class="st117" width="1.4" height="221.7"/>
			
				<rect x="210.3" y="192" transform="matrix(0.6378 0.7702 -0.7702 0.6378 309.6774 -52.8332)" class="st118" width="1.4" height="221.7"/>
			
				<rect x="209.4" y="190.9" transform="matrix(0.6378 0.7702 -0.7702 0.6378 308.4981 -52.5295)" class="st118" width="1.4" height="221.7"/>
			<polygon class="st118" points="124.3,371.9 123.4,370.8 293.1,230.2 294.7,230.2 295,230.5 			"/>
			<polygon class="st119" points="123.4,370.8 122.5,369.7 290.9,230.2 293.1,230.2 			"/>
			<polygon class="st119" points="122.5,369.7 121.5,368.6 288.7,230.2 290.9,230.2 			"/>
			<polygon class="st119" points="121.5,368.6 120.6,367.5 286.4,230.2 288.7,230.2 			"/>
			<polygon class="st120" points="120.6,367.5 119.7,366.4 284.2,230.2 286.4,230.2 			"/>
			<polygon class="st120" points="119.7,366.4 118.8,365.3 281.9,230.2 284.2,230.2 			"/>
			<polygon class="st120" points="118.8,365.3 117.9,364.2 279.7,230.2 281.9,230.2 			"/>
			<polygon class="st120" points="117.9,364.2 117,363.1 277.4,230.2 279.7,230.2 			"/>
			<polygon class="st121" points="117,363.1 116.1,362 275.2,230.2 277.4,230.2 			"/>
			<polygon class="st121" points="116.1,362 115.2,360.9 273,230.2 275.2,230.2 			"/>
			<polygon class="st121" points="115.2,360.9 114.2,359.8 270.7,230.2 273,230.2 			"/>
			<polygon class="st121" points="114.2,359.8 113.3,358.7 268.5,230.2 270.7,230.2 			"/>
			<polygon class="st122" points="113.3,358.7 112.4,357.6 266.2,230.2 268.5,230.2 			"/>
			<polygon class="st122" points="112.4,357.6 111.5,356.5 264,230.2 266.2,230.2 			"/>
			<polygon class="st122" points="111.5,356.5 110.6,355.4 261.7,230.2 264,230.2 			"/>
			<polygon class="st122" points="110.6,355.4 109.7,354.3 259.5,230.2 261.7,230.2 			"/>
			<polygon class="st123" points="109.7,354.3 108.8,353.2 257.2,230.2 259.5,230.2 			"/>
			<polygon class="st123" points="108.8,353.2 107.9,352.1 255,230.2 257.2,230.2 			"/>
			<polygon class="st123" points="107.9,352.1 106.9,350.9 252.8,230.2 255,230.2 			"/>
			<polygon class="st123" points="106.9,350.9 106,349.8 250.5,230.2 252.8,230.2 			"/>
			<polygon class="st123" points="106,349.8 105.1,348.7 248.3,230.2 250.5,230.2 			"/>
			<polygon class="st124" points="105.1,348.7 104.2,347.6 246,230.2 248.3,230.2 			"/>
			<polygon class="st124" points="104.2,347.6 103.3,346.5 243.8,230.2 246,230.2 			"/>
			<polygon class="st124" points="103.3,346.5 102.4,345.4 241.5,230.2 243.8,230.2 			"/>
			<polygon class="st124" points="102.4,345.4 101.5,344.3 239.3,230.2 241.5,230.2 			"/>
			<polygon class="st124" points="101.5,344.3 100.6,343.2 237.1,230.2 239.3,230.2 			"/>
			<polygon class="st124" points="100.6,343.2 99.6,342.1 234.8,230.2 237.1,230.2 			"/>
			<polygon class="st124" points="99.6,342.1 98.7,341 232.6,230.2 234.8,230.2 			"/>
			<polygon class="st125" points="98.7,341 97.8,339.9 230.3,230.2 232.6,230.2 			"/>
			<polygon class="st125" points="97.8,339.9 96.9,338.8 228.1,230.2 230.3,230.2 			"/>
			<polygon class="st125" points="96.9,338.8 96,337.7 225.8,230.2 228.1,230.2 			"/>
			<polygon class="st125" points="96,337.7 95.1,336.6 223.6,230.2 225.8,230.2 			"/>
			<polygon class="st125" points="95.1,336.6 94.2,335.5 221.4,230.2 223.6,230.2 			"/>
			<polygon class="st125" points="94.2,335.5 93.3,334.4 219.1,230.2 221.4,230.2 			"/>
			<polygon class="st125" points="93.3,334.4 92.3,333.3 216.9,230.2 219.1,230.2 			"/>
			<polygon class="st125" points="92.3,333.3 91.4,332.2 214.6,230.2 216.9,230.2 			"/>
			<polygon class="st125" points="91.4,332.2 86.1,325.8 86.1,230.2 214.6,230.2 			"/>
		</g>
	</g>
	<g>
		<path class="st126" d="M67.6,312c0,58.2,40.8,128.9,91.2,158c50.4,29.1,91.2,5.5,91.2-52.7s-40.8-128.9-91.2-158
			S67.6,253.8,67.6,312z"/>
	</g>
	<g>
		<path class="st126" d="M50.7,322.7c0,58.2,40.8,128.9,91.2,158c50.4,29.1,91.2,5.5,91.2-52.7c0-58.2-40.8-128.9-91.2-158
			C91.6,240.9,50.7,264.5,50.7,322.7z"/>
	</g>
	<g>
		<path class="st127" d="M64,320.8c0,54,37.9,119.6,84.6,146.5c46.7,27,84.6,5.1,84.6-48.8c0-54-37.9-119.6-84.6-146.5
			C101.9,245,64,266.9,64,320.8z"/>
	</g>
	<g>
		<path class="st128" d="M201,322.4c-18.1-27.4-41.8-44.2-52.3-50.3c-46.7-27-84.6-5.1-84.6,48.8c0,15.4,1.4,32.8,16.7,68.1
			C97.4,327.5,150,313.8,201,322.4z"/>
	</g>
	<g>
		<path class="st129" d="M224.3,380.7c0-23.5-17.9-52.1-39.9-63.8c-10.6-5.6-20.2-6.4-27.4-3l0,0l-0.3,0.2c-0.3,0.2-0.6,0.3-0.9,0.5
			l-26.2,13.7c-1.1,0.4-2.1,1-3,1.6l0,0l0,0c-6.4,4.1-10.3,12.1-10.3,23.1c0,23.5,17.9,52.1,39.9,63.8c10.4,5.5,19.8,6.3,27,3.2l0,0
			l0.1,0c0.8-0.3,1.5-0.8,2.3-1.2l24.1-12.8c2.1-0.7,4.1-1.7,5.8-3.1l0,0l0,0C220.9,398.5,224.3,390.9,224.3,380.7z"/>
	</g>
	<g>
		<path class="st130" d="M173.1,290.3c-0.3,0.2-43.6,25.1-43.6,25.1c-1,0.4-1.9,1-2.8,1.6l0,0l0,0c-5.9,4.1-9.5,12.1-9.5,23.1
			c0,23.5,16.5,52.1,36.8,63.8c9.6,5.5,18.3,6.3,24.9,3.2l0,0l0,0c0.7-0.3,1.4-0.8,2.1-1.2c0,0,44.4-26.2,46-27.6
			C220.8,357.4,207.4,322.9,173.1,290.3z"/>
	</g>
	<g>
		
			<ellipse transform="matrix(0.8484 -0.5294 0.5294 0.8484 -168.9868 134.2893)" class="st131" cx="150" cy="362.2" rx="20.5" ry="39.8"/>
	</g>
	<g>
		<path class="st132" d="M227,378.2c0,0-4-22.9-22.9-51.2c-9.3-13.9-16.8-23.8-31-36.8l-8.1,4.6c0,0,38.2,34.4,51.4,89.8L227,378.2z
			"/>
	</g>
	<g class="st133">
		<polygon class="st127" points="349.4,215.1 296.9,245.9 282.8,237.9 336.3,207.6 		"/>
	</g>
</g>
<g>
	<path class="st134" d="M281.5,120.4l-0.2-2.7c-0.9-12.5-7.7-23.8-18-29.7l-61.7-35.4c-8.6-4.9-17.6-5.1-25.3-2l0,0l-17.5,6.5l3.9,5
		c-3.7,5.8-5.8,13.1-5.2,21.3l0,0c1.1,15.3,9.5,29.2,22.1,36.4l51.3,29.5l0.3,0.4l-7.5,2l33.8,32.6c2.5,2.4,6.7,0.8,7-2.6l2.6-30.3
		C276.3,145.4,282.5,134.1,281.5,120.4z"/>
</g>
<g>
	<path class="st135" d="M162.3,126.3l56.3,32.3c22.1,12.7,47.5-5,45.6-31.8l-0.2-2.7c-0.9-12.5-7.7-23.8-18-29.7l-61.7-35.4
		c-21.4-12.3-46,4.8-44.2,30.8v0C141.3,105.2,149.7,119.1,162.3,126.3z"/>
</g>
<g>
	<path class="st127" d="M221,118.5c-0.4,6.2,3.3,13.5,8.2,16.3c4.9,2.8,9.1,0,9.5-6.2c0.4-6.2-3.3-13.5-8.2-16.3
		C225.6,109.5,221.3,112.3,221,118.5z"/>
</g>
<g>
	<path class="st127" d="M192,103.1c-0.4,6.2,3.3,13.5,8.2,16.3c4.9,2.8,9.1,0,9.5-6.2c0.4-6.2-3.3-13.5-8.2-16.3
		C196.6,94,192.4,96.8,192,103.1z"/>
</g>
<g>
	<path class="st127" d="M165.9,89.2c-0.4,6.2,3.3,13.5,8.2,16.3c4.9,2.8,9.1,0,9.5-6.2c0.4-6.2-3.3-13.5-8.2-16.3
		C170.5,80.2,166.3,83,165.9,89.2z"/>
</g>
<g>
	<path class="st134" d="M423.9,146.2l-0.1-1.7c-0.5-7.8-4.8-14.8-11.2-18.5L374,104c-5.4-3.1-11-3.2-15.8-1.2l0,0l-11,4.1l2.4,3.1
		c-2.3,3.6-3.6,8.2-3.3,13.3l0,0c0.7,9.6,5.9,18.2,13.8,22.8l32,18.4l0.2,0.3l-4.7,1.2l21.1,20.4c1.6,1.5,4.2,0.5,4.4-1.6l1.6-18.9
		C420.7,161.8,424.5,154.8,423.9,146.2z"/>
</g>
<g>
	<path class="st135" d="M349.5,149.9l35.1,20.2c13.8,7.9,29.7-3.1,28.5-19.9l-0.1-1.7c-0.5-7.8-4.8-14.8-11.2-18.5l-38.5-22.1
		c-13.4-7.7-28.7,3-27.6,19.2v0C336.3,136.7,341.6,145.4,349.5,149.9z"/>
</g>
<g>
	<path class="st127" d="M386.1,145c-0.2,3.9,2.1,8.4,5.1,10.2c3,1.7,5.7,0,5.9-3.9c0.2-3.9-2.1-8.4-5.1-10.2
		C389,139.4,386.3,141.2,386.1,145z"/>
</g>
<g>
	<path class="st127" d="M368,135.4c-0.2,3.9,2.1,8.4,5.1,10.2c3,1.7,5.7,0,5.9-3.9c0.2-3.9-2.1-8.4-5.1-10.2
		C370.9,129.8,368.3,131.5,368,135.4z"/>
</g>
<g>
	<path class="st127" d="M351.7,126.8c-0.2,3.9,2.1,8.4,5.1,10.2c3,1.7,5.7,0,5.9-3.9c0.2-3.9-2.1-8.4-5.1-10.2
		C354.6,121.1,351.9,122.9,351.7,126.8z"/>
</g>
</svg>
