<?xml version="1.0" encoding="utf-8"?>
<!-- Generator: Adobe Illustrator 18.0.0, SVG Export Plug-In . SVG Version: 6.00 Build 0)  -->
<!DOCTYPE svg PUBLIC "-//W3C//DTD SVG 1.1//EN" "http://www.w3.org/Graphics/SVG/1.1/DTD/svg11.dtd">
<svg version="1.1" id="Illustration" xmlns="http://www.w3.org/2000/svg" xmlns:xlink="http://www.w3.org/1999/xlink" x="0px"
	 y="0px" viewBox="0 0 3710 3710" style="enable-background:new 0 0 3710 3710;" xml:space="preserve">
<style type="text/css">
	.st0{fill:#FBFDFE;}
	.st1{clip-path:url(#SVGID_2_);fill:url(#SVGID_3_);}
	.st2{opacity:0.5;clip-path:url(#SVGID_2_);}
	.st3{fill:#B5D0E3;}
	.st4{fill:url(#SVGID_4_);}
	.st5{opacity:0.5;clip-path:url(#SVGID_6_);}
	.st6{fill:#FEFFFF;}
	.st7{fill:url(#SVGID_7_);}
	.st8{opacity:0.5;clip-path:url(#SVGID_9_);}
	.st9{fill:url(#SVGID_10_);}
	.st10{fill:#FFFFFF;}
	.st11{fill:#D9E7F1;}
	.st12{opacity:0.3;fill:#D3EEF4;}
	.st13{fill:#005EA0;}
	.st14{fill:#307DB2;}
	.st15{fill:#D3EEF4;}
	.st16{fill:#D5EFF5;}
	.st17{fill:url(#SVGID_11_);}
	.st18{fill:url(#SVGID_12_);}
	.st19{fill:url(#SVGID_13_);}
	.st20{opacity:0.3;fill:url(#SVGID_14_);}
	.st21{fill:url(#SVGID_15_);}
	.st22{fill:url(#SVGID_16_);}
	.st23{fill:url(#SVGID_17_);}
	.st24{fill:url(#SVGID_18_);}
	.st25{fill:url(#SVGID_19_);}
</style>
<g id="Vision_statement_1">
	<path class="st0" d="M478.9,1948.3c0,0-21.2,1111.7,1552.5,1098.4c305.4-2.6,634-3.9,925.8-97.6c109.2-35.1,198.1-114,205.9-221.4
		c9.9-137.5-61.7-270-45-406.9c42.3-346.7,614-1284.2-296.4-1727.2S450.6,741.2,478.9,1948.3z"/>
	<g>
		<g>
			<defs>
				<path id="SVGID_1_" d="M1682.6,2774.6l233.2,165c0,0,128.5-88.5,131.1-213.4c5.3-254.7,228-232.3,322.7-236.9
					c142.8-6.9,265.6-75.2,162.4-215.9c-103.3-140.7,180.7-254,413-231.9c227.2,21.6,396.9-369.8-90.7-461.8
					c-291.2-54.9-421.7,202.6-518.6,317c-96.9,114.4-285.3-3.8-328.6,189c-37,164.7-2,328.7-140.7,361.7
					C1727.7,2480.5,1650.4,2572.9,1682.6,2774.6z"/>
			</defs>
			<clipPath id="SVGID_2_">
				<use xlink:href="#SVGID_1_"  style="overflow:visible;"/>
			</clipPath>
			
				<linearGradient id="SVGID_3_" gradientUnits="userSpaceOnUse" x1="4538.0952" y1="967.853" x2="3969.4707" y2="2583.9453" gradientTransform="matrix(0.8163 0.5777 -0.5777 0.8163 -89.7424 -1702.1135)">
				<stop  offset="0" style="stop-color:#308DFF"/>
				<stop  offset="0.9964" style="stop-color:#82B0D0"/>
			</linearGradient>
			<path class="st1" d="M1682.6,2774.6l233.2,165c0,0,128.5-88.5,131.1-213.4c5.3-254.7,228-232.3,322.7-236.9
				c142.8-6.9,249.1-71.2,181.2-209.6c-76.8-156.7,161.9-260.2,394.1-238.1c227.2,21.6,396.9-369.8-90.7-461.8
				c-291.2-54.9-421.7,202.6-518.6,317c-96.9,114.4-285.3-3.8-328.6,189c-37,164.7-2,328.7-140.7,361.7
				C1727.7,2480.5,1650.4,2572.9,1682.6,2774.6z"/>
			<g class="st2">
				<path class="st3" d="M1768.2,2867.7l5.5,2.5c1.6-3.4,160.2-342,418.7-630.2c238.1-265.6,612.2-541.5,1042-347.8l2.5-5.5
					c-191.3-86.2-387.6-88.1-583.6-5.7c-156.5,65.8-313.1,185.3-465.4,355.1C1928.7,2525,1769.8,2864.3,1768.2,2867.7z"/>
				<path class="st3" d="M2572.8,1918.9l5.3,2.8c94.8-176.9,320.2-364,322.4-365.9l-3.8-4.7
					C2894.5,1553.1,2668.2,1740.9,2572.8,1918.9z"/>
				<path class="st3" d="M2704.9,1867.5c238.8,14,358.5,173.1,359.7,174.7l4.9-3.6c-1.2-1.6-122.5-163-364.2-177.2L2704.9,1867.5z"
					/>
				<path class="st3" d="M2033.6,2437.6c219.3-193.1,575.2-26.7,578.5-24.8l3.3-5c-3.1-2.2-364.6-169.6-585.8,25.3L2033.6,2437.6z"
					/>
				<path class="st3" d="M2101.7,2338.2l5.5,2.4c74.5-170.9-14.6-387.8-15.5-390l-5.6,2.3
					C2087.1,1955.1,2175.1,2169.7,2101.7,2338.2z"/>
				<path class="st3" d="M1799.8,2817.5c71-85.3,250.6-65.6,252.4-65.4l0.7-6c-7.5-0.9-184.6-20.3-257.7,67.5L1799.8,2817.5z"/>
				<path class="st3" d="M1836.3,2736.8l5.4,2.6c37.9-79.2-13.2-233.4-29.9-284c-2.4-7.2-4.4-13.3-4.6-14.5l-6,0.7
					c0.2,1.7,1.5,5.8,4.8,15.7C1822.7,2507.4,1873.1,2659.8,1836.3,2736.8z"/>
			</g>
		</g>
		<g>
			
				<linearGradient id="SVGID_4_" gradientUnits="userSpaceOnUse" x1="-1544.9438" y1="887.0286" x2="-945.9315" y2="2460.9849" gradientTransform="matrix(-0.9919 -0.1269 -0.1269 0.9919 1282.0708 -364.068)">
				<stop  offset="0" style="stop-color:#8AB5D3"/>
				<stop  offset="0.9964" style="stop-color:#5996C1"/>
			</linearGradient>
			<path class="st4" d="M2317,1866.8c25.7,59.3-4.1,114.5-31.9,151c-6.2-0.4-9.9,0.9-16.2,1.8c-57.1,8.5-83.3,0-140.9-0.4
				c-12.4-0.1-48.7-11.5-63.2-17l-26.9-10.9c0,0-41.9-142.7,36.2-175.4c78.1-32.7,55.5-173.2,52.7-249.2
				c-1.7-46.6,12.4-68.5,14.6-85.8c22.4-182.5-29.3-240.3,14.4-295.1c48.3-60.6,125.2-7.5,181.2-70.6
				c63.3-71.3,7.7-186.8,82.6-240.8c12.8-9.3,26.3-18.4,46.9-23.1c50.9-11.5,89.6,20.2,127.9-18.6c76.9-78,196.7-99.1,263.1-7.8
				c65.6,90.1-27.1,252.6-243.8,372.5c-144.4,102.8-148.2,136.6-141.2,220c4.9,58.4,56.9,213.7-30.2,267.5
				C2355.2,1738.8,2287.7,1799,2317,1866.8z"/>
			<g>
				<defs>
					<path id="SVGID_5_" d="M2246.2,2061.8l-204-65.1c0,0-46.3-148.1,31.8-180.8c78.1-32.7,55.5-173.2,52.7-249.2
						c-7.6-206.1,228.9-169.6,241.8-434.4c3.4-70.4-15.3-206.7,51.1-258c75.6-58.4,125.6,8.3,174.8-41.7
						c76.9-78,196.7-99.1,263.1-7.8c65.6,90.1-27.1,252.6-243.8,372.5c-144.4,102.8-148.2,136.6-141.2,220
						c4.9,58.4,56.9,213.7-30.2,267.5c-87.1,53.8-154.6,114-125.3,181.8C2361.7,1970,2246.2,2061.8,2246.2,2061.8z"/>
				</defs>
				<clipPath id="SVGID_6_">
					<use xlink:href="#SVGID_5_"  style="overflow:visible;"/>
				</clipPath>
				<g class="st5">
					<path class="st6" d="M2157.8,2023.6l-4.2-0.8c4.2-23.1,8.8-46.2,13.6-68.9c35.4-167.9,86.4-326.1,151.7-470.2
						c55.3-122.1,121.5-235.7,196.9-337.8c60.6-82.1,127.4-157.2,198.5-223.2c50-46.4,101.6-87.9,153.4-123.2
						c9-6.2,18.6-12,27.9-17.6c12.4-7.5,25.2-15.3,36.7-23.9l2.7,3.1c-11.7,8.8-24.6,16.6-37,24.1c-9.3,5.6-18.8,11.4-27.8,17.5
						c-51.6,35.3-103.1,76.6-152.9,122.9c-71,65.8-137.6,140.7-198,222.6c-75.2,101.9-141.3,215.3-196.5,337.1
						c-65.1,143.8-116.1,301.7-151.4,469.4C2166.6,1977.5,2162.1,2000.6,2157.8,2023.6z"/>
					<path class="st6" d="M2433.3,1276.2l-3.7-2c84.3-147.2,30.2-435.1,29.6-437.9l4.2-0.6
						C2463.9,838.6,2518.3,1127.8,2433.3,1276.2z"/>
					<path class="st6" d="M2236.9,1708.7l-3.9-1.5c44.5-106.7,268.8-174.8,271.1-175.5l1.4,3.8
						C2503.2,1536.1,2280.7,1603.6,2236.9,1708.7z"/>
					<path class="st6" d="M2217.3,1771.5l-4.2-0.9c15.2-73.8-6.6-183.6-61.3-309c-2.8-6.3-2.8-6.3-2.6-7l4.2,0.8l-2.1-0.4l2.1-0.3
						c0.1,0.4,1.2,2.8,2.4,5.6C2210.8,1586.4,2232.7,1696.9,2217.3,1771.5z"/>
					<path class="st6" d="M2166.2,1981.7l-3.8-1.9c41.2-72.6,170.9-92.7,172.2-92.9l0.8,3.9
						C2334.2,1891,2206.4,1910.8,2166.2,1981.7z"/>
					<path class="st6" d="M2151.4,2023.5c-12.8-66.6-46.4-132.6-102.6-201.9l3.3-2.3c56.7,69.8,90.5,136.4,103.4,203.6
						L2151.4,2023.5z"/>
					<path class="st6" d="M2676.2,965.2l-3.6-2.1c51.8-79.2,86.2-174.4,97.5-205.7c2.7-7.6,3.7-10.2,4.2-11.1l3.7,2
						c-0.4,0.7-1.9,5-3.9,10.5C2762.7,790.1,2728.2,885.6,2676.2,965.2z"/>
					<path class="st6" d="M2571,1081.7l-2.8-3c70.4-56.8,259.6-40.6,267.7-39.9l-0.3,3.9C2833.6,1042.5,2640.1,1025.9,2571,1081.7z"
						/>
				</g>
			</g>
		</g>
		<g>
			
				<linearGradient id="SVGID_7_" gradientUnits="userSpaceOnUse" x1="3927.7795" y1="695.0444" x2="4734.2124" y2="2022.641" gradientTransform="matrix(-0.9731 -0.2303 -0.2303 0.9731 6950.1396 1367.6759)">
				<stop  offset="0" style="stop-color:#A3C5DD"/>
				<stop  offset="1" style="stop-color:#91BAD6"/>
			</linearGradient>
			<path class="st7" d="M2105.4,2448.6c-13.8-5.1,20.2-74.3,1-177.7c-4.8-25.8-21.2-168.5-125.3-196.9c-20.2-5.5-40.4-11-60.6-16.6
				c-6.8-49.9-3.9-98.2,62.1-101.2c102.5-4.6,140.3-164.9,126.4-228c-17.2-78.1-53.3-260.7,104.9-270.3
				c131.7-7.9,219.4,12.8,261.3-136c41.9-148.8,149.5-222.4,291.8-179.4c149.7,45.2,316.4-117,426.6-23.6
				c192,162.8-77.6,448.8-362.4,483c-284.8,34.2-153.5,159.8-173.6,285c-2.5,11.5-7.3,29.2-17,48.9
				c-59.3,121.6-198.5,112.2-319.2,194.7C2156.9,2243,2128.5,2457.2,2105.4,2448.6z"/>
			<g>
				<defs>
					<path id="SVGID_8_" d="M2253.9,2176.7l-330.2-80.4c-9.1-49-14.9-136.7,58.8-140c102.5-4.6,140.3-164.9,126.4-228
						c-17.2-78.1-53.3-260.7,104.9-270.3c131.7-7.9,219.4,12.8,261.3-136c41.9-148.8,149.5-222.4,291.8-179.4
						c149.7,45.2,316.4-117,426.6-23.6c192,162.8-77.6,448.8-362.4,483c-284.8,34.2-153.5,159.8-173.6,285
						c-27.5,170.8-259.7,78.2-337.8,129.4C2258.6,2056.4,2252,2130.1,2253.9,2176.7z"/>
				</defs>
				<clipPath id="SVGID_9_">
					<use xlink:href="#SVGID_8_"  style="overflow:visible;"/>
				</clipPath>
				<g class="st8">
					<path class="st6" d="M2109.7,2089.6l-6.7-3c212.7-462,662.7-814.5,1174.5-920l1.8,6.8
						C2769.6,1278.5,2321.5,1629.5,2109.7,2089.6z"/>
					<path class="st6" d="M2248.6,1848l-7.2-1.7c43.8-195.1-98.2-389.3-99.6-391.3l5.9-3.9C2149.2,1453.1,2293.1,1649.8,2248.6,1848
						z"/>
					<path class="st6" d="M2151.3,2005.7l-5.6-4.7c138.1-150.4,522.7-84.4,526.6-83.7l-1.1,6.9
						C2667.4,1923.5,2286.8,1858.2,2151.3,2005.7z"/>
					<path class="st6" d="M2597.8,1486.2l-6-4.3c98.2-128.2,48.8-373.4,48.3-375.9l7.2-1.1
						C2647.9,1107.5,2697.8,1355.7,2597.8,1486.2z"/>
					<path class="st6" d="M2877.7,1311.8l-2.5-6.7c181.7-55.2,418.9,56,421.2,57.2l-3.1,6.2
						C3291.1,1367.4,3056.5,1257.4,2877.7,1311.8z"/>
				</g>
			</g>
		</g>
	</g>
	<g>
		
			<linearGradient id="SVGID_10_" gradientUnits="userSpaceOnUse" x1="8.6717" y1="2079.5088" x2="2888.7488" y2="2079.5088" gradientTransform="matrix(1 0 -0.2009 1.0457 646.8453 -147.4554)">
			<stop  offset="0" style="stop-color:#308DFF"/>
			<stop  offset="0.9964" style="stop-color:#82B0D0"/>
		</linearGradient>
		<path class="st9" d="M2088.3,936.4L417.9,1089.1c100.9,62.3,257.1,187.3,351.1,440.4c185.1,498.4-20.6,962.6,201.9,1297.9
			c59.2,89.2,186.8,250.7,384,290.3l1595.2-217.5c-522.3-151.4-664-437.8-691.3-681.9c-27.3-245,50.5-538-42.7-932.3
			C2177.9,1124.8,2125.9,1008.8,2088.3,936.4z"/>
		<path class="st10" d="M624.4,664.6c490.5-30.8,981-61.6,1471.5-92.4c66,56,158.8,155.4,219.2,327.5
			c139.1,396-22.9,787.6,23.9,1172.6c29.9,245.5,153,553,594.1,758.5c-526.7,68.9-1053.4,137.8-1580.1,206.8
			c-108.8-41.7-253.9-128.3-337.8-330c-89-213.8-26.7-358.4-57.3-1030.3c-21.6-472.9-64-659.4-152.4-808.9
			C744.3,764.9,675.3,702.2,624.4,664.6z"/>
		<g>
			<path class="st11" d="M2232.3,2036c0.3,3.9,0.6,7.8,1,11.6c0.3,3.7-2.3,6.9-5.9,7.3l-1150.5,126.4c-4,0.4-7.5-2.7-7.5-6.7
				c0-3.9,0.1-7.8,0.1-11.8c0-3.4,2.6-6.3,6-6.7l1149.4-126.2C2228.6,2029.5,2232,2032.3,2232.3,2036z"/>
			<path class="st11" d="M2227.7,1912.2c0,3.9,0,7.8,0,11.8c0,3.4-2.6,6.3-6,6.7l-1144.5,121.9c-4,0.4-7.4-2.7-7.4-6.6
				c0-3.9,0-7.8-0.1-11.8c0-3.5,2.6-6.4,6-6.7l1144.6-121.9C2224.3,1905.1,2227.7,1908.2,2227.7,1912.2z"/>
			<path class="st11" d="M2248.7,2158.6c0.7,3.8,1.5,7.7,2.2,11.5c0.8,3.9-1.9,7.6-5.8,8l-1169.9,132.3c-4,0.5-7.5-2.7-7.5-6.8
				c0-3.9,0.1-7.8,0.1-11.8c0-3.4,2.6-6.2,6-6.6l1167.5-132C2244.9,2152.8,2248.1,2155.1,2248.7,2158.6z"/>
			<path class="st11" d="M2232,1787.5c-0.2,4-0.5,7.9-0.7,11.9c-0.2,3.3-2.7,6-6,6.3l-1149.6,118.5c-3.9,0.4-7.3-2.6-7.4-6.5
				c-0.1-3.9-0.2-7.8-0.2-11.8c-0.1-3.5,2.6-6.5,6-6.8l1150.5-118.6C2228.8,1780,2232.3,1783.3,2232,1787.5z"/>
			<path class="st11" d="M2390.9,2515.3c2.4,3.6,4.8,7.2,7.2,10.8c2.8,4.2,0.3,9.9-4.7,10.5l-1268,155.1c-2.9,0.4-5.7-1.2-6.9-3.9
				c-1.7-3.7-3.4-7.5-5.1-11.3c-1.8-4.1,0.9-8.9,5.3-9.4l1265.7-154.8C2387.1,2512.1,2389.5,2513.2,2390.9,2515.3z"/>
			<path class="st11" d="M2325.7,2398.7c1.7,3.7,3.5,7.4,5.3,11.1c2,4.2-0.6,9.1-5.2,9.6L1086,2567.3c-3.5,0.4-6.8-2-7.4-5.5
				c-0.7-3.9-1.3-7.8-2-11.8c-0.6-3.8,2.1-7.2,5.9-7.7l1236.3-147.5C2321.7,2394.5,2324.4,2396,2325.7,2398.7z"/>
			<path class="st11" d="M2279.2,2279.6c1.2,3.8,2.4,7.5,3.7,11.3c1.3,4.1-1.4,8.3-5.6,8.8l-1202,139.7c-3.9,0.5-7.4-2.6-7.5-6.5
				c-0.1-3.9-0.2-7.8-0.2-11.8c-0.1-3.5,2.5-6.4,6-6.8L2272,2274.9C2275.2,2274.6,2278.2,2276.5,2279.2,2279.6z"/>
			<path class="st11" d="M2242,1662.3c-0.4,4-0.7,7.9-1.1,11.9c-0.3,3.2-2.8,5.8-6,6.1l-1162.6,115.7c-3.9,0.4-7.3-2.6-7.4-6.5
				c-0.1-3.9-0.3-7.8-0.4-11.7c-0.1-3.5,2.5-6.6,6.1-6.9L2234.7,1655C2238.9,1654.6,2242.4,1658.1,2242,1662.3z"/>
			<path class="st11" d="M2207.3,917.7c3-0.2,5.8,1.5,6.8,4.4c1.4,3.8,2.8,7.7,4.2,11.6c0,0,0,0.1,0,0.1c1.5,4.1-1.5,8.5-5.9,8.9
				l-1222.1,93.1c-3.2,0.2-6.1-1.8-7-4.9c-1.1-3.8-2.2-7.7-3.2-11.4c-1.2-4.1,1.7-8.2,5.9-8.6L2207.3,917.7z"/>
			<path class="st11" d="M2248.7,1042.8c0.8,3.9,1.6,7.8,2.4,11.7c0.8,3.9-2.1,7.7-6.1,8L1018.8,1161c-3.4,0.3-6.5-2.1-7.2-5.5
				c-0.7-3.9-1.4-7.7-2.1-11.5c-0.7-3.9,2.1-7.6,6.1-7.9l1226-98.5C2244.9,1037.2,2248,1039.5,2248.7,1042.8z"/>
			<path class="st11" d="M2155.2,817.9l-1209,91.9c-2.8,0.2-5.5-1.4-6.7-4c-13.7-31.5-28.9-61.1-45.7-89.5
				c-8.5-14.3-17.3-28.3-26.4-41.9c-2.9-4.3-0.1-10.1,5.1-10.5l1189.8-80.2c2-0.1,3.9,0.6,5.3,2c35.5,35.9,66.5,76.7,93,122.1
				C2163,812.1,2160.1,817.5,2155.2,817.9z"/>
			<path class="st11" d="M2254.3,1537.2c-0.4,4-0.8,7.9-1.2,11.9c-0.3,3.2-2.9,5.7-6.1,6.1l-1179.9,113.2c-3.8,0.4-7.2-2.6-7.4-6.4
				c-0.2-3.9-0.4-7.8-0.6-11.7c-0.2-3.6,2.5-6.7,6.1-7l1181.6-113.4C2251.1,1529.4,2254.7,1533,2254.3,1537.2z"/>
			<path class="st11" d="M2265,1412.3c-0.3,4-0.6,7.9-0.9,11.9c-0.2,3.3-2.8,5.9-6.1,6.2l-1197.8,110.4c-3.8,0.3-7.1-2.5-7.3-6.3
				c-0.2-3.9-0.5-7.8-0.7-11.7c-0.2-3.6,2.5-6.8,6.1-7.1l1199.4-110.6C2261.8,1404.8,2265.3,1408.2,2265,1412.3z"/>
			<path class="st11" d="M2270.3,1288.1c0,3.9-0.1,7.9-0.2,11.8c-0.1,3.4-2.7,6.3-6.1,6.6l-1213.1,107.2c-3.7,0.3-7-2.4-7.3-6.1
				c-0.3-3.9-0.7-7.8-1-11.7c-0.3-3.7,2.4-7,6.1-7.3L2263,1281.4C2266.9,1281,2270.3,1284.2,2270.3,1288.1z"/>
			<path class="st11" d="M2266.2,1164.9c0.3,3.9,0.6,7.8,0.9,11.8c0.3,3.7-2.5,6.9-6.2,7.2l-1223.2,103.3c-3.6,0.3-6.8-2.3-7.2-5.9
				c-0.5-3.9-1-7.8-1.5-11.6c-0.5-3.8,2.3-7.2,6.1-7.5l1223.7-103.3C2262.6,1158.4,2265.9,1161.2,2266.2,1164.9z"/>
		</g>
	</g>
	<g>
		<path class="st12" d="M2342.6,1912.5c-350.7-112.8-988-302.2-1057.2-213.1c-45.4,58.5-38.2,110.7-38.2,110.7
			c4.8,34.5,25.7,58,35.5,68.7c298.4,326.5,424.7,384,424.7,384c59.6,29,141.2,60.3,241.5,75.9c198,31,359.5-16.1,442.7-47.5
			c-15.4-38.7-30.4-85.6-40.8-139.7C2332.6,2056,2335.4,1973.1,2342.6,1912.5z"/>
		<g>
			<path class="st13" d="M2103.1,1391.3c118.6-16.7,214.6,73.6,214.3,201.6s-96.6,245.3-215.2,262
				c-118.6,16.7-214.6-73.6-214.3-201.6S1984.5,1407.9,2103.1,1391.3z"/>
		</g>
		<g>
			<path class="st14" d="M2103.5,1169.9c231.9-32.6,419.5,143.9,419,394.2c-0.5,250.3-188.8,479.6-420.7,512.2
				c-231.9,32.6-419.5-143.9-419-394.2C1683.3,1431.8,1871.6,1202.5,2103.5,1169.9z M2102.2,1854.8
				c118.6-16.7,214.9-133.9,215.2-262s-95.7-218.3-214.3-201.6c-118.6,16.7-215,134-215.2,262
				C1887.7,1781.3,1983.6,1871.5,2102.2,1854.8z"/>
		</g>
		<g>
			<path class="st15" d="M2544.5,1071.5c-373.4-203.1-789.8-37.2-1070.5,240.5c-89.7,88.7-169.9,186.8-245,288
				c-28,37.8-80.4,86.6-64.4,140.1c7.5,25,29.6,45.7,45.1,65.2c43.1,54.1,88.9,106.2,138.6,154.3c79.6,77.1,167.5,137.5,264.5,190.3
				c-94.2-51.3-177.8-120.4-252.2-197.3c-48.5-50-93.1-128.5-116.5-195.2c-19.2-54.7-5.3-72.2,24.2-112.1
				c158.2-213.9,344.8-443.9,590.1-558.6c230.5-107.8,502.2-115.2,728.1,7.6C2572.7,1086.8,2558.6,1079.1,2544.5,1071.5z"/>
			<g>
				<path class="st10" d="M2985.4,1436.2c20,22.1,21.5,58.3,3.6,87.6c-236.9,388.8-508.2,653.6-882.7,709c-2.3,0.3-4.7,0.7-7,1
					c-372.2,52.3-641.9-132.3-882.5-451.1c-18.1-24-16.9-60.8,3-88.8c252.3-356,525.1-631,889.5-682.2c6.9-1,13.8-1.9,20.8-2.7
					C2486,967.8,2720.4,1143.1,2985.4,1436.2z M2101.8,2076.2c231.9-32.6,420.2-261.9,420.7-512.2c0.5-250.3-187.1-426.7-419-394.2
					c-231.9,32.6-420.3,261.9-420.7,512.2C1682.3,1932.3,1869.9,2108.8,2101.8,2076.2z"/>
			</g>
			<path class="st16" d="M2415.5,1026.1l-42.2-22.9c48.9,12.7,95.8,30.4,141.2,52.8l42.2,22.9
				C2511.2,1056.5,2464.4,1038.8,2415.5,1026.1z"/>
			<path class="st15" d="M2556.7,1078.9l-42.2-22.9c10.1,5,20.1,10.2,30,15.6l42.2,22.9C2576.8,1089,2566.8,1083.8,2556.7,1078.9z"
				/>
		</g>
	</g>
	<g>
		
			<linearGradient id="SVGID_11_" gradientUnits="userSpaceOnUse" x1="-2229.8911" y1="2409.6663" x2="-2029.0715" y2="2614.0718" gradientTransform="matrix(-0.9968 7.990000e-02 7.990000e-02 0.9968 -324.9188 65.4365)">
			<stop  offset="0" style="stop-color:#4288B9"/>
			<stop  offset="1" style="stop-color:#2676AE"/>
		</linearGradient>
		<path class="st17" d="M2032.5,2317.8c7-9.2,17.6-24,18.1-32c0.5-8,11.7,3,3.8,20.9c-2.4,5.4-1.9,7.5-0.7,9.1
			c3.6,4.6,16-5.2,24.6-0.6c8.6,4.6,11.7,23,4.1,32c-5.6,6.7-14.2,1.8-24.2,6.5c-7.9,3.8-6,13.4-9.8,37.8c-7.9-0.4-25.5,13-28.5,5.6
			C2008.8,2369,2025.5,2327.1,2032.5,2317.8z"/>
		
			<linearGradient id="SVGID_12_" gradientUnits="userSpaceOnUse" x1="1020.2778" y1="2505.6655" x2="1458.0109" y2="2521.4602" gradientTransform="matrix(-1 0 0 1 3036.0095 0)">
			<stop  offset="3.597120e-03" style="stop-color:#A3C5DD"/>
			<stop  offset="1" style="stop-color:#78AACD"/>
		</linearGradient>
		<path class="st18" d="M2013.5,2381.4c16.2-1.1,32.3-2.3,48.5-3.4c38.1,154.2,10.8,303.7-75.3,358.7
			c-134.5,85.9-384.5-76-438.7-252.2c-23.8-77.4-18.4-189,29.2-210.7c13.2-6,33.7-7,78,17.9c132.5,74.4,135.9,214.9,203.3,226.8
			C1888.4,2523.8,1936.8,2504.7,2013.5,2381.4z"/>
		
			<linearGradient id="SVGID_13_" gradientUnits="userSpaceOnUse" x1="-848.9319" y1="3701.7974" x2="-1648.907" y2="2553.3179" gradientTransform="matrix(-0.9968 7.990000e-02 7.990000e-02 0.9968 -324.9188 65.4365)">
			<stop  offset="3.597120e-03" style="stop-color:#A3C5DD"/>
			<stop  offset="1" style="stop-color:#78AACD"/>
		</linearGradient>
		<path class="st19" d="M1643.2,3109.9c23.3-38.7-6-75.9-12.6-149.2c-7.5-83,24.4-96.8,56.1-234.4c21-91.5,41.2-179.3,17.1-282.1
			c-11.5-49.3-31.1-132.8-100.3-173.2c-35.7-20.8-84.4-18.7-180.4-13.7c-118.7,6.2-178.1,9.3-222.4,32.6
			c-6.5,3.4-141.2,76.7-150.4,196.1c-9.4,121.5,122.9,137.9,140.6,299.9c7.9,72.8-6.2,184.7-15.4,257.2
			c-8.8,69.7-14.8,87.5-1.1,108.6c33.1,50.9,134.6,36.4,337.6,7.4C1591.5,3147.8,1625.8,3138.7,1643.2,3109.9z"/>
		
			<linearGradient id="SVGID_14_" gradientUnits="userSpaceOnUse" x1="-849.0052" y1="3701.8591" x2="-1648.9945" y2="2553.3594" gradientTransform="matrix(-0.9968 7.990000e-02 7.990000e-02 0.9968 -324.9188 65.4365)">
			<stop  offset="3.597120e-03" style="stop-color:#A3C5DD"/>
			<stop  offset="1" style="stop-color:#78AACD"/>
		</linearGradient>
		<path class="st20" d="M1334.4,2759.8c-8.6,31.6-39.4,55.2-60.9,132c-4.6,16.6-37.7,134.7,5.2,163.8c24.8,16.8,47-15,107.1-19.2
			c104.1-7.2,153.7,80.3,221.7,56.4c11.8-4.2,27.4-13,42.9-33.3c3.1,18.3,2.6,34.2-7.1,50.3c-17.4,28.8-51.7,37.9-131.3,49.3
			c-203,29-304.4,43.5-337.6-7.4c-13.8-21.1-7.7-38.9,1.1-108.6c9.2-72.6,23.3-184.5,15.4-257.2c-17.7-162.1-150-178.4-140.6-299.9
			c2.5-32.5,14.5-61.4,30.5-86.6C1248.6,2467.3,1361.3,2660.6,1334.4,2759.8z"/>
		
			<linearGradient id="SVGID_15_" gradientUnits="userSpaceOnUse" x1="-1336.1465" y1="3064.7903" x2="-1207.1101" y2="3064.7903" gradientTransform="matrix(-0.9968 7.990000e-02 7.990000e-02 0.9968 -324.9188 65.4365)">
			<stop  offset="0" style="stop-color:#4288B9"/>
			<stop  offset="1" style="stop-color:#2676AE"/>
		</linearGradient>
		<path class="st21" d="M1122.3,2998.9l33.6,21.4c6-7,20-21,41.8-25.8c24.6-5.4,52.8,2.3,53.4,10.2c0.5,6.3-16.6,12.6-19.3,13.6
			c-21.4,7.9-37.3,1.3-46,10c-3.1,3-6.9,8.7-15.7,14c-2.3,1.4-4.7,2.6-6,3.1c-14.3,5.6-38.8-19.3-41-21.5L1122.3,2998.9z"/>
		
			<linearGradient id="SVGID_16_" gradientUnits="userSpaceOnUse" x1="-624.5853" y1="3545.5278" x2="-1424.5684" y2="2397.0369" gradientTransform="matrix(-0.9968 7.990000e-02 7.990000e-02 0.9968 -324.9188 65.4365)">
			<stop  offset="3.597120e-03" style="stop-color:#A3C5DD"/>
			<stop  offset="1" style="stop-color:#78AACD"/>
		</linearGradient>
		<path class="st22" d="M1221.5,2558.3c24.3-58.2,41.1-147.3,2.8-279.7c-252.9,99.7-381.9,335.9-331.5,523.2
			c41.5,154.4,192.6,229.6,226.3,245.4c7.8-17.8,15.7-35.7,23.5-53.5c-39-43.5-83-107.8-76.8-181.1
			C1074.3,2710.9,1172.3,2676.1,1221.5,2558.3z"/>
		
			<linearGradient id="SVGID_17_" gradientUnits="userSpaceOnUse" x1="-2922.6709" y1="4566.6748" x2="-2922.6709" y2="4337.9819" gradientTransform="matrix(-0.7795 0.6265 0.6265 0.7795 -3649.3015 622.2045)">
			<stop  offset="0" style="stop-color:#4288B9"/>
			<stop  offset="1" style="stop-color:#2676AE"/>
		</linearGradient>
		<path class="st23" d="M1416.8,2137.5c0,0-2,44.2-15.7,77.4c-12.4,29.9-77.7,48.8-90.9,55.5c-13.2,6.7,24.8,26.2,63,30.1
			c38.2,3.8,147.2-4.8,166.9-19.3c19.7-14.5-15.8-13.4-43.1-23.4c-27.3-10-43-63.3-38.2-87.5
			C1463.5,2146,1416.8,2137.5,1416.8,2137.5z"/>
		
			<linearGradient id="SVGID_18_" gradientUnits="userSpaceOnUse" x1="1582.2332" y1="2302.9631" x2="1588.9679" y2="2219.9009" gradientTransform="matrix(-1 0 0 1 3036.0095 0)">
			<stop  offset="0" style="stop-color:#337EB3"/>
			<stop  offset="0.9964" style="stop-color:#0863A3"/>
		</linearGradient>
		<path class="st24" d="M1477.2,2121.5c19.8-19.5,22.6-21.7,24.7-28.5c8.7-27-12.3-64-39.8-73.1c-1.4-0.5-19.9-6.4-26.9,1.6
			c-6,6.8,2.8,16.2-1.4,29.2c-3.9,12.2-14.5,13.2-34.2,29.2c-16.2,13.2-26.3,21.5-28.6,33c-4.8,23.8,24.1,58.4,49.6,57.5
			C1429.9,2170.2,1432.4,2165.5,1477.2,2121.5z"/>
		<g>
			
				<linearGradient id="SVGID_19_" gradientUnits="userSpaceOnUse" x1="-3084.3245" y1="4500.7676" x2="-2977.4021" y2="4292.8633" gradientTransform="matrix(-0.7795 0.6265 0.6265 0.7795 -3649.3015 622.2045)">
				<stop  offset="0" style="stop-color:#4288B9"/>
				<stop  offset="1" style="stop-color:#2676AE"/>
			</linearGradient>
			<path class="st25" d="M1423.2,2174.2c0,0,21.1,23.8,53.1,16c28.7-7.1,21.4-73,0.4-83.5c-7-3.5-19.8-3.2-29.3,1.4
				c-5.7,2.7-7.2,5.6-16.6,9.8c-8.6,3.9-11.3,3.4-13.7,6.2c-2.9,3.5-4.1,10.9,4.9,29c-6.5-4.6-13.6-5.6-17.9-2.5
				c-0.7,0.5-2.4,2.2-3.2,4.5C1398.3,2163.1,1406.7,2171.4,1423.2,2174.2z"/>
		</g>
	</g>
</g>
</svg>
