<?xml version="1.0" encoding="utf-8"?>
<!-- Generator: Adobe Illustrator 18.0.0, SVG Export Plug-In . SVG Version: 6.00 Build 0)  -->
<!DOCTYPE svg PUBLIC "-//W3C//DTD SVG 1.1//EN" "http://www.w3.org/Graphics/SVG/1.1/DTD/svg11.dtd">
<svg version="1.1" id="image" xmlns="http://www.w3.org/2000/svg" xmlns:xlink="http://www.w3.org/1999/xlink" x="0px" y="0px"
	 viewBox="0 0 639.3 509" style="enable-background:new 0 0 639.3 509;" xml:space="preserve">
<style type="text/css">
	.st0{opacity:0.31;}
	.st1{fill:#B3D5FF;}
	.st2{fill:#F8FBFF;}
	.st3{fill:#DCECFF;}
	.st4{fill:#ABD1FF;}
	.st5{fill:#FFFFFF;}
	.st6{fill:#A8CFFF;}
	.st7{fill:#F2F8FF;}
	.st8{fill:#F7FBFF;}
	.st9{fill:#CEE4FF;}
	.st10{fill:#5292BE;}
	.st11{fill:#005EA0;}
	.st12{fill:#2676AE;}
	.st13{fill:#C6E0FF;}
	.st14{fill:#ADD2FF;}
	.st15{fill:#B7D7FF;}
	.st16{fill:#E7F2FF;}
	.st17{fill:#308DFF;}
	.st18{fill:#E5F1FF;}
	.st19{fill:#C8E1FF;}
</style>
<g>
	<g class="st0">
		<path class="st1" d="M291.7,509l-133.2-97.1c-9.3-5.4-8.1-14.7,2.6-20.9L442,229.4c10.7-6.2,26.9-6.8,36.2-1.4l154.9,89.7
			c9.3,5.4,8.1,14.7-2.6,20.9L349.6,500.1C338.9,506.3,323.7,508.2,291.7,509z"/>
	</g>
	<g>
		<path class="st2" d="M593.9,321.4L439,231.7c-9.3-5.4-25.5-4.7-36.2,1.4L131.7,389.1c2.4-6.6,4.9-13.7,4.9-13.7l-23.6,5.7
			l0.4,23.2c-1.1,4.2,0.8,8.4,5.9,11.4l154.9,89.7c9.3,5.4,25.5,4.7,36.2-1.4l280.8-161.6C602,336.2,603.1,326.8,593.9,321.4z"/>
	</g>
	<g>
		<path class="st3" d="M600.2,305.1l-29.9,2.7l-131.2-76c-9.3-5.4-25.5-4.7-36.2,1.4L291.2,419.4l0.6,89.6c6.6-0.3,13.3-2,18.7-5.1
			l280.8-161.6c6.1-3.5,9.1-8.1,8.9-12.4L600.2,305.1z"/>
	</g>
	<g>
		<path class="st4" d="M265.7,486.9c0,2.7-1.9,3.8-4.3,2.4c-2.3-1.4-4.2-4.6-4.2-7.3c0-2.7,1.9-3.8,4.3-2.4
			C263.9,480.9,265.8,484.2,265.7,486.9z"/>
	</g>
	<g>
		<path class="st5" d="M274.2,479.3l-154.9-89.7c-9.3-5.4-8.1-14.7,2.6-20.9l280.8-161.6c10.7-6.2,26.9-6.8,36.2-1.4l154.9,89.7
			c9.3,5.4,8.1,14.7-2.6,20.9L310.4,477.9C299.7,484.1,283.5,484.7,274.2,479.3z"/>
	</g>
	<g>
		<path class="st4" d="M274.2,474.3l-154.9-89.7c-9.3-5.4-8.1-14.7,2.6-20.9l280.8-161.6c10.7-6.2,26.9-6.8,36.2-1.4l154.9,89.7
			c9.3,5.4,8.1,14.7-2.6,20.9L310.4,472.9C299.7,479.1,283.5,479.7,274.2,474.3z"/>
	</g>
	<g>
		<path class="st6" d="M521.6,269l-42.8-24.8c-1.8-1-1.5-2.8,0.5-4l0,0c2-1.2,5.2-1.3,6.9-0.3l42.8,24.8c1.8,1,1.5,2.8-0.5,4v0
			C526.5,269.9,523.4,270,521.6,269z"/>
	</g>
	<g>
		<path class="st4" d="M210.6,458.9L176.2,439c-1.5-0.8-2.6-3.1-2.6-5.1l0,0c0-1.9,1.2-2.8,2.7-2l34.3,19.9c1.5,0.8,2.6,3.1,2.6,5.1
			v0C213.2,458.8,212,459.7,210.6,458.9z"/>
	</g>
	<g>
		<path class="st7" d="M411.5,216.4L175.4,352.3c-5.5,3.2-5.5,11.1,0,14.3l143.1,82.9c2.5,1.5,5.7,1.5,8.2,0l236.2-135.9
			c5.5-3.2,5.5-11.1,0-14.3l-143.1-82.9C417.2,214.9,414.1,214.9,411.5,216.4z"/>
	</g>
	<g>
		<path class="st8" d="M536.7,360L536.7,360c0.4,2.9,2.7,4.1,5.2,2.6l16.9-9.8c2.5-1.4,4.3-5,3.9-7.9l0,0c-0.4-2.9-2.7-4.1-5.2-2.6
			l-16.9,9.8C538.1,353.5,536.4,357.1,536.7,360z"/>
	</g>
	<g>
		<path class="st9" d="M538.1,361.5L538.1,361.5c0.4,2.9,2.7,4.1,5.2,2.6l16.9-9.8c2.5-1.4,4.3-5,3.9-7.9l0,0
			c-0.4-2.9-2.7-4.1-5.2-2.6l-16.9,9.8C539.5,355.1,537.8,358.6,538.1,361.5z"/>
	</g>
	<g>
		<path class="st8" d="M506.2,378.1L506.2,378.1c0.4,2.9,2.7,4.1,5.2,2.6l16.9-9.8c2.5-1.4,4.3-5,3.9-7.9v0
			c-0.4-2.9-2.7-4.1-5.2-2.6l-16.9,9.8C507.6,371.6,505.8,375.2,506.2,378.1z"/>
	</g>
	<g>
		<path class="st9" d="M507.4,379.3L507.4,379.3c0.4,2.9,2.7,4.1,5.2,2.6l16.9-9.8c2.5-1.4,4.3-5,3.9-7.9l0,0
			c-0.4-2.9-2.7-4.1-5.2-2.6l-16.9,9.8C508.8,372.9,507.1,376.4,507.4,379.3z"/>
	</g>
</g>
<g>
	<g class="st0">
		<path class="st1" d="M331.8,414.8L474,331.3c8.4-4.9,7.3-13.5-2.5-19l-48.1-27.3c-9.8-5.5-24.6-6-33-1.1l-142.2,83.6
			c-8.4,4.9-7.3,13.5,2.5,19l48.1,27.3C308.5,419.3,323.4,419.8,331.8,414.8z"/>
	</g>
	<g>
		<g>
			<polygon class="st10" points="421.8,197.3 462.6,173.4 421.7,150.3 380.7,174.1 			"/>
		</g>
		<g>
			<polygon class="st11" points="462.6,173.4 463,225 463.6,311.7 422.9,335.5 421.8,197.3 			"/>
		</g>
		<g>
			<polygon class="st12" points="421.8,197.3 422.9,335.5 381.8,312.3 380.7,174.1 			"/>
		</g>
		<g>
			<polygon class="st13" points="370.5,281.7 411,257.8 370.3,234.7 329.6,258.6 			"/>
		</g>
		<g>
			<polygon class="st14" points="371.2,368.4 411.4,344.5 410.8,257.9 370.5,281.7 			"/>
		</g>
		<g>
			<polygon class="st15" points="371.2,368.4 330.6,345.1 329.9,258.5 370.5,281.7 			"/>
		</g>
		<g>
			<polygon class="st5" points="316.4,347.4 357,323.5 316.3,300.4 275.3,324.3 			"/>
		</g>
		<g>
			<polygon class="st7" points="317.5,402.5 275.7,377.8 275.3,324.3 317.1,347.5 			"/>
		</g>
		<g>
			<g>
				<polygon class="st16" points="316.8,402.4 316.3,347.4 356.9,323.5 357.4,378.5 				"/>
			</g>
		</g>
	</g>
</g>
<g>
	<path class="st14" d="M488.9,116.5c-2.2,0-4.6-0.7-7-2.1l-12.9-7.4l-7.5,6.9c-1.2,1.1-2.8,1.5-4.4,1.2c-1.6-0.3-2.9-1.3-3.6-2.8
		l-9.6-19.8l-5.5-3.2c-9.3-5.4-17-19.9-17-32.3V26c0-6.7,2.3-11.9,6.2-14.1c3.3-1.9,7.5-1.6,11.7,0.8l43.3,25l0,0
		c9.3,5.4,17,19.9,17,32.3v31.1c0,6.7-2.3,11.9-6.2,14.1C492.2,116.1,490.6,116.5,488.9,116.5z M468.9,104.8c0.2,0,0.3,0,0.5,0.1
		l13.5,7.8c3.6,2.1,7.1,2.4,9.7,0.8c3.3-1.9,5.2-6.4,5.2-12.4V70c0-11.8-7.2-25.5-16-30.6l-43.3-25c-3.6-2.1-7.1-2.4-9.7-0.8
		c-3.3,1.9-5.2,6.4-5.2,12.4v31.1c0,11.8,7.2,25.5,16,30.6l5.8,3.3c0.2,0.1,0.3,0.3,0.4,0.4l9.7,20.1c0.4,0.9,1.2,1.5,2.2,1.7
		c0.9,0.2,1.9-0.1,2.6-0.7l8-7.4C468.4,104.8,468.7,104.8,468.9,104.8z"/>
</g>
<g>
	<path class="st14" d="M518.4,91.5c-0.6,0-1-0.4-1-1V59.4c0-11.8-7.2-25.5-16-30.6l-43.3-25c-3.3-1.9-6.4-2.3-9-1.2
		c-2.6,1.1-4.5,3.7-5.4,7.3c-0.1,0.5-0.7,0.9-1.2,0.7c-0.5-0.1-0.9-0.7-0.7-1.2c1.1-4.3,3.4-7.3,6.5-8.7c3.2-1.3,6.9-0.9,10.7,1.4
		l43.3,25c9.3,5.4,17,19.9,17,32.3v31.1C519.4,91.1,519,91.5,518.4,91.5z"/>
</g>
<g>
	<path class="st5" d="M531.4,42"/>
</g>
<g>
	<path class="st17" d="M455.5,42.3l-3.2,5.5c-0.5,0.9-1.5,1.2-2.7,0.7l-7.1-2.9c-2.9-1.2-4.1,2.2-2,5.8l5.1,8.7c0.8,1.4,1.2,3,1,4.2
		l-1.2,7.4c-0.5,3,2.5,7.3,5.1,7.2l6.3-0.2c1,0,2.3,0.7,3.3,1.9l6.3,7.5c2.6,3.1,5.6,2.3,5.1-1.3l-1.2-8.8c-0.2-1.4,0.2-2.6,1-3
		l5.1-2.8c2.1-1.1,0.9-5.9-2-8l-7.1-5.3c-1.2-0.9-2.1-2.3-2.7-3.8l-3.2-9.2C460.6,42.2,456.8,40.1,455.5,42.3z"/>
</g>
<g>
	<path class="st14" d="M344.1,124c-2.2,0-4.6-0.7-7-2.1l-12.9-7.4l-7.5,6.9c-1.2,1.1-2.8,1.5-4.4,1.2c-1.6-0.3-2.9-1.3-3.6-2.8
		l-9.6-19.8l-5.5-3.2c-9.3-5.4-17-19.9-17-32.3V33.5c0-6.7,2.3-11.9,6.2-14.1c3.3-1.9,7.5-1.6,11.7,0.8l43.3,25l0,0
		c9.3,5.4,17,19.9,17,32.3v31.1c0,6.7-2.3,11.9-6.2,14.1C347.4,123.6,345.8,124,344.1,124z M324.1,112.2c0.2,0,0.3,0,0.5,0.1
		l13.5,7.8c3.6,2.1,7.1,2.4,9.7,0.8c3.3-1.9,5.2-6.4,5.2-12.4V77.5c0-11.8-7.2-25.5-16-30.6l-43.3-25c-3.6-2.1-7.1-2.4-9.7-0.8
		c-3.3,1.9-5.2,6.4-5.2,12.4v31.1c0,11.8,7.2,25.5,16,30.6l5.8,3.3c0.2,0.1,0.3,0.3,0.4,0.4l9.7,20.1c0.4,0.9,1.2,1.5,2.2,1.7
		c0.9,0.2,1.9-0.1,2.6-0.7l8-7.4C323.6,112.3,323.9,112.2,324.1,112.2z"/>
</g>
<g>
	<path class="st14" d="M373.6,99c-0.6,0-1-0.4-1-1V66.9c0-11.8-7.2-25.5-16-30.6l-43.3-25c-3.3-1.9-6.4-2.3-9-1.2
		c-2.6,1.1-4.5,3.7-5.4,7.3c-0.1,0.5-0.7,0.9-1.2,0.7c-0.5-0.1-0.9-0.7-0.7-1.2c1.1-4.3,3.4-7.3,6.5-8.7c3.2-1.3,6.9-0.9,10.7,1.4
		l43.3,25c9.3,5.4,17,19.9,17,32.3V98C374.6,98.5,374.2,99,373.6,99z"/>
</g>
<g>
	<path class="st5" d="M399.8,84.7"/>
</g>
<g>
	<path class="st17" d="M310.7,49.8l-3.2,5.5c-0.5,0.9-1.5,1.2-2.7,0.7l-7.1-2.9c-2.9-1.2-4.1,2.2-2,5.8l5.1,8.7c0.8,1.4,1.2,3,1,4.2
		l-1.2,7.4c-0.5,3,2.5,7.3,5.1,7.2l6.3-0.2c1,0,2.3,0.7,3.3,1.9l6.3,7.5c2.6,3.1,5.6,2.3,5.1-1.3l-1.2-8.8c-0.2-1.4,0.2-2.6,1-3
		l5.1-2.8c2.1-1.1,0.9-5.9-2-8l-7.1-5.3c-1.2-0.9-2.1-2.3-2.7-3.8l-3.2-9.2C315.8,49.7,312,47.6,310.7,49.8z"/>
</g>
<g>
	<path class="st14" d="M231.6,234.5c-2.2,0-4.6-0.7-7-2.1l-12.9-7.4l-7.5,6.9c-1.2,1.1-2.8,1.5-4.4,1.2c-1.6-0.3-2.9-1.3-3.6-2.8
		l-9.6-19.8l-5.5-3.2c-9.3-5.4-17-19.9-17-32.3V144c0-6.7,2.3-11.9,6.2-14.1c3.3-1.9,7.5-1.6,11.7,0.8l43.3,25l0,0
		c9.3,5.4,17,19.9,17,32.3v31.1c0,6.7-2.3,11.9-6.2,14.1C234.9,234.1,233.3,234.5,231.6,234.5z M211.6,222.7c0.2,0,0.3,0,0.5,0.1
		l13.5,7.8c3.6,2.1,7.1,2.4,9.7,0.8c3.3-1.9,5.2-6.4,5.2-12.4V188c0-11.8-7.2-25.5-16-30.6l-43.3-25c-3.6-2.1-7.1-2.4-9.7-0.8
		c-3.3,1.9-5.2,6.4-5.2,12.4v31.1c0,11.8,7.2,25.5,16,30.6l5.8,3.3c0.2,0.1,0.3,0.3,0.4,0.4l9.7,20.1c0.4,0.9,1.2,1.5,2.2,1.7
		c0.9,0.2,1.9-0.1,2.6-0.7l8-7.4C211.1,222.8,211.4,222.7,211.6,222.7z"/>
</g>
<g>
	<path class="st14" d="M261.1,209.5c-0.6,0-1-0.4-1-1v-31.1c0-11.8-7.2-25.5-16-30.6l-43.3-25c-3.3-1.9-6.4-2.3-9-1.2
		c-2.6,1.1-4.5,3.7-5.4,7.3c-0.1,0.5-0.7,0.9-1.2,0.7c-0.5-0.1-0.9-0.7-0.7-1.2c1.1-4.3,3.4-7.3,6.5-8.7c3.2-1.3,6.9-0.9,10.7,1.4
		l43.3,25c9.3,5.4,17,19.9,17,32.3v31.1C262.1,209,261.7,209.5,261.1,209.5z"/>
</g>
<g>
	<path class="st5" d="M201.6,218.9"/>
</g>
<g>
	<path class="st17" d="M198.2,160.3l-3.2,5.5c-0.5,0.9-1.5,1.2-2.7,0.7l-7.1-2.9c-2.9-1.2-4.1,2.2-2,5.8l5.1,8.7
		c0.8,1.4,1.2,3,1,4.2l-1.2,7.4c-0.5,3,2.5,7.3,5.1,7.2l6.3-0.2c1,0,2.3,0.7,3.3,1.9l6.3,7.5c2.6,3.1,5.6,2.3,5.1-1.3l-1.2-8.8
		c-0.2-1.4,0.2-2.6,1-3l5.1-2.8c2.1-1.1,0.9-5.9-2-8l-7.1-5.3c-1.2-0.9-2.1-2.3-2.7-3.8l-3.2-9.2
		C203.3,160.2,199.5,158.1,198.2,160.3z"/>
</g>
<g>
	<g>
		<path class="st18" d="M68.1,391.5c-15.3,8.9-40.3,8.8-55.7-0.1c-15.4-8.9-15.5-23.3-0.2-32.2s40.3-8.8,55.7,0.1
			S83.5,382.7,68.1,391.5z"/>
	</g>
	<g>
		<path class="st19" d="M68.1,384.3c-15.3,8.9-40.3,8.8-55.7-0.1C-3,375.3-3.1,360.9,12.3,352s40.3-8.8,55.7,0.1
			S83.5,375.4,68.1,384.3z"/>
	</g>
	<g>
		<path class="st5" d="M51.8,382.4c3-2.4,2.3-5.6,0.8-7.5c-0.6-0.7-1.4-1.4-2-2.2c-0.4-0.4-0.7-0.8-1.1-1.2l0,0l0,0
			c-0.3-0.3-0.6-0.6-0.9-0.9l-0.1-0.1l0,0L48,370c0,0,0,0,0,0c-0.1-0.2-0.2-0.4-0.2-0.6c0-0.1-0.1-0.3-0.1-0.3
			c0.1,0,0.2-0.1,0.3-0.1c0.7-0.4,1.4-0.8,2.1-1.1c0,0,0,0,0,0c0.9,0.1,1.7,0.1,2.6,0c0.6-0.1,1.1-0.3,1.6-0.4
			c1.5,0.8,3.3,0.2,4.4-0.2c0.9-0.3,3-1.3,1.5-2.1c0.1,0,0.3-0.1,0.4-0.1c0.8-0.2,1.6-0.5,2.3-0.8c0.6-0.4,1.1-0.8,1.3-1.4
			c0-0.2,0-0.4-0.2-0.6c0.3,0,0.5-0.1,0.7-0.2c1.5-0.9,0.4-2.5-0.6-3.5c-0.7-0.7-1.5-1.4-2.4-2c-1.1-0.5-2.3-1-3.5-1.4
			c-1.8-0.6-4.4-1.2-6-0.4c-0.2,0.1-0.3,0.2-0.4,0.4c-0.3-0.1-0.7-0.2-1-0.1c-1,0.1-1.8,0.4-2.4,0.7c-0.6,0.4-1.1,0.8-1.5,1.3
			c-0.1,0.1-0.1,0.2-0.2,0.2c-1.5-0.9-3.1,0.3-3.7,0.9c-0.7,0.7-1.7,1.7-0.3,2.5c-0.3,0.3-0.6,0.6-0.8,0.9c-0.2,0.5-0.2,1-0.1,1.5
			c0,0,0,0,0,0c-0.7,0.4-1.3,0.8-2,1.2c-0.1,0-0.1,0.1-0.2,0.1c0,0-0.4-0.1-0.5-0.1c-0.4,0-0.7-0.1-1.1-0.1c0,0,0,0,0,0l-0.8-0.3
			l0,0l-0.2-0.1c-0.5-0.2-1-0.4-1.6-0.5l-0.1,0l0,0c-0.7-0.2-1.4-0.4-2.1-0.6c-1.3-0.4-2.5-0.8-3.7-1.2c-3.2-0.9-8.9-1.3-13,0.5
			c-1.9,0.8-1.8,2.1,0.3,3.4l14.4,8.5l14.7,8.3C48.1,383.5,50.4,383.5,51.8,382.4z"/>
	</g>
</g>
<g>
	<g>
		<path class="st18" d="M77.1,355.3c-15.3,8.9-40.3,8.8-55.7-0.1c-15.4-8.9-15.5-23.3-0.2-32.2s40.3-8.8,55.7,0.1
			C92.3,332,92.4,346.4,77.1,355.3z"/>
	</g>
	<g>
		<path class="st19" d="M77.1,348c-15.3,8.9-40.3,8.8-55.7-0.1c-15.4-8.9-15.5-23.3-0.2-32.2s40.3-8.8,55.7,0.1
			C92.3,324.8,92.4,339.2,77.1,348z"/>
	</g>
	<g>
		<path class="st5" d="M60.7,346.2c3-2.4,2.3-5.6,0.8-7.5c-0.6-0.7-1.4-1.4-2-2.2c-0.4-0.4-0.7-0.8-1.1-1.2l0,0l0,0
			c-0.3-0.3-0.6-0.6-0.9-0.9l-0.1-0.1l0,0l-0.5-0.5c0,0,0,0,0,0c-0.1-0.2-0.2-0.4-0.2-0.6c0-0.1-0.1-0.3-0.1-0.3
			c0.1,0,0.2-0.1,0.3-0.1c0.7-0.4,1.4-0.8,2.1-1.1c0,0,0,0,0,0c0.9,0.1,1.7,0.1,2.6,0c0.6-0.1,1.1-0.3,1.6-0.4
			c1.5,0.8,3.3,0.2,4.4-0.2c0.9-0.3,3-1.3,1.5-2.1c0.1,0,0.3-0.1,0.4-0.1c0.8-0.2,1.6-0.5,2.3-0.8c0.6-0.4,1.1-0.8,1.3-1.4
			c0-0.2,0-0.4-0.2-0.6c0.3,0,0.5-0.1,0.7-0.2c1.5-0.9,0.4-2.5-0.6-3.5c-0.7-0.7-1.5-1.4-2.4-2c-1.1-0.5-2.3-1-3.5-1.4
			c-1.8-0.6-4.4-1.2-6-0.4c-0.2,0.1-0.3,0.2-0.4,0.4c-0.3-0.1-0.7-0.2-1-0.1c-1,0.1-1.8,0.4-2.4,0.7c-0.6,0.4-1.1,0.8-1.5,1.3
			c-0.1,0.1-0.1,0.2-0.2,0.2c-1.5-0.9-3.1,0.3-3.7,0.9c-0.7,0.7-1.7,1.7-0.3,2.5c-0.3,0.3-0.6,0.6-0.8,0.9c-0.2,0.5-0.2,1-0.1,1.5
			c0,0,0,0,0,0c-0.7,0.4-1.3,0.8-2,1.2c-0.1,0-0.1,0.1-0.2,0.1c0,0-0.4-0.1-0.5-0.1c-0.4,0-0.7-0.1-1.1-0.1c0,0,0,0,0,0l-0.8-0.3
			l0,0l-0.2-0.1c-0.5-0.2-1-0.4-1.6-0.5l-0.1,0l0,0c-0.7-0.2-1.4-0.4-2.1-0.6c-1.3-0.4-2.5-0.8-3.7-1.2c-3.2-0.9-8.9-1.3-13,0.5
			c-1.9,0.8-1.8,2.1,0.3,3.4l14.4,8.5l14.7,8.3C57,347.2,59.3,347.3,60.7,346.2z"/>
	</g>
</g>
<g>
	<g>
		<path class="st18" d="M76.4,333.3c-15.3,8.9-40.3,8.8-55.7-0.1c-15.4-8.9-15.5-23.3-0.2-32.2s40.3-8.8,55.7,0.1
			S91.8,324.4,76.4,333.3z"/>
	</g>
	<g>
		<path class="st17" d="M76.4,326c-15.3,8.9-40.3,8.8-55.7-0.1c-15.4-8.9-15.5-23.3-0.2-32.2s40.3-8.8,55.7,0.1
			C91.7,302.8,91.8,317.2,76.4,326z"/>
	</g>
	<g>
		<path class="st5" d="M60.1,324.2c3-2.4,2.3-5.6,0.8-7.5c-0.6-0.7-1.4-1.4-2-2.2c-0.4-0.4-0.7-0.8-1.1-1.2l0,0l0,0
			c-0.3-0.3-0.6-0.6-0.9-0.9l-0.1-0.1l0,0l-0.5-0.5c0,0,0,0,0,0c-0.1-0.2-0.2-0.4-0.2-0.6c0-0.1-0.1-0.3-0.1-0.3
			c0.1,0,0.2-0.1,0.3-0.1c0.7-0.4,1.4-0.8,2.1-1.1c0,0,0,0,0,0c0.9,0.1,1.7,0.1,2.6,0c0.6-0.1,1.1-0.3,1.6-0.4
			c1.5,0.8,3.3,0.2,4.4-0.2c0.9-0.3,3-1.3,1.5-2.1c0.1,0,0.3-0.1,0.4-0.1c0.8-0.2,1.6-0.5,2.3-0.8c0.6-0.4,1.1-0.8,1.3-1.4
			c0-0.2,0-0.4-0.2-0.6c0.3,0,0.5-0.1,0.7-0.2c1.5-0.9,0.4-2.5-0.6-3.5c-0.7-0.7-1.5-1.4-2.4-2c-1.1-0.5-2.3-1-3.5-1.4
			c-1.8-0.6-4.4-1.2-6-0.4c-0.2,0.1-0.3,0.2-0.4,0.4c-0.3-0.1-0.7-0.2-1-0.1c-1,0.1-1.8,0.4-2.4,0.7c-0.6,0.4-1.1,0.8-1.5,1.3
			c-0.1,0.1-0.1,0.2-0.2,0.2c-1.5-0.9-3.1,0.3-3.7,0.9c-0.7,0.7-1.7,1.7-0.3,2.5c-0.3,0.3-0.6,0.6-0.8,0.9c-0.2,0.5-0.2,1-0.1,1.5
			c0,0,0,0,0,0c-0.7,0.4-1.3,0.8-2,1.2c-0.1,0-0.1,0.1-0.2,0.1c0,0-0.4-0.1-0.5-0.1c-0.4,0-0.7-0.1-1.1-0.1c0,0,0,0,0,0l-0.8-0.3
			l0,0l-0.2-0.1c-0.5-0.2-1-0.4-1.6-0.5l-0.1,0l0,0c-0.7-0.2-1.4-0.4-2.1-0.6c-1.3-0.4-2.5-0.8-3.7-1.2c-3.2-0.9-8.9-1.3-13,0.5
			c-1.9,0.8-1.8,2.1,0.3,3.4l14.4,8.5l14.7,8.3C56.4,325.2,58.7,325.3,60.1,324.2z"/>
	</g>
</g>
<g>
	<g>
		<path class="st18" d="M67.3,308.2c-15.3,8.9-40.3,8.8-55.7-0.1c-15.4-8.9-15.5-23.3-0.2-32.2s40.3-8.8,55.7,0.1
			S82.7,299.4,67.3,308.2z"/>
	</g>
	<g>
		<path class="st19" d="M67.3,301c-15.3,8.9-40.3,8.8-55.7-0.1c-15.4-8.9-15.5-23.3-0.2-32.2s40.3-8.8,55.7,0.1
			C82.6,277.7,82.7,292.1,67.3,301z"/>
	</g>
	<g>
		<path class="st5" d="M51,299.1c3-2.4,2.3-5.6,0.8-7.5c-0.6-0.7-1.4-1.4-2-2.2c-0.4-0.4-0.7-0.8-1.1-1.2l0,0l0,0
			c-0.3-0.3-0.6-0.6-0.9-0.9l-0.1-0.1l0,0l-0.5-0.5c0,0,0,0,0,0c-0.1-0.2-0.2-0.4-0.2-0.6c0-0.1-0.1-0.3-0.1-0.3
			c0.1,0,0.2-0.1,0.3-0.1c0.7-0.4,1.4-0.8,2.1-1.1c0,0,0,0,0,0c0.9,0.1,1.7,0.1,2.6,0c0.6-0.1,1.1-0.3,1.6-0.4
			c1.5,0.8,3.3,0.2,4.4-0.2c0.9-0.3,3-1.3,1.5-2.1c0.1,0,0.3-0.1,0.4-0.1c0.8-0.2,1.6-0.5,2.3-0.8c0.6-0.4,1.1-0.8,1.3-1.4
			c0-0.2,0-0.4-0.2-0.6c0.3,0,0.5-0.1,0.7-0.2c1.5-0.9,0.4-2.5-0.6-3.5c-0.7-0.7-1.5-1.4-2.4-2c-1.1-0.5-2.3-1-3.5-1.4
			c-1.8-0.6-4.4-1.2-6-0.4c-0.2,0.1-0.3,0.2-0.4,0.4c-0.3-0.1-0.7-0.2-1-0.1c-1,0.1-1.8,0.4-2.4,0.7c-0.6,0.4-1.1,0.8-1.5,1.3
			c-0.1,0.1-0.1,0.2-0.2,0.2c-1.5-0.9-3.1,0.3-3.7,0.9c-0.7,0.7-1.7,1.7-0.3,2.5c-0.3,0.3-0.6,0.6-0.8,0.9c-0.2,0.5-0.2,1-0.1,1.5
			c0,0,0,0,0,0c-0.7,0.4-1.3,0.8-2,1.2c-0.1,0-0.1,0.1-0.2,0.1c0,0-0.4-0.1-0.5-0.1c-0.4,0-0.7-0.1-1.1-0.1c0,0,0,0,0,0l-0.8-0.3
			l0,0l-0.2-0.1c-0.5-0.2-1-0.4-1.6-0.5l-0.1,0l0,0c-0.7-0.2-1.4-0.4-2.1-0.6c-1.3-0.4-2.5-0.8-3.7-1.2c-3.2-0.9-8.9-1.3-13,0.5
			c-1.9,0.8-1.8,2.1,0.3,3.4l14.4,8.5l14.7,8.3C47.3,300.2,49.6,300.2,51,299.1z"/>
	</g>
</g>
<g>
	<g>
		<path class="st18" d="M72.7,285.8c-15.3,8.9-40.3,8.8-55.7-0.1c-15.4-8.9-15.5-23.3-0.2-32.2c15.3-8.9,40.3-8.8,55.7,0.1
			C88,262.6,88,277,72.7,285.8z"/>
	</g>
	<g>
		<path class="st11" d="M72.7,278.6c-15.3,8.9-40.3,8.8-55.7-0.1c-15.4-8.9-15.5-23.3-0.2-32.2s40.3-8.8,55.7,0.1
			C88,255.3,88,269.7,72.7,278.6z"/>
	</g>
	<g>
		<path class="st5" d="M56.3,276.7c3-2.4,2.3-5.6,0.8-7.5c-0.6-0.7-1.4-1.4-2-2.2c-0.4-0.4-0.7-0.8-1.1-1.2l0,0l0,0
			c-0.3-0.3-0.6-0.6-0.9-0.9l-0.1-0.1l0,0l-0.5-0.5c0,0,0,0,0,0c-0.1-0.2-0.2-0.4-0.2-0.6c0-0.1-0.1-0.3-0.1-0.3
			c0.1,0,0.2-0.1,0.3-0.1c0.7-0.4,1.4-0.8,2.1-1.1c0,0,0,0,0,0c0.9,0.1,1.7,0.1,2.6,0c0.6-0.1,1.1-0.3,1.6-0.4
			c1.5,0.8,3.3,0.2,4.4-0.2c0.9-0.3,3-1.3,1.5-2.1c0.1,0,0.3-0.1,0.4-0.1c0.8-0.2,1.6-0.5,2.3-0.8c0.6-0.4,1.1-0.8,1.3-1.4
			c0-0.2,0-0.4-0.2-0.6c0.3,0,0.5-0.1,0.7-0.2c1.5-0.9,0.4-2.5-0.6-3.5c-0.7-0.7-1.5-1.4-2.4-2c-1.1-0.5-2.3-1-3.5-1.4
			c-1.8-0.6-4.4-1.2-6-0.4c-0.2,0.1-0.3,0.2-0.4,0.4c-0.3-0.1-0.7-0.2-1-0.1c-1,0.1-1.8,0.4-2.4,0.7c-0.6,0.4-1.1,0.8-1.5,1.3
			c-0.1,0.1-0.1,0.2-0.2,0.2c-1.5-0.9-3.1,0.3-3.7,0.9c-0.7,0.7-1.7,1.7-0.3,2.5c-0.3,0.3-0.6,0.6-0.8,0.9c-0.2,0.5-0.2,1-0.1,1.5
			c0,0,0,0,0,0c-0.7,0.4-1.3,0.8-2,1.2c-0.1,0-0.1,0.1-0.2,0.1c0,0-0.4-0.1-0.5-0.1c-0.4,0-0.7-0.1-1.1-0.1c0,0,0,0,0,0l-0.8-0.3
			l0,0l-0.2-0.1c-0.5-0.2-1-0.4-1.6-0.5l-0.1,0l0,0c-0.7-0.2-1.4-0.4-2.1-0.6c-1.3-0.4-2.5-0.8-3.7-1.2c-3.2-0.9-8.9-1.3-13,0.5
			c-1.9,0.8-1.8,2.1,0.3,3.4l14.4,8.5l14.7,8.3C52.6,277.8,54.9,277.8,56.3,276.7z"/>
	</g>
</g>
</svg>
